G04 #@! TF.GenerationSoftware,KiCad,Pcbnew,(5.1.0)-1*
G04 #@! TF.CreationDate,2020-01-03T20:23:20+09:00*
G04 #@! TF.ProjectId,100cm^2,31303063-6d5e-4322-9e6b-696361645f70,rev?*
G04 #@! TF.SameCoordinates,Original*
G04 #@! TF.FileFunction,Legend,Top*
G04 #@! TF.FilePolarity,Positive*
%FSLAX46Y46*%
G04 Gerber Fmt 4.6, Leading zero omitted, Abs format (unit mm)*
G04 Created by KiCad (PCBNEW (5.1.0)-1) date 2020-01-03 20:23:20*
%MOMM*%
%LPD*%
G04 APERTURE LIST*
%ADD10C,0.150000*%
%ADD11C,0.125000*%
G04 APERTURE END LIST*
D10*
X167500000Y-60500000D02*
X168500000Y-60500000D01*
X168000000Y-60400000D02*
X167500000Y-59500000D01*
X168500000Y-59500000D02*
X168000000Y-60400000D01*
X167500000Y-59500000D02*
X168500000Y-59500000D01*
X167250000Y-57300000D02*
X168750000Y-57300000D01*
X167250000Y-62700000D02*
X168750000Y-62700000D01*
X167250000Y-57300000D02*
X167250000Y-62700000D01*
X168750000Y-62700000D02*
X168750000Y-57300000D01*
X168250000Y-82200000D02*
X168250000Y-76800000D01*
X166750000Y-76800000D02*
X166750000Y-82200000D01*
X166750000Y-82200000D02*
X168250000Y-82200000D01*
X166750000Y-76800000D02*
X168250000Y-76800000D01*
X167000000Y-79000000D02*
X168000000Y-79000000D01*
X168000000Y-79000000D02*
X167500000Y-79900000D01*
X167500000Y-79900000D02*
X167000000Y-79000000D01*
X167000000Y-80000000D02*
X168000000Y-80000000D01*
X167000000Y-99000000D02*
X168000000Y-99000000D01*
X167500000Y-98900000D02*
X167000000Y-98000000D01*
X168000000Y-98000000D02*
X167500000Y-98900000D01*
X167000000Y-98000000D02*
X168000000Y-98000000D01*
X166750000Y-95800000D02*
X168250000Y-95800000D01*
X166750000Y-101200000D02*
X168250000Y-101200000D01*
X166750000Y-95800000D02*
X166750000Y-101200000D01*
X168250000Y-101200000D02*
X168250000Y-95800000D01*
X167000000Y-118000000D02*
X168000000Y-118000000D01*
X167500000Y-117900000D02*
X167000000Y-117000000D01*
X168000000Y-117000000D02*
X167500000Y-117900000D01*
X167000000Y-117000000D02*
X168000000Y-117000000D01*
X166750000Y-114800000D02*
X168250000Y-114800000D01*
X166750000Y-120200000D02*
X168250000Y-120200000D01*
X166750000Y-114800000D02*
X166750000Y-120200000D01*
X168250000Y-120200000D02*
X168250000Y-114800000D01*
X171250000Y-67200000D02*
X171250000Y-61800000D01*
X169750000Y-61800000D02*
X169750000Y-67200000D01*
X169750000Y-67200000D02*
X171250000Y-67200000D01*
X169750000Y-61800000D02*
X171250000Y-61800000D01*
X170000000Y-64000000D02*
X171000000Y-64000000D01*
X171000000Y-64000000D02*
X170500000Y-64900000D01*
X170500000Y-64900000D02*
X170000000Y-64000000D01*
X170000000Y-65000000D02*
X171000000Y-65000000D01*
X171250000Y-86200000D02*
X171250000Y-80800000D01*
X169750000Y-80800000D02*
X169750000Y-86200000D01*
X169750000Y-86200000D02*
X171250000Y-86200000D01*
X169750000Y-80800000D02*
X171250000Y-80800000D01*
X170000000Y-83000000D02*
X171000000Y-83000000D01*
X171000000Y-83000000D02*
X170500000Y-83900000D01*
X170500000Y-83900000D02*
X170000000Y-83000000D01*
X170000000Y-84000000D02*
X171000000Y-84000000D01*
X171250000Y-104700000D02*
X171250000Y-99300000D01*
X169750000Y-99300000D02*
X169750000Y-104700000D01*
X169750000Y-104700000D02*
X171250000Y-104700000D01*
X169750000Y-99300000D02*
X171250000Y-99300000D01*
X170000000Y-101500000D02*
X171000000Y-101500000D01*
X171000000Y-101500000D02*
X170500000Y-102400000D01*
X170500000Y-102400000D02*
X170000000Y-101500000D01*
X170000000Y-102500000D02*
X171000000Y-102500000D01*
X175500000Y-122225000D02*
X176500000Y-122225000D01*
X176000000Y-122125000D02*
X175500000Y-121225000D01*
X176500000Y-121225000D02*
X176000000Y-122125000D01*
X175500000Y-121225000D02*
X176500000Y-121225000D01*
X175250000Y-119025000D02*
X176750000Y-119025000D01*
X175250000Y-124425000D02*
X176750000Y-124425000D01*
X175250000Y-119025000D02*
X175250000Y-124425000D01*
X176750000Y-124425000D02*
X176750000Y-119025000D01*
X187250000Y-67200000D02*
X187250000Y-61800000D01*
X185750000Y-61800000D02*
X185750000Y-67200000D01*
X185750000Y-67200000D02*
X187250000Y-67200000D01*
X185750000Y-61800000D02*
X187250000Y-61800000D01*
X186000000Y-64000000D02*
X187000000Y-64000000D01*
X187000000Y-64000000D02*
X186500000Y-64900000D01*
X186500000Y-64900000D02*
X186000000Y-64000000D01*
X186000000Y-65000000D02*
X187000000Y-65000000D01*
X186000000Y-83500000D02*
X187000000Y-83500000D01*
X186500000Y-83400000D02*
X186000000Y-82500000D01*
X187000000Y-82500000D02*
X186500000Y-83400000D01*
X186000000Y-82500000D02*
X187000000Y-82500000D01*
X185750000Y-80300000D02*
X187250000Y-80300000D01*
X185750000Y-85700000D02*
X187250000Y-85700000D01*
X185750000Y-80300000D02*
X185750000Y-85700000D01*
X187250000Y-85700000D02*
X187250000Y-80300000D01*
X188500000Y-98000000D02*
X189500000Y-98000000D01*
X189000000Y-97900000D02*
X188500000Y-97000000D01*
X189500000Y-97000000D02*
X189000000Y-97900000D01*
X188500000Y-97000000D02*
X189500000Y-97000000D01*
X188250000Y-94800000D02*
X189750000Y-94800000D01*
X188250000Y-100200000D02*
X189750000Y-100200000D01*
X188250000Y-94800000D02*
X188250000Y-100200000D01*
X189750000Y-100200000D02*
X189750000Y-94800000D01*
X193500000Y-124725000D02*
X194500000Y-124725000D01*
X194000000Y-124625000D02*
X193500000Y-123725000D01*
X194500000Y-123725000D02*
X194000000Y-124625000D01*
X193500000Y-123725000D02*
X194500000Y-123725000D01*
X193250000Y-121525000D02*
X194750000Y-121525000D01*
X193250000Y-126925000D02*
X194750000Y-126925000D01*
X193250000Y-121525000D02*
X193250000Y-126925000D01*
X194750000Y-126925000D02*
X194750000Y-121525000D01*
X227000000Y-68500000D02*
X228000000Y-68500000D01*
X227500000Y-68400000D02*
X227000000Y-67500000D01*
X228000000Y-67500000D02*
X227500000Y-68400000D01*
X227000000Y-67500000D02*
X228000000Y-67500000D01*
X226750000Y-65300000D02*
X228250000Y-65300000D01*
X226750000Y-70700000D02*
X228250000Y-70700000D01*
X226750000Y-65300000D02*
X226750000Y-70700000D01*
X228250000Y-70700000D02*
X228250000Y-65300000D01*
X226250000Y-92925000D02*
X226250000Y-87525000D01*
X224750000Y-87525000D02*
X224750000Y-92925000D01*
X224750000Y-92925000D02*
X226250000Y-92925000D01*
X224750000Y-87525000D02*
X226250000Y-87525000D01*
X225000000Y-89725000D02*
X226000000Y-89725000D01*
X226000000Y-89725000D02*
X225500000Y-90625000D01*
X225500000Y-90625000D02*
X225000000Y-89725000D01*
X225000000Y-90725000D02*
X226000000Y-90725000D01*
X209250000Y-107425000D02*
X209250000Y-102025000D01*
X207750000Y-102025000D02*
X207750000Y-107425000D01*
X207750000Y-107425000D02*
X209250000Y-107425000D01*
X207750000Y-102025000D02*
X209250000Y-102025000D01*
X208000000Y-104225000D02*
X209000000Y-104225000D01*
X209000000Y-104225000D02*
X208500000Y-105125000D01*
X208500000Y-105125000D02*
X208000000Y-104225000D01*
X208000000Y-105225000D02*
X209000000Y-105225000D01*
X214250000Y-127200000D02*
X214250000Y-121800000D01*
X212750000Y-121800000D02*
X212750000Y-127200000D01*
X212750000Y-127200000D02*
X214250000Y-127200000D01*
X212750000Y-121800000D02*
X214250000Y-121800000D01*
X213000000Y-124000000D02*
X214000000Y-124000000D01*
X214000000Y-124000000D02*
X213500000Y-124900000D01*
X213500000Y-124900000D02*
X213000000Y-124000000D01*
X213000000Y-125000000D02*
X214000000Y-125000000D01*
X227000000Y-75000000D02*
X228000000Y-75000000D01*
X227500000Y-74900000D02*
X227000000Y-74000000D01*
X228000000Y-74000000D02*
X227500000Y-74900000D01*
X227000000Y-74000000D02*
X228000000Y-74000000D01*
X226750000Y-71800000D02*
X228250000Y-71800000D01*
X226750000Y-77200000D02*
X228250000Y-77200000D01*
X226750000Y-71800000D02*
X226750000Y-77200000D01*
X228250000Y-77200000D02*
X228250000Y-71800000D01*
X228250000Y-89200000D02*
X228250000Y-83800000D01*
X226750000Y-83800000D02*
X226750000Y-89200000D01*
X226750000Y-89200000D02*
X228250000Y-89200000D01*
X226750000Y-83800000D02*
X228250000Y-83800000D01*
X227000000Y-86000000D02*
X228000000Y-86000000D01*
X228000000Y-86000000D02*
X227500000Y-86900000D01*
X227500000Y-86900000D02*
X227000000Y-86000000D01*
X227000000Y-87000000D02*
X228000000Y-87000000D01*
X227500000Y-106000000D02*
X228500000Y-106000000D01*
X228000000Y-105900000D02*
X227500000Y-105000000D01*
X228500000Y-105000000D02*
X228000000Y-105900000D01*
X227500000Y-105000000D02*
X228500000Y-105000000D01*
X227250000Y-102800000D02*
X228750000Y-102800000D01*
X227250000Y-108200000D02*
X228750000Y-108200000D01*
X227250000Y-102800000D02*
X227250000Y-108200000D01*
X228750000Y-108200000D02*
X228750000Y-102800000D01*
X233250000Y-127200000D02*
X233250000Y-121800000D01*
X231750000Y-121800000D02*
X231750000Y-127200000D01*
X231750000Y-127200000D02*
X233250000Y-127200000D01*
X231750000Y-121800000D02*
X233250000Y-121800000D01*
X232000000Y-124000000D02*
X233000000Y-124000000D01*
X233000000Y-124000000D02*
X232500000Y-124900000D01*
X232500000Y-124900000D02*
X232000000Y-124000000D01*
X232000000Y-125000000D02*
X233000000Y-125000000D01*
X244250000Y-73700000D02*
X244250000Y-68300000D01*
X242750000Y-68300000D02*
X242750000Y-73700000D01*
X242750000Y-73700000D02*
X244250000Y-73700000D01*
X242750000Y-68300000D02*
X244250000Y-68300000D01*
X243000000Y-70500000D02*
X244000000Y-70500000D01*
X244000000Y-70500000D02*
X243500000Y-71400000D01*
X243500000Y-71400000D02*
X243000000Y-70500000D01*
X243000000Y-71500000D02*
X244000000Y-71500000D01*
X243000000Y-87000000D02*
X244000000Y-87000000D01*
X243500000Y-86900000D02*
X243000000Y-86000000D01*
X244000000Y-86000000D02*
X243500000Y-86900000D01*
X243000000Y-86000000D02*
X244000000Y-86000000D01*
X242750000Y-83800000D02*
X244250000Y-83800000D01*
X242750000Y-89200000D02*
X244250000Y-89200000D01*
X242750000Y-83800000D02*
X242750000Y-89200000D01*
X244250000Y-89200000D02*
X244250000Y-83800000D01*
X244750000Y-108200000D02*
X244750000Y-102800000D01*
X243250000Y-102800000D02*
X243250000Y-108200000D01*
X243250000Y-108200000D02*
X244750000Y-108200000D01*
X243250000Y-102800000D02*
X244750000Y-102800000D01*
X243500000Y-105000000D02*
X244500000Y-105000000D01*
X244500000Y-105000000D02*
X244000000Y-105900000D01*
X244000000Y-105900000D02*
X243500000Y-105000000D01*
X243500000Y-106000000D02*
X244500000Y-106000000D01*
X241000000Y-115000000D02*
X242000000Y-115000000D01*
X241500000Y-114900000D02*
X241000000Y-114000000D01*
X242000000Y-114000000D02*
X241500000Y-114900000D01*
X241000000Y-114000000D02*
X242000000Y-114000000D01*
X240750000Y-111800000D02*
X242250000Y-111800000D01*
X240750000Y-117200000D02*
X242250000Y-117200000D01*
X240750000Y-111800000D02*
X240750000Y-117200000D01*
X242250000Y-117200000D02*
X242250000Y-111800000D01*
X249000000Y-53000000D02*
X249000000Y-59000000D01*
X249000000Y-59000000D02*
X237000000Y-59000000D01*
X237000000Y-59000000D02*
X237000000Y-53000000D01*
X237000000Y-53000000D02*
X249000000Y-53000000D01*
X179500000Y-54750000D02*
X185500000Y-54750000D01*
X185500000Y-54750000D02*
X185500000Y-54500000D01*
X179500000Y-54750000D02*
X179500000Y-54500000D01*
X179500000Y-51250000D02*
X179500000Y-51500000D01*
X179500000Y-51250000D02*
X185500000Y-51250000D01*
X185500000Y-51250000D02*
X185500000Y-51500000D01*
X246250000Y-70000000D02*
X246500000Y-70000000D01*
X246250000Y-76000000D02*
X246250000Y-70000000D01*
X246250000Y-76000000D02*
X246500000Y-76000000D01*
X249750000Y-76000000D02*
X249500000Y-76000000D01*
X249750000Y-70000000D02*
X249500000Y-70000000D01*
X249750000Y-76000000D02*
X249750000Y-70000000D01*
X249750000Y-86000000D02*
X249750000Y-80000000D01*
X249750000Y-80000000D02*
X249500000Y-80000000D01*
X249750000Y-86000000D02*
X249500000Y-86000000D01*
X246250000Y-86000000D02*
X246500000Y-86000000D01*
X246250000Y-86000000D02*
X246250000Y-80000000D01*
X246250000Y-80000000D02*
X246500000Y-80000000D01*
X246250000Y-90000000D02*
X246500000Y-90000000D01*
X246250000Y-96000000D02*
X246250000Y-90000000D01*
X246250000Y-96000000D02*
X246500000Y-96000000D01*
X249750000Y-96000000D02*
X249500000Y-96000000D01*
X249750000Y-90000000D02*
X249500000Y-90000000D01*
X249750000Y-96000000D02*
X249750000Y-90000000D01*
X249750000Y-105500000D02*
X249750000Y-99500000D01*
X249750000Y-99500000D02*
X249500000Y-99500000D01*
X249750000Y-105500000D02*
X249500000Y-105500000D01*
X246250000Y-105500000D02*
X246500000Y-105500000D01*
X246250000Y-105500000D02*
X246250000Y-99500000D01*
X246250000Y-99500000D02*
X246500000Y-99500000D01*
X222886400Y-84232000D02*
X222886400Y-53752000D01*
X225426400Y-84232000D02*
X222886400Y-84232000D01*
X225426400Y-53752000D02*
X225426400Y-84232000D01*
X222886400Y-53752000D02*
X225426400Y-53752000D01*
X207666400Y-84232000D02*
X207666400Y-53752000D01*
X210206400Y-84232000D02*
X207666400Y-84232000D01*
X210206400Y-53752000D02*
X210206400Y-84232000D01*
X207666400Y-53752000D02*
X210206400Y-53752000D01*
X242002380Y-57011904D02*
X242002380Y-56440476D01*
X243002380Y-56726190D02*
X242002380Y-56726190D01*
X243002380Y-55535714D02*
X242526190Y-55869047D01*
X243002380Y-56107142D02*
X242002380Y-56107142D01*
X242002380Y-55726190D01*
X242050000Y-55630952D01*
X242097619Y-55583333D01*
X242192857Y-55535714D01*
X242335714Y-55535714D01*
X242430952Y-55583333D01*
X242478571Y-55630952D01*
X242526190Y-55726190D01*
X242526190Y-56107142D01*
X243002380Y-54535714D02*
X242526190Y-54869047D01*
X243002380Y-55107142D02*
X242002380Y-55107142D01*
X242002380Y-54726190D01*
X242050000Y-54630952D01*
X242097619Y-54583333D01*
X242192857Y-54535714D01*
X242335714Y-54535714D01*
X242430952Y-54583333D01*
X242478571Y-54630952D01*
X242526190Y-54726190D01*
X242526190Y-55107142D01*
X242954761Y-54154761D02*
X243002380Y-54011904D01*
X243002380Y-53773809D01*
X242954761Y-53678571D01*
X242907142Y-53630952D01*
X242811904Y-53583333D01*
X242716666Y-53583333D01*
X242621428Y-53630952D01*
X242573809Y-53678571D01*
X242526190Y-53773809D01*
X242478571Y-53964285D01*
X242430952Y-54059523D01*
X242383333Y-54107142D01*
X242288095Y-54154761D01*
X242192857Y-54154761D01*
X242097619Y-54107142D01*
X242050000Y-54059523D01*
X242002380Y-53964285D01*
X242002380Y-53726190D01*
X242050000Y-53583333D01*
X181047619Y-53452380D02*
X180714285Y-52976190D01*
X180476190Y-53452380D02*
X180476190Y-52452380D01*
X180857142Y-52452380D01*
X180952380Y-52500000D01*
X181000000Y-52547619D01*
X181047619Y-52642857D01*
X181047619Y-52785714D01*
X181000000Y-52880952D01*
X180952380Y-52928571D01*
X180857142Y-52976190D01*
X180476190Y-52976190D01*
X181476190Y-52928571D02*
X181809523Y-52928571D01*
X181952380Y-53452380D02*
X181476190Y-53452380D01*
X181476190Y-52452380D01*
X181952380Y-52452380D01*
X182333333Y-53404761D02*
X182476190Y-53452380D01*
X182714285Y-53452380D01*
X182809523Y-53404761D01*
X182857142Y-53357142D01*
X182904761Y-53261904D01*
X182904761Y-53166666D01*
X182857142Y-53071428D01*
X182809523Y-53023809D01*
X182714285Y-52976190D01*
X182523809Y-52928571D01*
X182428571Y-52880952D01*
X182380952Y-52833333D01*
X182333333Y-52738095D01*
X182333333Y-52642857D01*
X182380952Y-52547619D01*
X182428571Y-52500000D01*
X182523809Y-52452380D01*
X182761904Y-52452380D01*
X182904761Y-52500000D01*
X183333333Y-52928571D02*
X183666666Y-52928571D01*
X183809523Y-53452380D02*
X183333333Y-53452380D01*
X183333333Y-52452380D01*
X183809523Y-52452380D01*
X184095238Y-52452380D02*
X184666666Y-52452380D01*
X184380952Y-53452380D02*
X184380952Y-52452380D01*
D11*
X221119047Y-73141285D02*
X220952380Y-72784142D01*
X220833333Y-73141285D02*
X220833333Y-72391285D01*
X221023809Y-72391285D01*
X221071428Y-72427000D01*
X221095238Y-72462714D01*
X221119047Y-72534142D01*
X221119047Y-72641285D01*
X221095238Y-72712714D01*
X221071428Y-72748428D01*
X221023809Y-72784142D01*
X220833333Y-72784142D01*
X221428571Y-72391285D02*
X221523809Y-72391285D01*
X221571428Y-72427000D01*
X221619047Y-72498428D01*
X221642857Y-72641285D01*
X221642857Y-72891285D01*
X221619047Y-73034142D01*
X221571428Y-73105571D01*
X221523809Y-73141285D01*
X221428571Y-73141285D01*
X221380952Y-73105571D01*
X221333333Y-73034142D01*
X221309523Y-72891285D01*
X221309523Y-72641285D01*
X221333333Y-72498428D01*
X221380952Y-72427000D01*
X221428571Y-72391285D01*
X221809523Y-72391285D02*
X221928571Y-73141285D01*
X222023809Y-72605571D01*
X222119047Y-73141285D01*
X222238095Y-72391285D01*
X222690476Y-73141285D02*
X222404761Y-73141285D01*
X222547619Y-73141285D02*
X222547619Y-72391285D01*
X222500000Y-72498428D01*
X222452380Y-72569857D01*
X222404761Y-72605571D01*
X206002380Y-75617857D02*
X205978571Y-75653571D01*
X205907142Y-75689285D01*
X205859523Y-75689285D01*
X205788095Y-75653571D01*
X205740476Y-75582142D01*
X205716666Y-75510714D01*
X205692857Y-75367857D01*
X205692857Y-75260714D01*
X205716666Y-75117857D01*
X205740476Y-75046428D01*
X205788095Y-74975000D01*
X205859523Y-74939285D01*
X205907142Y-74939285D01*
X205978571Y-74975000D01*
X206002380Y-75010714D01*
X206311904Y-74939285D02*
X206407142Y-74939285D01*
X206454761Y-74975000D01*
X206502380Y-75046428D01*
X206526190Y-75189285D01*
X206526190Y-75439285D01*
X206502380Y-75582142D01*
X206454761Y-75653571D01*
X206407142Y-75689285D01*
X206311904Y-75689285D01*
X206264285Y-75653571D01*
X206216666Y-75582142D01*
X206192857Y-75439285D01*
X206192857Y-75189285D01*
X206216666Y-75046428D01*
X206264285Y-74975000D01*
X206311904Y-74939285D01*
X206978571Y-75689285D02*
X206740476Y-75689285D01*
X206740476Y-74939285D01*
X207359523Y-75189285D02*
X207359523Y-75689285D01*
X207240476Y-74903571D02*
X207121428Y-75439285D01*
X207430952Y-75439285D01*
X221069047Y-75689285D02*
X220902380Y-75332142D01*
X220783333Y-75689285D02*
X220783333Y-74939285D01*
X220973809Y-74939285D01*
X221021428Y-74975000D01*
X221045238Y-75010714D01*
X221069047Y-75082142D01*
X221069047Y-75189285D01*
X221045238Y-75260714D01*
X221021428Y-75296428D01*
X220973809Y-75332142D01*
X220783333Y-75332142D01*
X221378571Y-74939285D02*
X221473809Y-74939285D01*
X221521428Y-74975000D01*
X221569047Y-75046428D01*
X221592857Y-75189285D01*
X221592857Y-75439285D01*
X221569047Y-75582142D01*
X221521428Y-75653571D01*
X221473809Y-75689285D01*
X221378571Y-75689285D01*
X221330952Y-75653571D01*
X221283333Y-75582142D01*
X221259523Y-75439285D01*
X221259523Y-75189285D01*
X221283333Y-75046428D01*
X221330952Y-74975000D01*
X221378571Y-74939285D01*
X221759523Y-74939285D02*
X221878571Y-75689285D01*
X221973809Y-75153571D01*
X222069047Y-75689285D01*
X222188095Y-74939285D01*
X222354761Y-75010714D02*
X222378571Y-74975000D01*
X222426190Y-74939285D01*
X222545238Y-74939285D01*
X222592857Y-74975000D01*
X222616666Y-75010714D01*
X222640476Y-75082142D01*
X222640476Y-75153571D01*
X222616666Y-75260714D01*
X222330952Y-75689285D01*
X222640476Y-75689285D01*
X206002380Y-78213357D02*
X205978571Y-78249071D01*
X205907142Y-78284785D01*
X205859523Y-78284785D01*
X205788095Y-78249071D01*
X205740476Y-78177642D01*
X205716666Y-78106214D01*
X205692857Y-77963357D01*
X205692857Y-77856214D01*
X205716666Y-77713357D01*
X205740476Y-77641928D01*
X205788095Y-77570500D01*
X205859523Y-77534785D01*
X205907142Y-77534785D01*
X205978571Y-77570500D01*
X206002380Y-77606214D01*
X206311904Y-77534785D02*
X206407142Y-77534785D01*
X206454761Y-77570500D01*
X206502380Y-77641928D01*
X206526190Y-77784785D01*
X206526190Y-78034785D01*
X206502380Y-78177642D01*
X206454761Y-78249071D01*
X206407142Y-78284785D01*
X206311904Y-78284785D01*
X206264285Y-78249071D01*
X206216666Y-78177642D01*
X206192857Y-78034785D01*
X206192857Y-77784785D01*
X206216666Y-77641928D01*
X206264285Y-77570500D01*
X206311904Y-77534785D01*
X206978571Y-78284785D02*
X206740476Y-78284785D01*
X206740476Y-77534785D01*
X207383333Y-77534785D02*
X207145238Y-77534785D01*
X207121428Y-77891928D01*
X207145238Y-77856214D01*
X207192857Y-77820500D01*
X207311904Y-77820500D01*
X207359523Y-77856214D01*
X207383333Y-77891928D01*
X207407142Y-77963357D01*
X207407142Y-78141928D01*
X207383333Y-78213357D01*
X207359523Y-78249071D01*
X207311904Y-78284785D01*
X207192857Y-78284785D01*
X207145238Y-78249071D01*
X207121428Y-78213357D01*
X221069047Y-78284785D02*
X220902380Y-77927642D01*
X220783333Y-78284785D02*
X220783333Y-77534785D01*
X220973809Y-77534785D01*
X221021428Y-77570500D01*
X221045238Y-77606214D01*
X221069047Y-77677642D01*
X221069047Y-77784785D01*
X221045238Y-77856214D01*
X221021428Y-77891928D01*
X220973809Y-77927642D01*
X220783333Y-77927642D01*
X221378571Y-77534785D02*
X221473809Y-77534785D01*
X221521428Y-77570500D01*
X221569047Y-77641928D01*
X221592857Y-77784785D01*
X221592857Y-78034785D01*
X221569047Y-78177642D01*
X221521428Y-78249071D01*
X221473809Y-78284785D01*
X221378571Y-78284785D01*
X221330952Y-78249071D01*
X221283333Y-78177642D01*
X221259523Y-78034785D01*
X221259523Y-77784785D01*
X221283333Y-77641928D01*
X221330952Y-77570500D01*
X221378571Y-77534785D01*
X221759523Y-77534785D02*
X221878571Y-78284785D01*
X221973809Y-77749071D01*
X222069047Y-78284785D01*
X222188095Y-77534785D01*
X222330952Y-77534785D02*
X222640476Y-77534785D01*
X222473809Y-77820500D01*
X222545238Y-77820500D01*
X222592857Y-77856214D01*
X222616666Y-77891928D01*
X222640476Y-77963357D01*
X222640476Y-78141928D01*
X222616666Y-78213357D01*
X222592857Y-78249071D01*
X222545238Y-78284785D01*
X222402380Y-78284785D01*
X222354761Y-78249071D01*
X222330952Y-78213357D01*
X206347619Y-80396428D02*
X206419047Y-80432142D01*
X206442857Y-80467857D01*
X206466666Y-80539285D01*
X206466666Y-80646428D01*
X206442857Y-80717857D01*
X206419047Y-80753571D01*
X206371428Y-80789285D01*
X206180952Y-80789285D01*
X206180952Y-80039285D01*
X206347619Y-80039285D01*
X206395238Y-80075000D01*
X206419047Y-80110714D01*
X206442857Y-80182142D01*
X206442857Y-80253571D01*
X206419047Y-80325000D01*
X206395238Y-80360714D01*
X206347619Y-80396428D01*
X206180952Y-80396428D01*
X206657142Y-80110714D02*
X206680952Y-80075000D01*
X206728571Y-80039285D01*
X206847619Y-80039285D01*
X206895238Y-80075000D01*
X206919047Y-80110714D01*
X206942857Y-80182142D01*
X206942857Y-80253571D01*
X206919047Y-80360714D01*
X206633333Y-80789285D01*
X206942857Y-80789285D01*
X221497619Y-80368428D02*
X221569047Y-80404142D01*
X221592857Y-80439857D01*
X221616666Y-80511285D01*
X221616666Y-80618428D01*
X221592857Y-80689857D01*
X221569047Y-80725571D01*
X221521428Y-80761285D01*
X221330952Y-80761285D01*
X221330952Y-80011285D01*
X221497619Y-80011285D01*
X221545238Y-80047000D01*
X221569047Y-80082714D01*
X221592857Y-80154142D01*
X221592857Y-80225571D01*
X221569047Y-80297000D01*
X221545238Y-80332714D01*
X221497619Y-80368428D01*
X221330952Y-80368428D01*
X222045238Y-80261285D02*
X222045238Y-80761285D01*
X221926190Y-79975571D02*
X221807142Y-80511285D01*
X222116666Y-80511285D01*
X221497619Y-82971928D02*
X221569047Y-83007642D01*
X221592857Y-83043357D01*
X221616666Y-83114785D01*
X221616666Y-83221928D01*
X221592857Y-83293357D01*
X221569047Y-83329071D01*
X221521428Y-83364785D01*
X221330952Y-83364785D01*
X221330952Y-82614785D01*
X221497619Y-82614785D01*
X221545238Y-82650500D01*
X221569047Y-82686214D01*
X221592857Y-82757642D01*
X221592857Y-82829071D01*
X221569047Y-82900500D01*
X221545238Y-82936214D01*
X221497619Y-82971928D01*
X221330952Y-82971928D01*
X222069047Y-82614785D02*
X221830952Y-82614785D01*
X221807142Y-82971928D01*
X221830952Y-82936214D01*
X221878571Y-82900500D01*
X221997619Y-82900500D01*
X222045238Y-82936214D01*
X222069047Y-82971928D01*
X222092857Y-83043357D01*
X222092857Y-83221928D01*
X222069047Y-83293357D01*
X222045238Y-83329071D01*
X221997619Y-83364785D01*
X221878571Y-83364785D01*
X221830952Y-83329071D01*
X221807142Y-83293357D01*
X206247619Y-82946428D02*
X206319047Y-82982142D01*
X206342857Y-83017857D01*
X206366666Y-83089285D01*
X206366666Y-83196428D01*
X206342857Y-83267857D01*
X206319047Y-83303571D01*
X206271428Y-83339285D01*
X206080952Y-83339285D01*
X206080952Y-82589285D01*
X206247619Y-82589285D01*
X206295238Y-82625000D01*
X206319047Y-82660714D01*
X206342857Y-82732142D01*
X206342857Y-82803571D01*
X206319047Y-82875000D01*
X206295238Y-82910714D01*
X206247619Y-82946428D01*
X206080952Y-82946428D01*
X206795238Y-82589285D02*
X206700000Y-82589285D01*
X206652380Y-82625000D01*
X206628571Y-82660714D01*
X206580952Y-82767857D01*
X206557142Y-82910714D01*
X206557142Y-83196428D01*
X206580952Y-83267857D01*
X206604761Y-83303571D01*
X206652380Y-83339285D01*
X206747619Y-83339285D01*
X206795238Y-83303571D01*
X206819047Y-83267857D01*
X206842857Y-83196428D01*
X206842857Y-83017857D01*
X206819047Y-82946428D01*
X206795238Y-82910714D01*
X206747619Y-82875000D01*
X206652380Y-82875000D01*
X206604761Y-82910714D01*
X206580952Y-82946428D01*
X206557142Y-83017857D01*
X206052380Y-65467857D02*
X206028571Y-65503571D01*
X205957142Y-65539285D01*
X205909523Y-65539285D01*
X205838095Y-65503571D01*
X205790476Y-65432142D01*
X205766666Y-65360714D01*
X205742857Y-65217857D01*
X205742857Y-65110714D01*
X205766666Y-64967857D01*
X205790476Y-64896428D01*
X205838095Y-64825000D01*
X205909523Y-64789285D01*
X205957142Y-64789285D01*
X206028571Y-64825000D01*
X206052380Y-64860714D01*
X206361904Y-64789285D02*
X206457142Y-64789285D01*
X206504761Y-64825000D01*
X206552380Y-64896428D01*
X206576190Y-65039285D01*
X206576190Y-65289285D01*
X206552380Y-65432142D01*
X206504761Y-65503571D01*
X206457142Y-65539285D01*
X206361904Y-65539285D01*
X206314285Y-65503571D01*
X206266666Y-65432142D01*
X206242857Y-65289285D01*
X206242857Y-65039285D01*
X206266666Y-64896428D01*
X206314285Y-64825000D01*
X206361904Y-64789285D01*
X207028571Y-65539285D02*
X206790476Y-65539285D01*
X206790476Y-64789285D01*
X207290476Y-64789285D02*
X207338095Y-64789285D01*
X207385714Y-64825000D01*
X207409523Y-64860714D01*
X207433333Y-64932142D01*
X207457142Y-65075000D01*
X207457142Y-65253571D01*
X207433333Y-65396428D01*
X207409523Y-65467857D01*
X207385714Y-65503571D01*
X207338095Y-65539285D01*
X207290476Y-65539285D01*
X207242857Y-65503571D01*
X207219047Y-65467857D01*
X207195238Y-65396428D01*
X207171428Y-65253571D01*
X207171428Y-65075000D01*
X207195238Y-64932142D01*
X207219047Y-64860714D01*
X207242857Y-64825000D01*
X207290476Y-64789285D01*
X221353857Y-65485571D02*
X221425285Y-65521285D01*
X221544333Y-65521285D01*
X221591952Y-65485571D01*
X221615761Y-65449857D01*
X221639571Y-65378428D01*
X221639571Y-65307000D01*
X221615761Y-65235571D01*
X221591952Y-65199857D01*
X221544333Y-65164142D01*
X221449095Y-65128428D01*
X221401476Y-65092714D01*
X221377666Y-65057000D01*
X221353857Y-64985571D01*
X221353857Y-64914142D01*
X221377666Y-64842714D01*
X221401476Y-64807000D01*
X221449095Y-64771285D01*
X221568142Y-64771285D01*
X221639571Y-64807000D01*
X221853857Y-65521285D02*
X221853857Y-64771285D01*
X221972904Y-64771285D01*
X222044333Y-64807000D01*
X222091952Y-64878428D01*
X222115761Y-64949857D01*
X222139571Y-65092714D01*
X222139571Y-65199857D01*
X222115761Y-65342714D01*
X222091952Y-65414142D01*
X222044333Y-65485571D01*
X221972904Y-65521285D01*
X221853857Y-65521285D01*
X222330047Y-65307000D02*
X222568142Y-65307000D01*
X222282428Y-65521285D02*
X222449095Y-64771285D01*
X222615761Y-65521285D01*
X206102380Y-67989857D02*
X206078571Y-68025571D01*
X206007142Y-68061285D01*
X205959523Y-68061285D01*
X205888095Y-68025571D01*
X205840476Y-67954142D01*
X205816666Y-67882714D01*
X205792857Y-67739857D01*
X205792857Y-67632714D01*
X205816666Y-67489857D01*
X205840476Y-67418428D01*
X205888095Y-67347000D01*
X205959523Y-67311285D01*
X206007142Y-67311285D01*
X206078571Y-67347000D01*
X206102380Y-67382714D01*
X206411904Y-67311285D02*
X206507142Y-67311285D01*
X206554761Y-67347000D01*
X206602380Y-67418428D01*
X206626190Y-67561285D01*
X206626190Y-67811285D01*
X206602380Y-67954142D01*
X206554761Y-68025571D01*
X206507142Y-68061285D01*
X206411904Y-68061285D01*
X206364285Y-68025571D01*
X206316666Y-67954142D01*
X206292857Y-67811285D01*
X206292857Y-67561285D01*
X206316666Y-67418428D01*
X206364285Y-67347000D01*
X206411904Y-67311285D01*
X207078571Y-68061285D02*
X206840476Y-68061285D01*
X206840476Y-67311285D01*
X207507142Y-68061285D02*
X207221428Y-68061285D01*
X207364285Y-68061285D02*
X207364285Y-67311285D01*
X207316666Y-67418428D01*
X207269047Y-67489857D01*
X207221428Y-67525571D01*
X221365761Y-68025571D02*
X221437190Y-68061285D01*
X221556238Y-68061285D01*
X221603857Y-68025571D01*
X221627666Y-67989857D01*
X221651476Y-67918428D01*
X221651476Y-67847000D01*
X221627666Y-67775571D01*
X221603857Y-67739857D01*
X221556238Y-67704142D01*
X221461000Y-67668428D01*
X221413380Y-67632714D01*
X221389571Y-67597000D01*
X221365761Y-67525571D01*
X221365761Y-67454142D01*
X221389571Y-67382714D01*
X221413380Y-67347000D01*
X221461000Y-67311285D01*
X221580047Y-67311285D01*
X221651476Y-67347000D01*
X222151476Y-67989857D02*
X222127666Y-68025571D01*
X222056238Y-68061285D01*
X222008619Y-68061285D01*
X221937190Y-68025571D01*
X221889571Y-67954142D01*
X221865761Y-67882714D01*
X221841952Y-67739857D01*
X221841952Y-67632714D01*
X221865761Y-67489857D01*
X221889571Y-67418428D01*
X221937190Y-67347000D01*
X222008619Y-67311285D01*
X222056238Y-67311285D01*
X222127666Y-67347000D01*
X222151476Y-67382714D01*
X222603857Y-68061285D02*
X222365761Y-68061285D01*
X222365761Y-67311285D01*
X206052380Y-70529857D02*
X206028571Y-70565571D01*
X205957142Y-70601285D01*
X205909523Y-70601285D01*
X205838095Y-70565571D01*
X205790476Y-70494142D01*
X205766666Y-70422714D01*
X205742857Y-70279857D01*
X205742857Y-70172714D01*
X205766666Y-70029857D01*
X205790476Y-69958428D01*
X205838095Y-69887000D01*
X205909523Y-69851285D01*
X205957142Y-69851285D01*
X206028571Y-69887000D01*
X206052380Y-69922714D01*
X206361904Y-69851285D02*
X206457142Y-69851285D01*
X206504761Y-69887000D01*
X206552380Y-69958428D01*
X206576190Y-70101285D01*
X206576190Y-70351285D01*
X206552380Y-70494142D01*
X206504761Y-70565571D01*
X206457142Y-70601285D01*
X206361904Y-70601285D01*
X206314285Y-70565571D01*
X206266666Y-70494142D01*
X206242857Y-70351285D01*
X206242857Y-70101285D01*
X206266666Y-69958428D01*
X206314285Y-69887000D01*
X206361904Y-69851285D01*
X207028571Y-70601285D02*
X206790476Y-70601285D01*
X206790476Y-69851285D01*
X207171428Y-69922714D02*
X207195238Y-69887000D01*
X207242857Y-69851285D01*
X207361904Y-69851285D01*
X207409523Y-69887000D01*
X207433333Y-69922714D01*
X207457142Y-69994142D01*
X207457142Y-70065571D01*
X207433333Y-70172714D01*
X207147619Y-70601285D01*
X207457142Y-70601285D01*
X221069047Y-70639285D02*
X220902380Y-70282142D01*
X220783333Y-70639285D02*
X220783333Y-69889285D01*
X220973809Y-69889285D01*
X221021428Y-69925000D01*
X221045238Y-69960714D01*
X221069047Y-70032142D01*
X221069047Y-70139285D01*
X221045238Y-70210714D01*
X221021428Y-70246428D01*
X220973809Y-70282142D01*
X220783333Y-70282142D01*
X221378571Y-69889285D02*
X221473809Y-69889285D01*
X221521428Y-69925000D01*
X221569047Y-69996428D01*
X221592857Y-70139285D01*
X221592857Y-70389285D01*
X221569047Y-70532142D01*
X221521428Y-70603571D01*
X221473809Y-70639285D01*
X221378571Y-70639285D01*
X221330952Y-70603571D01*
X221283333Y-70532142D01*
X221259523Y-70389285D01*
X221259523Y-70139285D01*
X221283333Y-69996428D01*
X221330952Y-69925000D01*
X221378571Y-69889285D01*
X221759523Y-69889285D02*
X221878571Y-70639285D01*
X221973809Y-70103571D01*
X222069047Y-70639285D01*
X222188095Y-69889285D01*
X222473809Y-69889285D02*
X222521428Y-69889285D01*
X222569047Y-69925000D01*
X222592857Y-69960714D01*
X222616666Y-70032142D01*
X222640476Y-70175000D01*
X222640476Y-70353571D01*
X222616666Y-70496428D01*
X222592857Y-70567857D01*
X222569047Y-70603571D01*
X222521428Y-70639285D01*
X222473809Y-70639285D01*
X222426190Y-70603571D01*
X222402380Y-70567857D01*
X222378571Y-70496428D01*
X222354761Y-70353571D01*
X222354761Y-70175000D01*
X222378571Y-70032142D01*
X222402380Y-69960714D01*
X222426190Y-69925000D01*
X222473809Y-69889285D01*
X205952380Y-73117857D02*
X205928571Y-73153571D01*
X205857142Y-73189285D01*
X205809523Y-73189285D01*
X205738095Y-73153571D01*
X205690476Y-73082142D01*
X205666666Y-73010714D01*
X205642857Y-72867857D01*
X205642857Y-72760714D01*
X205666666Y-72617857D01*
X205690476Y-72546428D01*
X205738095Y-72475000D01*
X205809523Y-72439285D01*
X205857142Y-72439285D01*
X205928571Y-72475000D01*
X205952380Y-72510714D01*
X206261904Y-72439285D02*
X206357142Y-72439285D01*
X206404761Y-72475000D01*
X206452380Y-72546428D01*
X206476190Y-72689285D01*
X206476190Y-72939285D01*
X206452380Y-73082142D01*
X206404761Y-73153571D01*
X206357142Y-73189285D01*
X206261904Y-73189285D01*
X206214285Y-73153571D01*
X206166666Y-73082142D01*
X206142857Y-72939285D01*
X206142857Y-72689285D01*
X206166666Y-72546428D01*
X206214285Y-72475000D01*
X206261904Y-72439285D01*
X206928571Y-73189285D02*
X206690476Y-73189285D01*
X206690476Y-72439285D01*
X207047619Y-72439285D02*
X207357142Y-72439285D01*
X207190476Y-72725000D01*
X207261904Y-72725000D01*
X207309523Y-72760714D01*
X207333333Y-72796428D01*
X207357142Y-72867857D01*
X207357142Y-73046428D01*
X207333333Y-73117857D01*
X207309523Y-73153571D01*
X207261904Y-73189285D01*
X207119047Y-73189285D01*
X207071428Y-73153571D01*
X207047619Y-73117857D01*
X221580047Y-62330500D02*
X221532428Y-62294785D01*
X221461000Y-62294785D01*
X221389571Y-62330500D01*
X221341952Y-62401928D01*
X221318142Y-62473357D01*
X221294333Y-62616214D01*
X221294333Y-62723357D01*
X221318142Y-62866214D01*
X221341952Y-62937642D01*
X221389571Y-63009071D01*
X221461000Y-63044785D01*
X221508619Y-63044785D01*
X221580047Y-63009071D01*
X221603857Y-62973357D01*
X221603857Y-62723357D01*
X221508619Y-62723357D01*
X221818142Y-63044785D02*
X221818142Y-62294785D01*
X222103857Y-63044785D01*
X222103857Y-62294785D01*
X222341952Y-63044785D02*
X222341952Y-62294785D01*
X222461000Y-62294785D01*
X222532428Y-62330500D01*
X222580047Y-62401928D01*
X222603857Y-62473357D01*
X222627666Y-62616214D01*
X222627666Y-62723357D01*
X222603857Y-62866214D01*
X222580047Y-62937642D01*
X222532428Y-63009071D01*
X222461000Y-63044785D01*
X222341952Y-63044785D01*
X206117833Y-62231285D02*
X206284500Y-62981285D01*
X206451166Y-62231285D01*
X206903547Y-62909857D02*
X206879738Y-62945571D01*
X206808309Y-62981285D01*
X206760690Y-62981285D01*
X206689261Y-62945571D01*
X206641642Y-62874142D01*
X206617833Y-62802714D01*
X206594023Y-62659857D01*
X206594023Y-62552714D01*
X206617833Y-62409857D01*
X206641642Y-62338428D01*
X206689261Y-62267000D01*
X206760690Y-62231285D01*
X206808309Y-62231285D01*
X206879738Y-62267000D01*
X206903547Y-62302714D01*
X207403547Y-62909857D02*
X207379738Y-62945571D01*
X207308309Y-62981285D01*
X207260690Y-62981285D01*
X207189261Y-62945571D01*
X207141642Y-62874142D01*
X207117833Y-62802714D01*
X207094023Y-62659857D01*
X207094023Y-62552714D01*
X207117833Y-62409857D01*
X207141642Y-62338428D01*
X207189261Y-62267000D01*
X207260690Y-62231285D01*
X207308309Y-62231285D01*
X207379738Y-62267000D01*
X207403547Y-62302714D01*
X221643547Y-59790500D02*
X221595928Y-59754785D01*
X221524500Y-59754785D01*
X221453071Y-59790500D01*
X221405452Y-59861928D01*
X221381642Y-59933357D01*
X221357833Y-60076214D01*
X221357833Y-60183357D01*
X221381642Y-60326214D01*
X221405452Y-60397642D01*
X221453071Y-60469071D01*
X221524500Y-60504785D01*
X221572119Y-60504785D01*
X221643547Y-60469071D01*
X221667357Y-60433357D01*
X221667357Y-60183357D01*
X221572119Y-60183357D01*
X221881642Y-60504785D02*
X221881642Y-59754785D01*
X222167357Y-60504785D01*
X222167357Y-59754785D01*
X222405452Y-60504785D02*
X222405452Y-59754785D01*
X222524500Y-59754785D01*
X222595928Y-59790500D01*
X222643547Y-59861928D01*
X222667357Y-59933357D01*
X222691166Y-60076214D01*
X222691166Y-60183357D01*
X222667357Y-60326214D01*
X222643547Y-60397642D01*
X222595928Y-60469071D01*
X222524500Y-60504785D01*
X222405452Y-60504785D01*
X206510690Y-60504785D02*
X206344023Y-60147642D01*
X206224976Y-60504785D02*
X206224976Y-59754785D01*
X206415452Y-59754785D01*
X206463071Y-59790500D01*
X206486880Y-59826214D01*
X206510690Y-59897642D01*
X206510690Y-60004785D01*
X206486880Y-60076214D01*
X206463071Y-60111928D01*
X206415452Y-60147642D01*
X206224976Y-60147642D01*
X206701166Y-60469071D02*
X206772595Y-60504785D01*
X206891642Y-60504785D01*
X206939261Y-60469071D01*
X206963071Y-60433357D01*
X206986880Y-60361928D01*
X206986880Y-60290500D01*
X206963071Y-60219071D01*
X206939261Y-60183357D01*
X206891642Y-60147642D01*
X206796404Y-60111928D01*
X206748785Y-60076214D01*
X206724976Y-60040500D01*
X206701166Y-59969071D01*
X206701166Y-59897642D01*
X206724976Y-59826214D01*
X206748785Y-59790500D01*
X206796404Y-59754785D01*
X206915452Y-59754785D01*
X206986880Y-59790500D01*
X207129738Y-59754785D02*
X207415452Y-59754785D01*
X207272595Y-60504785D02*
X207272595Y-59754785D01*
X221100000Y-57889285D02*
X221100000Y-57139285D01*
X221219047Y-57139285D01*
X221290476Y-57175000D01*
X221338095Y-57246428D01*
X221361904Y-57317857D01*
X221385714Y-57460714D01*
X221385714Y-57567857D01*
X221361904Y-57710714D01*
X221338095Y-57782142D01*
X221290476Y-57853571D01*
X221219047Y-57889285D01*
X221100000Y-57889285D01*
X221576190Y-57675000D02*
X221814285Y-57675000D01*
X221528571Y-57889285D02*
X221695238Y-57139285D01*
X221861904Y-57889285D01*
X221957142Y-57139285D02*
X222242857Y-57139285D01*
X222100000Y-57889285D02*
X222100000Y-57139285D01*
X222385714Y-57675000D02*
X222623809Y-57675000D01*
X222338095Y-57889285D02*
X222504761Y-57139285D01*
X222671428Y-57889285D01*
X206403547Y-57187000D02*
X206355928Y-57151285D01*
X206284500Y-57151285D01*
X206213071Y-57187000D01*
X206165452Y-57258428D01*
X206141642Y-57329857D01*
X206117833Y-57472714D01*
X206117833Y-57579857D01*
X206141642Y-57722714D01*
X206165452Y-57794142D01*
X206213071Y-57865571D01*
X206284500Y-57901285D01*
X206332119Y-57901285D01*
X206403547Y-57865571D01*
X206427357Y-57829857D01*
X206427357Y-57579857D01*
X206332119Y-57579857D01*
X206641642Y-57901285D02*
X206641642Y-57151285D01*
X206927357Y-57901285D01*
X206927357Y-57151285D01*
X207165452Y-57901285D02*
X207165452Y-57151285D01*
X207284500Y-57151285D01*
X207355928Y-57187000D01*
X207403547Y-57258428D01*
X207427357Y-57329857D01*
X207451166Y-57472714D01*
X207451166Y-57579857D01*
X207427357Y-57722714D01*
X207403547Y-57794142D01*
X207355928Y-57865571D01*
X207284500Y-57901285D01*
X207165452Y-57901285D01*
X221678571Y-55361285D02*
X221440476Y-55361285D01*
X221440476Y-54611285D01*
X221845238Y-54968428D02*
X222011904Y-54968428D01*
X222083333Y-55361285D02*
X221845238Y-55361285D01*
X221845238Y-54611285D01*
X222083333Y-54611285D01*
X222297619Y-55361285D02*
X222297619Y-54611285D01*
X222416666Y-54611285D01*
X222488095Y-54647000D01*
X222535714Y-54718428D01*
X222559523Y-54789857D01*
X222583333Y-54932714D01*
X222583333Y-55039857D01*
X222559523Y-55182714D01*
X222535714Y-55254142D01*
X222488095Y-55325571D01*
X222416666Y-55361285D01*
X222297619Y-55361285D01*
X206439261Y-55361285D02*
X206272595Y-55004142D01*
X206153547Y-55361285D02*
X206153547Y-54611285D01*
X206344023Y-54611285D01*
X206391642Y-54647000D01*
X206415452Y-54682714D01*
X206439261Y-54754142D01*
X206439261Y-54861285D01*
X206415452Y-54932714D01*
X206391642Y-54968428D01*
X206344023Y-55004142D01*
X206153547Y-55004142D01*
X206629738Y-55147000D02*
X206867833Y-55147000D01*
X206582119Y-55361285D02*
X206748785Y-54611285D01*
X206915452Y-55361285D01*
X207034500Y-54611285D02*
X207153547Y-55361285D01*
X207248785Y-54825571D01*
X207344023Y-55361285D01*
X207463071Y-54611285D01*
D10*
M02*
