M48
; DRILL file {KiCad (5.1.0)-1} date 2020/01/03 20:23:23
; FORMAT={-:-/ absolute / metric / decimal}
; #@! TF.CreationDate,2020-01-03T20:23:23+09:00
; #@! TF.GenerationSoftware,Kicad,Pcbnew,(5.1.0)-1
; #@! TF.FileFunction,Plated,1,2,PTH
FMAT,2
METRIC
T1C0.400
T2C0.813
T3C1.000
T4C1.200
T5C1.300
T6C1.500
%
G90
G05
T1
X166.275Y-77.725
X166.275Y-96.725
X168.0Y-63.0
X169.025Y-101.975
X169.25Y-84.75
X173.0Y-94.0
X174.5Y-123.5
X186.154Y-86.154
X186.5Y-67.5
X187.275Y-62.725
X187.275Y-81.225
X189.0Y-100.0
X194.05Y-126.95
X208.8Y-107.7
X213.337Y-127.337
X214.4Y-95.0
X215.0Y-75.4
X225.175Y-89.675
X225.5Y-93.0
X227.5Y-83.5
X227.5Y-87.5
X228.346Y-108.654
X228.775Y-103.725
X232.0Y-96.5
X232.5Y-125.5
X233.5Y-117.5
X241.225Y-116.275
X242.125Y-111.625
X242.975Y-108.475
X243.5Y-89.0
X244.275Y-84.725
X244.5Y-77.0
X244.725Y-103.725
T2
X208.936Y-55.022
X208.936Y-57.562
X208.936Y-60.102
X208.936Y-62.642
X208.936Y-65.182
X208.936Y-67.722
X208.936Y-70.262
X208.936Y-72.802
X208.936Y-75.342
X208.936Y-77.882
X208.936Y-80.422
X208.936Y-82.962
X224.156Y-55.022
X224.156Y-57.562
X224.156Y-60.102
X224.156Y-62.642
X224.156Y-65.182
X224.156Y-67.722
X224.156Y-70.262
X224.156Y-72.802
X224.156Y-75.342
X224.156Y-77.882
X224.156Y-80.422
X224.156Y-82.962
X189.844Y-55.022
X189.844Y-57.562
X189.844Y-60.102
X189.844Y-62.642
X189.844Y-65.182
X189.844Y-67.722
X189.844Y-70.262
X189.844Y-72.802
X189.844Y-75.342
X189.844Y-77.882
X189.844Y-80.422
X189.844Y-82.962
X205.064Y-55.022
X205.064Y-57.562
X205.064Y-60.102
X205.064Y-62.642
X205.064Y-65.182
X205.064Y-67.722
X205.064Y-70.262
X205.064Y-72.802
X205.064Y-75.342
X205.064Y-77.882
X205.064Y-80.422
X205.064Y-82.962
T4
X159.5Y-123.4
X197.5Y-103.4
X235.5Y-73.4
X159.5Y-85.4
X235.5Y-92.4
X240.5Y-130.4
X216.5Y-72.4
X183.5Y-130.4
X202.5Y-130.4
X216.5Y-110.4
X159.5Y-104.4
X216.5Y-91.4
X159.5Y-66.4
X235.5Y-111.4
X178.5Y-70.4
X197.5Y-84.4
X221.5Y-130.4
X197.5Y-65.4
X178.5Y-89.4
X178.5Y-108.4
T5
X179.25Y-53.0
X185.75Y-53.0
X248.0Y-89.75
X248.0Y-96.25
X248.0Y-99.25
X248.0Y-105.75
X248.0Y-79.75
X248.0Y-86.25
X248.0Y-69.75
X248.0Y-76.25
T6
X193.69Y-62.04
X194.96Y-64.58
X200.04Y-64.58
X174.69Y-86.04
X175.96Y-88.58
X181.04Y-88.58
X174.69Y-105.04
X175.96Y-107.58
X181.04Y-107.58
X155.69Y-120.04
X156.96Y-122.58
X162.04Y-122.58
X193.69Y-100.04
X194.96Y-102.58
X200.04Y-102.58
X231.69Y-70.04
X232.96Y-72.58
X238.04Y-72.58
X155.69Y-82.04
X156.96Y-84.58
X162.04Y-84.58
X231.69Y-89.04
X232.96Y-91.58
X238.04Y-91.58
X236.69Y-127.04
X237.96Y-129.58
X243.04Y-129.58
X212.69Y-69.04
X213.96Y-71.58
X219.04Y-71.58
X179.69Y-127.04
X180.96Y-129.58
X186.04Y-129.58
X198.69Y-127.04
X199.96Y-129.58
X205.04Y-129.58
X212.69Y-107.04
X213.96Y-109.58
X219.04Y-109.58
X155.69Y-101.04
X156.96Y-103.58
X162.04Y-103.58
X212.69Y-88.04
X213.96Y-90.58
X219.04Y-90.58
X155.69Y-63.04
X156.96Y-65.58
X162.04Y-65.58
X231.69Y-108.04
X232.96Y-110.58
X238.04Y-110.58
X174.69Y-67.04
X175.96Y-69.58
X181.04Y-69.58
X193.69Y-81.04
X194.96Y-83.58
X200.04Y-83.58
X217.69Y-127.04
X218.96Y-129.58
X224.04Y-129.58
T3
G00X237.45Y-53.9
M15
G01X236.95Y-53.9
M16
G05
G00X237.45Y-56.35
M15
G01X236.95Y-56.35
M16
G05
G00X238.95Y-52.15
M15
G01X238.45Y-52.15
M16
G05
G00X238.95Y-58.1
M15
G01X238.45Y-58.1
M16
G05
G00X242.95Y-52.15
M15
G01X242.45Y-52.15
M16
G05
G00X242.95Y-58.1
M15
G01X242.45Y-58.1
M16
G05
G00X245.95Y-52.15
M15
G01X245.45Y-52.15
M16
G05
G00X245.95Y-58.1
M15
G01X245.45Y-58.1
M16
G05
T4
G00X154.4Y-121.4
M15
G01X154.4Y-121.4
M16
G05
G00X164.6Y-121.4
M15
G01X164.6Y-121.4
M16
G05
G00X192.4Y-101.4
M15
G01X192.4Y-101.4
M16
G05
G00X202.6Y-101.4
M15
G01X202.6Y-101.4
M16
G05
G00X230.4Y-71.4
M15
G01X230.4Y-71.4
M16
G05
G00X240.6Y-71.4
M15
G01X240.6Y-71.4
M16
G05
G00X154.4Y-83.4
M15
G01X154.4Y-83.4
M16
G05
G00X164.6Y-83.4
M15
G01X164.6Y-83.4
M16
G05
G00X230.4Y-90.4
M15
G01X230.4Y-90.4
M16
G05
G00X240.6Y-90.4
M15
G01X240.6Y-90.4
M16
G05
G00X235.4Y-128.4
M15
G01X235.4Y-128.4
M16
G05
G00X245.6Y-128.4
M15
G01X245.6Y-128.4
M16
G05
G00X211.4Y-70.4
M15
G01X211.4Y-70.4
M16
G05
G00X221.6Y-70.4
M15
G01X221.6Y-70.4
M16
G05
G00X178.4Y-128.4
M15
G01X178.4Y-128.4
M16
G05
G00X188.6Y-128.4
M15
G01X188.6Y-128.4
M16
G05
G00X197.4Y-128.4
M15
G01X197.4Y-128.4
M16
G05
G00X207.6Y-128.4
M15
G01X207.6Y-128.4
M16
G05
G00X211.4Y-108.4
M15
G01X211.4Y-108.4
M16
G05
G00X221.6Y-108.4
M15
G01X221.6Y-108.4
M16
G05
G00X154.4Y-102.4
M15
G01X154.4Y-102.4
M16
G05
G00X164.6Y-102.4
M15
G01X164.6Y-102.4
M16
G05
G00X211.4Y-89.4
M15
G01X211.4Y-89.4
M16
G05
G00X221.6Y-89.4
M15
G01X221.6Y-89.4
M16
G05
G00X154.4Y-64.4
M15
G01X154.4Y-64.4
M16
G05
G00X164.6Y-64.4
M15
G01X164.6Y-64.4
M16
G05
G00X230.4Y-109.4
M15
G01X230.4Y-109.4
M16
G05
G00X240.6Y-109.4
M15
G01X240.6Y-109.4
M16
G05
G00X173.4Y-68.4
M15
G01X173.4Y-68.4
M16
G05
G00X183.6Y-68.4
M15
G01X183.6Y-68.4
M16
G05
G00X192.4Y-82.4
M15
G01X192.4Y-82.4
M16
G05
G00X202.6Y-82.4
M15
G01X202.6Y-82.4
M16
G05
G00X216.4Y-128.4
M15
G01X216.4Y-128.4
M16
G05
G00X226.6Y-128.4
M15
G01X226.6Y-128.4
M16
G05
G00X192.4Y-63.4
M15
G01X192.4Y-63.4
M16
G05
G00X202.6Y-63.4
M15
G01X202.6Y-63.4
M16
G05
G00X173.4Y-87.4
M15
G01X173.4Y-87.4
M16
G05
G00X183.6Y-87.4
M15
G01X183.6Y-87.4
M16
G05
G00X173.4Y-106.4
M15
G01X173.4Y-106.4
M16
G05
G00X183.6Y-106.4
M15
G01X183.6Y-106.4
M16
G05
T6
G00X201.31Y-62.04
M15
G01X201.31Y-62.04
M16
G05
G00X182.31Y-86.04
M15
G01X182.31Y-86.04
M16
G05
G00X182.31Y-105.04
M15
G01X182.31Y-105.04
M16
G05
G00X163.31Y-120.04
M15
G01X163.31Y-120.04
M16
G05
G00X201.31Y-100.04
M15
G01X201.31Y-100.04
M16
G05
G00X239.31Y-70.04
M15
G01X239.31Y-70.04
M16
G05
G00X163.31Y-82.04
M15
G01X163.31Y-82.04
M16
G05
G00X239.31Y-89.04
M15
G01X239.31Y-89.04
M16
G05
G00X244.31Y-127.04
M15
G01X244.31Y-127.04
M16
G05
G00X220.31Y-69.04
M15
G01X220.31Y-69.04
M16
G05
G00X187.31Y-127.04
M15
G01X187.31Y-127.04
M16
G05
G00X206.31Y-127.04
M15
G01X206.31Y-127.04
M16
G05
G00X220.31Y-107.04
M15
G01X220.31Y-107.04
M16
G05
G00X163.31Y-101.04
M15
G01X163.31Y-101.04
M16
G05
G00X220.31Y-88.04
M15
G01X220.31Y-88.04
M16
G05
G00X163.31Y-63.04
M15
G01X163.31Y-63.04
M16
G05
G00X239.31Y-108.04
M15
G01X239.31Y-108.04
M16
G05
G00X182.31Y-67.04
M15
G01X182.31Y-67.04
M16
G05
G00X201.31Y-81.04
M15
G01X201.31Y-81.04
M16
G05
G00X225.31Y-127.04
M15
G01X225.31Y-127.04
M16
G05
T0
M30
