G04 #@! TF.GenerationSoftware,KiCad,Pcbnew,(5.1.0)-1*
G04 #@! TF.CreationDate,2020-01-03T20:23:20+09:00*
G04 #@! TF.ProjectId,100cm^2,31303063-6d5e-4322-9e6b-696361645f70,rev?*
G04 #@! TF.SameCoordinates,Original*
G04 #@! TF.FileFunction,Soldermask,Top*
G04 #@! TF.FilePolarity,Negative*
%FSLAX46Y46*%
G04 Gerber Fmt 4.6, Leading zero omitted, Abs format (unit mm)*
G04 Created by KiCad (PCBNEW (5.1.0)-1) date 2020-01-03 20:23:20*
%MOMM*%
%LPD*%
G04 APERTURE LIST*
%ADD10C,0.150000*%
%ADD11C,4.700400*%
%ADD12R,0.950000X1.300000*%
%ADD13C,1.200000*%
%ADD14O,2.500000X1.700000*%
%ADD15C,2.000000*%
%ADD16C,1.524000*%
%ADD17C,1.000000*%
%ADD18O,1.500000X2.500000*%
%ADD19C,1.200000*%
%ADD20C,1.900000*%
%ADD21C,1.500000*%
%ADD22C,1.500000*%
%ADD23C,4.000000*%
%ADD24C,1.700000*%
%ADD25C,2.700000*%
G04 APERTURE END LIST*
D10*
X151857142Y-129127380D02*
X151761904Y-129079761D01*
X151714285Y-128984523D01*
X151714285Y-128127380D01*
X152666666Y-128460714D02*
X152666666Y-129127380D01*
X152238095Y-128460714D02*
X152238095Y-128984523D01*
X152285714Y-129079761D01*
X152380952Y-129127380D01*
X152523809Y-129127380D01*
X152619047Y-129079761D01*
X152666666Y-129032142D01*
X153142857Y-128460714D02*
X153142857Y-129127380D01*
X153142857Y-128555952D02*
X153190476Y-128508333D01*
X153285714Y-128460714D01*
X153428571Y-128460714D01*
X153523809Y-128508333D01*
X153571428Y-128603571D01*
X153571428Y-129127380D01*
X154476190Y-129079761D02*
X154380952Y-129127380D01*
X154190476Y-129127380D01*
X154095238Y-129079761D01*
X154047619Y-129032142D01*
X154000000Y-128936904D01*
X154000000Y-128651190D01*
X154047619Y-128555952D01*
X154095238Y-128508333D01*
X154190476Y-128460714D01*
X154380952Y-128460714D01*
X154476190Y-128508333D01*
X154904761Y-129127380D02*
X154904761Y-128127380D01*
X155333333Y-129127380D02*
X155333333Y-128603571D01*
X155285714Y-128508333D01*
X155190476Y-128460714D01*
X155047619Y-128460714D01*
X154952380Y-128508333D01*
X154904761Y-128555952D01*
X155809523Y-129127380D02*
X155809523Y-128127380D01*
X155809523Y-128508333D02*
X155904761Y-128460714D01*
X156095238Y-128460714D01*
X156190476Y-128508333D01*
X156238095Y-128555952D01*
X156285714Y-128651190D01*
X156285714Y-128936904D01*
X156238095Y-129032142D01*
X156190476Y-129079761D01*
X156095238Y-129127380D01*
X155904761Y-129127380D01*
X155809523Y-129079761D01*
X156857142Y-129127380D02*
X156761904Y-129079761D01*
X156714285Y-129032142D01*
X156666666Y-128936904D01*
X156666666Y-128651190D01*
X156714285Y-128555952D01*
X156761904Y-128508333D01*
X156857142Y-128460714D01*
X157000000Y-128460714D01*
X157095238Y-128508333D01*
X157142857Y-128555952D01*
X157190476Y-128651190D01*
X157190476Y-128936904D01*
X157142857Y-129032142D01*
X157095238Y-129079761D01*
X157000000Y-129127380D01*
X156857142Y-129127380D01*
X157523809Y-129127380D02*
X158047619Y-128460714D01*
X157523809Y-128460714D02*
X158047619Y-129127380D01*
X159190476Y-129127380D02*
X159190476Y-128460714D01*
X159190476Y-128555952D02*
X159238095Y-128508333D01*
X159333333Y-128460714D01*
X159476190Y-128460714D01*
X159571428Y-128508333D01*
X159619047Y-128603571D01*
X159619047Y-129127380D01*
X159619047Y-128603571D02*
X159666666Y-128508333D01*
X159761904Y-128460714D01*
X159904761Y-128460714D01*
X160000000Y-128508333D01*
X160047619Y-128603571D01*
X160047619Y-129127380D01*
X160523809Y-129127380D02*
X160523809Y-128460714D01*
X160523809Y-128127380D02*
X160476190Y-128175000D01*
X160523809Y-128222619D01*
X160571428Y-128175000D01*
X160523809Y-128127380D01*
X160523809Y-128222619D01*
X161000000Y-128460714D02*
X161000000Y-129127380D01*
X161000000Y-128555952D02*
X161047619Y-128508333D01*
X161142857Y-128460714D01*
X161285714Y-128460714D01*
X161380952Y-128508333D01*
X161428571Y-128603571D01*
X161428571Y-129127380D01*
X161904761Y-129127380D02*
X161904761Y-128460714D01*
X161904761Y-128127380D02*
X161857142Y-128175000D01*
X161904761Y-128222619D01*
X161952380Y-128175000D01*
X161904761Y-128127380D01*
X161904761Y-128222619D01*
X163047619Y-128460714D02*
X163285714Y-129127380D01*
X163523809Y-128460714D01*
X164285714Y-129079761D02*
X164190476Y-129127380D01*
X164000000Y-129127380D01*
X163904761Y-129079761D01*
X163857142Y-128984523D01*
X163857142Y-128603571D01*
X163904761Y-128508333D01*
X164000000Y-128460714D01*
X164190476Y-128460714D01*
X164285714Y-128508333D01*
X164333333Y-128603571D01*
X164333333Y-128698809D01*
X163857142Y-128794047D01*
X164761904Y-129127380D02*
X164761904Y-128460714D01*
X164761904Y-128651190D02*
X164809523Y-128555952D01*
X164857142Y-128508333D01*
X164952380Y-128460714D01*
X165047619Y-128460714D01*
X165904761Y-129127380D02*
X165333333Y-129127380D01*
X165619047Y-129127380D02*
X165619047Y-128127380D01*
X165523809Y-128270238D01*
X165428571Y-128365476D01*
X165333333Y-128413095D01*
X166333333Y-129032142D02*
X166380952Y-129079761D01*
X166333333Y-129127380D01*
X166285714Y-129079761D01*
X166333333Y-129032142D01*
X166333333Y-129127380D01*
X167000000Y-128127380D02*
X167095238Y-128127380D01*
X167190476Y-128175000D01*
X167238095Y-128222619D01*
X167285714Y-128317857D01*
X167333333Y-128508333D01*
X167333333Y-128746428D01*
X167285714Y-128936904D01*
X167238095Y-129032142D01*
X167190476Y-129079761D01*
X167095238Y-129127380D01*
X167000000Y-129127380D01*
X166904761Y-129079761D01*
X166857142Y-129032142D01*
X166809523Y-128936904D01*
X166761904Y-128746428D01*
X166761904Y-128508333D01*
X166809523Y-128317857D01*
X166857142Y-128222619D01*
X166904761Y-128175000D01*
X167000000Y-128127380D01*
X151595238Y-130777380D02*
X151595238Y-129777380D01*
X151976190Y-129777380D01*
X152071428Y-129825000D01*
X152119047Y-129872619D01*
X152166666Y-129967857D01*
X152166666Y-130110714D01*
X152119047Y-130205952D01*
X152071428Y-130253571D01*
X151976190Y-130301190D01*
X151595238Y-130301190D01*
X153166666Y-130682142D02*
X153119047Y-130729761D01*
X152976190Y-130777380D01*
X152880952Y-130777380D01*
X152738095Y-130729761D01*
X152642857Y-130634523D01*
X152595238Y-130539285D01*
X152547619Y-130348809D01*
X152547619Y-130205952D01*
X152595238Y-130015476D01*
X152642857Y-129920238D01*
X152738095Y-129825000D01*
X152880952Y-129777380D01*
X152976190Y-129777380D01*
X153119047Y-129825000D01*
X153166666Y-129872619D01*
X153928571Y-130253571D02*
X154071428Y-130301190D01*
X154119047Y-130348809D01*
X154166666Y-130444047D01*
X154166666Y-130586904D01*
X154119047Y-130682142D01*
X154071428Y-130729761D01*
X153976190Y-130777380D01*
X153595238Y-130777380D01*
X153595238Y-129777380D01*
X153928571Y-129777380D01*
X154023809Y-129825000D01*
X154071428Y-129872619D01*
X154119047Y-129967857D01*
X154119047Y-130063095D01*
X154071428Y-130158333D01*
X154023809Y-130205952D01*
X153928571Y-130253571D01*
X153595238Y-130253571D01*
X155357142Y-130777380D02*
X155357142Y-129777380D01*
X155595238Y-129777380D01*
X155738095Y-129825000D01*
X155833333Y-129920238D01*
X155880952Y-130015476D01*
X155928571Y-130205952D01*
X155928571Y-130348809D01*
X155880952Y-130539285D01*
X155833333Y-130634523D01*
X155738095Y-130729761D01*
X155595238Y-130777380D01*
X155357142Y-130777380D01*
X156738095Y-130729761D02*
X156642857Y-130777380D01*
X156452380Y-130777380D01*
X156357142Y-130729761D01*
X156309523Y-130634523D01*
X156309523Y-130253571D01*
X156357142Y-130158333D01*
X156452380Y-130110714D01*
X156642857Y-130110714D01*
X156738095Y-130158333D01*
X156785714Y-130253571D01*
X156785714Y-130348809D01*
X156309523Y-130444047D01*
X157166666Y-130729761D02*
X157261904Y-130777380D01*
X157452380Y-130777380D01*
X157547619Y-130729761D01*
X157595238Y-130634523D01*
X157595238Y-130586904D01*
X157547619Y-130491666D01*
X157452380Y-130444047D01*
X157309523Y-130444047D01*
X157214285Y-130396428D01*
X157166666Y-130301190D01*
X157166666Y-130253571D01*
X157214285Y-130158333D01*
X157309523Y-130110714D01*
X157452380Y-130110714D01*
X157547619Y-130158333D01*
X158023809Y-130777380D02*
X158023809Y-130110714D01*
X158023809Y-129777380D02*
X157976190Y-129825000D01*
X158023809Y-129872619D01*
X158071428Y-129825000D01*
X158023809Y-129777380D01*
X158023809Y-129872619D01*
X158500000Y-130110714D02*
X158500000Y-130777380D01*
X158500000Y-130205952D02*
X158547619Y-130158333D01*
X158642857Y-130110714D01*
X158785714Y-130110714D01*
X158880952Y-130158333D01*
X158928571Y-130253571D01*
X158928571Y-130777380D01*
X159833333Y-130110714D02*
X159833333Y-130920238D01*
X159785714Y-131015476D01*
X159738095Y-131063095D01*
X159642857Y-131110714D01*
X159500000Y-131110714D01*
X159404761Y-131063095D01*
X159833333Y-130729761D02*
X159738095Y-130777380D01*
X159547619Y-130777380D01*
X159452380Y-130729761D01*
X159404761Y-130682142D01*
X159357142Y-130586904D01*
X159357142Y-130301190D01*
X159404761Y-130205952D01*
X159452380Y-130158333D01*
X159547619Y-130110714D01*
X159738095Y-130110714D01*
X159833333Y-130158333D01*
X160690476Y-130729761D02*
X160595238Y-130777380D01*
X160404761Y-130777380D01*
X160309523Y-130729761D01*
X160261904Y-130634523D01*
X160261904Y-130253571D01*
X160309523Y-130158333D01*
X160404761Y-130110714D01*
X160595238Y-130110714D01*
X160690476Y-130158333D01*
X160738095Y-130253571D01*
X160738095Y-130348809D01*
X160261904Y-130444047D01*
X161595238Y-130777380D02*
X161595238Y-129777380D01*
X161595238Y-130729761D02*
X161500000Y-130777380D01*
X161309523Y-130777380D01*
X161214285Y-130729761D01*
X161166666Y-130682142D01*
X161119047Y-130586904D01*
X161119047Y-130301190D01*
X161166666Y-130205952D01*
X161214285Y-130158333D01*
X161309523Y-130110714D01*
X161500000Y-130110714D01*
X161595238Y-130158333D01*
X162833333Y-130777380D02*
X162833333Y-129777380D01*
X162833333Y-130158333D02*
X162928571Y-130110714D01*
X163119047Y-130110714D01*
X163214285Y-130158333D01*
X163261904Y-130205952D01*
X163309523Y-130301190D01*
X163309523Y-130586904D01*
X163261904Y-130682142D01*
X163214285Y-130729761D01*
X163119047Y-130777380D01*
X162928571Y-130777380D01*
X162833333Y-130729761D01*
X163642857Y-130110714D02*
X163880952Y-130777380D01*
X164119047Y-130110714D02*
X163880952Y-130777380D01*
X163785714Y-131015476D01*
X163738095Y-131063095D01*
X163642857Y-131110714D01*
X165404761Y-130777380D02*
X165309523Y-130729761D01*
X165261904Y-130634523D01*
X165261904Y-129777380D01*
X165785714Y-130777380D02*
X165785714Y-130110714D01*
X165785714Y-129777380D02*
X165738095Y-129825000D01*
X165785714Y-129872619D01*
X165833333Y-129825000D01*
X165785714Y-129777380D01*
X165785714Y-129872619D01*
X166166666Y-130777380D02*
X166690476Y-130110714D01*
X166166666Y-130110714D02*
X166690476Y-130777380D01*
X167023809Y-130729761D02*
X167119047Y-130777380D01*
X167309523Y-130777380D01*
X167404761Y-130729761D01*
X167452380Y-130634523D01*
X167452380Y-130586904D01*
X167404761Y-130491666D01*
X167309523Y-130444047D01*
X167166666Y-130444047D01*
X167071428Y-130396428D01*
X167023809Y-130301190D01*
X167023809Y-130253571D01*
X167071428Y-130158333D01*
X167166666Y-130110714D01*
X167309523Y-130110714D01*
X167404761Y-130158333D01*
D11*
X171000000Y-54000000D03*
X171000000Y-130000000D03*
X246000000Y-113000000D03*
X246000000Y-63000000D03*
D12*
X168000000Y-61775000D03*
X168000000Y-58225000D03*
X167500000Y-77725000D03*
X167500000Y-81275000D03*
X167500000Y-100275000D03*
X167500000Y-96725000D03*
X167500000Y-119275000D03*
X167500000Y-115725000D03*
X170500000Y-62725000D03*
X170500000Y-66275000D03*
X170500000Y-81725000D03*
X170500000Y-85275000D03*
X170500000Y-100225000D03*
X170500000Y-103775000D03*
X176000000Y-123500000D03*
X176000000Y-119950000D03*
X186500000Y-62725000D03*
X186500000Y-66275000D03*
X186500000Y-84775000D03*
X186500000Y-81225000D03*
X189000000Y-99275000D03*
X189000000Y-95725000D03*
X194000000Y-126000000D03*
X194000000Y-122450000D03*
X227500000Y-69775000D03*
X227500000Y-66225000D03*
X225500000Y-88450000D03*
X225500000Y-92000000D03*
X208500000Y-102950000D03*
X208500000Y-106500000D03*
X213500000Y-122725000D03*
X213500000Y-126275000D03*
X227500000Y-76275000D03*
X227500000Y-72725000D03*
X227500000Y-84725000D03*
X227500000Y-88275000D03*
X228000000Y-107275000D03*
X228000000Y-103725000D03*
X232500000Y-122725000D03*
X232500000Y-126275000D03*
X243500000Y-69225000D03*
X243500000Y-72775000D03*
X243500000Y-88275000D03*
X243500000Y-84725000D03*
X244000000Y-103725000D03*
X244000000Y-107275000D03*
X241500000Y-116275000D03*
X241500000Y-112725000D03*
D13*
X240500000Y-54250000D03*
X247500000Y-54250000D03*
D14*
X238700000Y-52150000D03*
X237200000Y-56350000D03*
X245700000Y-52150000D03*
X242700000Y-52150000D03*
D13*
X247500000Y-56000000D03*
X240500000Y-56000000D03*
D14*
X245700000Y-58100000D03*
X242700000Y-58100000D03*
X238700000Y-58100000D03*
X237200000Y-53900000D03*
D15*
X185750000Y-53000000D03*
X179250000Y-53000000D03*
X248000000Y-76250000D03*
X248000000Y-69750000D03*
X248000000Y-79750000D03*
X248000000Y-86250000D03*
X248000000Y-96250000D03*
X248000000Y-89750000D03*
X248000000Y-99250000D03*
X248000000Y-105750000D03*
D16*
X208936400Y-55022000D03*
X208936400Y-57562000D03*
X208936400Y-60102000D03*
X208936400Y-62642000D03*
X208936400Y-65182000D03*
X208936400Y-67722000D03*
X208936400Y-70262000D03*
X208936400Y-72802000D03*
X208936400Y-75342000D03*
X208936400Y-77882000D03*
X208936400Y-80422000D03*
X208936400Y-82962000D03*
X224156400Y-82962000D03*
X224156400Y-80422000D03*
X224156400Y-77882000D03*
X224156400Y-75342000D03*
X224156400Y-72802000D03*
X224156400Y-70262000D03*
X224156400Y-67722000D03*
X224156400Y-65182000D03*
X224156400Y-62642000D03*
X224156400Y-60102000D03*
X224156400Y-57562000D03*
X224156400Y-55022000D03*
X205063600Y-55022000D03*
X205063600Y-57562000D03*
X205063600Y-60102000D03*
X205063600Y-62642000D03*
X205063600Y-65182000D03*
X205063600Y-67722000D03*
X205063600Y-70262000D03*
X205063600Y-72802000D03*
X205063600Y-75342000D03*
X205063600Y-77882000D03*
X205063600Y-80422000D03*
X205063600Y-82962000D03*
X189843600Y-82962000D03*
X189843600Y-80422000D03*
X189843600Y-77882000D03*
X189843600Y-75342000D03*
X189843600Y-72802000D03*
X189843600Y-70262000D03*
X189843600Y-67722000D03*
X189843600Y-65182000D03*
X189843600Y-62642000D03*
X189843600Y-60102000D03*
X189843600Y-57562000D03*
X189843600Y-55022000D03*
D17*
X154280000Y-56300000D03*
D18*
X159500000Y-66400000D03*
D13*
X154400000Y-64400000D03*
D19*
X154753553Y-64753553D02*
X154046447Y-64046447D01*
D13*
X164600000Y-64400000D03*
D19*
X164953553Y-64046447D02*
X164246447Y-64753553D01*
D20*
X154000000Y-60500000D03*
X165000000Y-60500000D03*
D21*
X163310000Y-63040000D03*
D22*
X163769619Y-62580381D02*
X162850381Y-63499619D01*
D23*
X159500000Y-60500000D03*
D24*
X164580000Y-60500000D03*
X154420000Y-60500000D03*
D21*
X155690000Y-63040000D03*
D22*
X156149619Y-63499619D02*
X155230381Y-62580381D01*
D25*
X162040000Y-65580000D03*
X156960000Y-65580000D03*
D17*
X164720000Y-56300000D03*
X154280000Y-75300000D03*
D18*
X159500000Y-85400000D03*
D13*
X154400000Y-83400000D03*
D19*
X154753553Y-83753553D02*
X154046447Y-83046447D01*
D13*
X164600000Y-83400000D03*
D19*
X164953553Y-83046447D02*
X164246447Y-83753553D01*
D20*
X154000000Y-79500000D03*
X165000000Y-79500000D03*
D21*
X163310000Y-82040000D03*
D22*
X163769619Y-81580381D02*
X162850381Y-82499619D01*
D23*
X159500000Y-79500000D03*
D24*
X164580000Y-79500000D03*
X154420000Y-79500000D03*
D21*
X155690000Y-82040000D03*
D22*
X156149619Y-82499619D02*
X155230381Y-81580381D01*
D25*
X162040000Y-84580000D03*
X156960000Y-84580000D03*
D17*
X164720000Y-75300000D03*
X164720000Y-94300000D03*
D25*
X156960000Y-103580000D03*
X162040000Y-103580000D03*
D21*
X155690000Y-101040000D03*
D22*
X156149619Y-101499619D02*
X155230381Y-100580381D01*
D24*
X154420000Y-98500000D03*
X164580000Y-98500000D03*
D23*
X159500000Y-98500000D03*
D21*
X163310000Y-101040000D03*
D22*
X163769619Y-100580381D02*
X162850381Y-101499619D01*
D20*
X165000000Y-98500000D03*
X154000000Y-98500000D03*
D13*
X164600000Y-102400000D03*
D19*
X164953553Y-102046447D02*
X164246447Y-102753553D01*
D13*
X154400000Y-102400000D03*
D19*
X154753553Y-102753553D02*
X154046447Y-102046447D01*
D18*
X159500000Y-104400000D03*
D17*
X154280000Y-94300000D03*
X154280000Y-113300000D03*
D18*
X159500000Y-123400000D03*
D13*
X154400000Y-121400000D03*
D19*
X154753553Y-121753553D02*
X154046447Y-121046447D01*
D13*
X164600000Y-121400000D03*
D19*
X164953553Y-121046447D02*
X164246447Y-121753553D01*
D20*
X154000000Y-117500000D03*
X165000000Y-117500000D03*
D21*
X163310000Y-120040000D03*
D22*
X163769619Y-119580381D02*
X162850381Y-120499619D01*
D23*
X159500000Y-117500000D03*
D24*
X164580000Y-117500000D03*
X154420000Y-117500000D03*
D21*
X155690000Y-120040000D03*
D22*
X156149619Y-120499619D02*
X155230381Y-119580381D01*
D25*
X162040000Y-122580000D03*
X156960000Y-122580000D03*
D17*
X164720000Y-113300000D03*
X183720000Y-60300000D03*
D25*
X175960000Y-69580000D03*
X181040000Y-69580000D03*
D21*
X174690000Y-67040000D03*
D22*
X175149619Y-67499619D02*
X174230381Y-66580381D01*
D24*
X173420000Y-64500000D03*
X183580000Y-64500000D03*
D23*
X178500000Y-64500000D03*
D21*
X182310000Y-67040000D03*
D22*
X182769619Y-66580381D02*
X181850381Y-67499619D01*
D20*
X184000000Y-64500000D03*
X173000000Y-64500000D03*
D13*
X183600000Y-68400000D03*
D19*
X183953553Y-68046447D02*
X183246447Y-68753553D01*
D13*
X173400000Y-68400000D03*
D19*
X173753553Y-68753553D02*
X173046447Y-68046447D01*
D18*
X178500000Y-70400000D03*
D17*
X173280000Y-60300000D03*
X183720000Y-79300000D03*
D25*
X175960000Y-88580000D03*
X181040000Y-88580000D03*
D21*
X174690000Y-86040000D03*
D22*
X175149619Y-86499619D02*
X174230381Y-85580381D01*
D24*
X173420000Y-83500000D03*
X183580000Y-83500000D03*
D23*
X178500000Y-83500000D03*
D21*
X182310000Y-86040000D03*
D22*
X182769619Y-85580381D02*
X181850381Y-86499619D01*
D20*
X184000000Y-83500000D03*
X173000000Y-83500000D03*
D13*
X183600000Y-87400000D03*
D19*
X183953553Y-87046447D02*
X183246447Y-87753553D01*
D13*
X173400000Y-87400000D03*
D19*
X173753553Y-87753553D02*
X173046447Y-87046447D01*
D18*
X178500000Y-89400000D03*
D17*
X173280000Y-79300000D03*
X173280000Y-98300000D03*
D18*
X178500000Y-108400000D03*
D13*
X173400000Y-106400000D03*
D19*
X173753553Y-106753553D02*
X173046447Y-106046447D01*
D13*
X183600000Y-106400000D03*
D19*
X183953553Y-106046447D02*
X183246447Y-106753553D01*
D20*
X173000000Y-102500000D03*
X184000000Y-102500000D03*
D21*
X182310000Y-105040000D03*
D22*
X182769619Y-104580381D02*
X181850381Y-105499619D01*
D23*
X178500000Y-102500000D03*
D24*
X183580000Y-102500000D03*
X173420000Y-102500000D03*
D21*
X174690000Y-105040000D03*
D22*
X175149619Y-105499619D02*
X174230381Y-104580381D01*
D25*
X181040000Y-107580000D03*
X175960000Y-107580000D03*
D17*
X183720000Y-98300000D03*
X188720000Y-120300000D03*
D25*
X180960000Y-129580000D03*
X186040000Y-129580000D03*
D21*
X179690000Y-127040000D03*
D22*
X180149619Y-127499619D02*
X179230381Y-126580381D01*
D24*
X178420000Y-124500000D03*
X188580000Y-124500000D03*
D23*
X183500000Y-124500000D03*
D21*
X187310000Y-127040000D03*
D22*
X187769619Y-126580381D02*
X186850381Y-127499619D01*
D20*
X189000000Y-124500000D03*
X178000000Y-124500000D03*
D13*
X188600000Y-128400000D03*
D19*
X188953553Y-128046447D02*
X188246447Y-128753553D01*
D13*
X178400000Y-128400000D03*
D19*
X178753553Y-128753553D02*
X178046447Y-128046447D01*
D18*
X183500000Y-130400000D03*
D17*
X178280000Y-120300000D03*
X202720000Y-55300000D03*
D25*
X194960000Y-64580000D03*
X200040000Y-64580000D03*
D21*
X193690000Y-62040000D03*
D22*
X194149619Y-62499619D02*
X193230381Y-61580381D01*
D24*
X192420000Y-59500000D03*
X202580000Y-59500000D03*
D23*
X197500000Y-59500000D03*
D21*
X201310000Y-62040000D03*
D22*
X201769619Y-61580381D02*
X200850381Y-62499619D01*
D20*
X203000000Y-59500000D03*
X192000000Y-59500000D03*
D13*
X202600000Y-63400000D03*
D19*
X202953553Y-63046447D02*
X202246447Y-63753553D01*
D13*
X192400000Y-63400000D03*
D19*
X192753553Y-63753553D02*
X192046447Y-63046447D01*
D18*
X197500000Y-65400000D03*
D17*
X192280000Y-55300000D03*
X192280000Y-74300000D03*
D18*
X197500000Y-84400000D03*
D13*
X192400000Y-82400000D03*
D19*
X192753553Y-82753553D02*
X192046447Y-82046447D01*
D13*
X202600000Y-82400000D03*
D19*
X202953553Y-82046447D02*
X202246447Y-82753553D01*
D20*
X192000000Y-78500000D03*
X203000000Y-78500000D03*
D21*
X201310000Y-81040000D03*
D22*
X201769619Y-80580381D02*
X200850381Y-81499619D01*
D23*
X197500000Y-78500000D03*
D24*
X202580000Y-78500000D03*
X192420000Y-78500000D03*
D21*
X193690000Y-81040000D03*
D22*
X194149619Y-81499619D02*
X193230381Y-80580381D01*
D25*
X200040000Y-83580000D03*
X194960000Y-83580000D03*
D17*
X202720000Y-74300000D03*
X202720000Y-93300000D03*
D25*
X194960000Y-102580000D03*
X200040000Y-102580000D03*
D21*
X193690000Y-100040000D03*
D22*
X194149619Y-100499619D02*
X193230381Y-99580381D01*
D24*
X192420000Y-97500000D03*
X202580000Y-97500000D03*
D23*
X197500000Y-97500000D03*
D21*
X201310000Y-100040000D03*
D22*
X201769619Y-99580381D02*
X200850381Y-100499619D01*
D20*
X203000000Y-97500000D03*
X192000000Y-97500000D03*
D13*
X202600000Y-101400000D03*
D19*
X202953553Y-101046447D02*
X202246447Y-101753553D01*
D13*
X192400000Y-101400000D03*
D19*
X192753553Y-101753553D02*
X192046447Y-101046447D01*
D18*
X197500000Y-103400000D03*
D17*
X192280000Y-93300000D03*
X197280000Y-120300000D03*
D18*
X202500000Y-130400000D03*
D13*
X197400000Y-128400000D03*
D19*
X197753553Y-128753553D02*
X197046447Y-128046447D01*
D13*
X207600000Y-128400000D03*
D19*
X207953553Y-128046447D02*
X207246447Y-128753553D01*
D20*
X197000000Y-124500000D03*
X208000000Y-124500000D03*
D21*
X206310000Y-127040000D03*
D22*
X206769619Y-126580381D02*
X205850381Y-127499619D01*
D23*
X202500000Y-124500000D03*
D24*
X207580000Y-124500000D03*
X197420000Y-124500000D03*
D21*
X198690000Y-127040000D03*
D22*
X199149619Y-127499619D02*
X198230381Y-126580381D01*
D25*
X205040000Y-129580000D03*
X199960000Y-129580000D03*
D17*
X207720000Y-120300000D03*
X221720000Y-62300000D03*
D25*
X213960000Y-71580000D03*
X219040000Y-71580000D03*
D21*
X212690000Y-69040000D03*
D22*
X213149619Y-69499619D02*
X212230381Y-68580381D01*
D24*
X211420000Y-66500000D03*
X221580000Y-66500000D03*
D23*
X216500000Y-66500000D03*
D21*
X220310000Y-69040000D03*
D22*
X220769619Y-68580381D02*
X219850381Y-69499619D01*
D20*
X222000000Y-66500000D03*
X211000000Y-66500000D03*
D13*
X221600000Y-70400000D03*
D19*
X221953553Y-70046447D02*
X221246447Y-70753553D01*
D13*
X211400000Y-70400000D03*
D19*
X211753553Y-70753553D02*
X211046447Y-70046447D01*
D18*
X216500000Y-72400000D03*
D17*
X211280000Y-62300000D03*
X211280000Y-81300000D03*
D18*
X216500000Y-91400000D03*
D13*
X211400000Y-89400000D03*
D19*
X211753553Y-89753553D02*
X211046447Y-89046447D01*
D13*
X221600000Y-89400000D03*
D19*
X221953553Y-89046447D02*
X221246447Y-89753553D01*
D20*
X211000000Y-85500000D03*
X222000000Y-85500000D03*
D21*
X220310000Y-88040000D03*
D22*
X220769619Y-87580381D02*
X219850381Y-88499619D01*
D23*
X216500000Y-85500000D03*
D24*
X221580000Y-85500000D03*
X211420000Y-85500000D03*
D21*
X212690000Y-88040000D03*
D22*
X213149619Y-88499619D02*
X212230381Y-87580381D01*
D25*
X219040000Y-90580000D03*
X213960000Y-90580000D03*
D17*
X221720000Y-81300000D03*
X211280000Y-100300000D03*
D18*
X216500000Y-110400000D03*
D13*
X211400000Y-108400000D03*
D19*
X211753553Y-108753553D02*
X211046447Y-108046447D01*
D13*
X221600000Y-108400000D03*
D19*
X221953553Y-108046447D02*
X221246447Y-108753553D01*
D20*
X211000000Y-104500000D03*
X222000000Y-104500000D03*
D21*
X220310000Y-107040000D03*
D22*
X220769619Y-106580381D02*
X219850381Y-107499619D01*
D23*
X216500000Y-104500000D03*
D24*
X221580000Y-104500000D03*
X211420000Y-104500000D03*
D21*
X212690000Y-107040000D03*
D22*
X213149619Y-107499619D02*
X212230381Y-106580381D01*
D25*
X219040000Y-109580000D03*
X213960000Y-109580000D03*
D17*
X221720000Y-100300000D03*
X226720000Y-120300000D03*
D25*
X218960000Y-129580000D03*
X224040000Y-129580000D03*
D21*
X217690000Y-127040000D03*
D22*
X218149619Y-127499619D02*
X217230381Y-126580381D01*
D24*
X216420000Y-124500000D03*
X226580000Y-124500000D03*
D23*
X221500000Y-124500000D03*
D21*
X225310000Y-127040000D03*
D22*
X225769619Y-126580381D02*
X224850381Y-127499619D01*
D20*
X227000000Y-124500000D03*
X216000000Y-124500000D03*
D13*
X226600000Y-128400000D03*
D19*
X226953553Y-128046447D02*
X226246447Y-128753553D01*
D13*
X216400000Y-128400000D03*
D19*
X216753553Y-128753553D02*
X216046447Y-128046447D01*
D18*
X221500000Y-130400000D03*
D17*
X216280000Y-120300000D03*
X230280000Y-63300000D03*
D18*
X235500000Y-73400000D03*
D13*
X230400000Y-71400000D03*
D19*
X230753553Y-71753553D02*
X230046447Y-71046447D01*
D13*
X240600000Y-71400000D03*
D19*
X240953553Y-71046447D02*
X240246447Y-71753553D01*
D20*
X230000000Y-67500000D03*
X241000000Y-67500000D03*
D21*
X239310000Y-70040000D03*
D22*
X239769619Y-69580381D02*
X238850381Y-70499619D01*
D23*
X235500000Y-67500000D03*
D24*
X240580000Y-67500000D03*
X230420000Y-67500000D03*
D21*
X231690000Y-70040000D03*
D22*
X232149619Y-70499619D02*
X231230381Y-69580381D01*
D25*
X238040000Y-72580000D03*
X232960000Y-72580000D03*
D17*
X240720000Y-63300000D03*
X240720000Y-82300000D03*
D25*
X232960000Y-91580000D03*
X238040000Y-91580000D03*
D21*
X231690000Y-89040000D03*
D22*
X232149619Y-89499619D02*
X231230381Y-88580381D01*
D24*
X230420000Y-86500000D03*
X240580000Y-86500000D03*
D23*
X235500000Y-86500000D03*
D21*
X239310000Y-89040000D03*
D22*
X239769619Y-88580381D02*
X238850381Y-89499619D01*
D20*
X241000000Y-86500000D03*
X230000000Y-86500000D03*
D13*
X240600000Y-90400000D03*
D19*
X240953553Y-90046447D02*
X240246447Y-90753553D01*
D13*
X230400000Y-90400000D03*
D19*
X230753553Y-90753553D02*
X230046447Y-90046447D01*
D18*
X235500000Y-92400000D03*
D17*
X230280000Y-82300000D03*
X240720000Y-101300000D03*
D25*
X232960000Y-110580000D03*
X238040000Y-110580000D03*
D21*
X231690000Y-108040000D03*
D22*
X232149619Y-108499619D02*
X231230381Y-107580381D01*
D24*
X230420000Y-105500000D03*
X240580000Y-105500000D03*
D23*
X235500000Y-105500000D03*
D21*
X239310000Y-108040000D03*
D22*
X239769619Y-107580381D02*
X238850381Y-108499619D01*
D20*
X241000000Y-105500000D03*
X230000000Y-105500000D03*
D13*
X240600000Y-109400000D03*
D19*
X240953553Y-109046447D02*
X240246447Y-109753553D01*
D13*
X230400000Y-109400000D03*
D19*
X230753553Y-109753553D02*
X230046447Y-109046447D01*
D18*
X235500000Y-111400000D03*
D17*
X230280000Y-101300000D03*
X235280000Y-120300000D03*
D18*
X240500000Y-130400000D03*
D13*
X235400000Y-128400000D03*
D19*
X235753553Y-128753553D02*
X235046447Y-128046447D01*
D13*
X245600000Y-128400000D03*
D19*
X245953553Y-128046447D02*
X245246447Y-128753553D01*
D20*
X235000000Y-124500000D03*
X246000000Y-124500000D03*
D21*
X244310000Y-127040000D03*
D22*
X244769619Y-126580381D02*
X243850381Y-127499619D01*
D23*
X240500000Y-124500000D03*
D24*
X245580000Y-124500000D03*
X235420000Y-124500000D03*
D21*
X236690000Y-127040000D03*
D22*
X237149619Y-127499619D02*
X236230381Y-126580381D01*
D25*
X243040000Y-129580000D03*
X237960000Y-129580000D03*
D17*
X245720000Y-120300000D03*
M02*
