G04 #@! TF.GenerationSoftware,KiCad,Pcbnew,(5.1.0)-1*
G04 #@! TF.CreationDate,2020-01-03T20:23:20+09:00*
G04 #@! TF.ProjectId,100cm^2,31303063-6d5e-4322-9e6b-696361645f70,rev?*
G04 #@! TF.SameCoordinates,Original*
G04 #@! TF.FileFunction,Legend,Bot*
G04 #@! TF.FilePolarity,Positive*
%FSLAX46Y46*%
G04 Gerber Fmt 4.6, Leading zero omitted, Abs format (unit mm)*
G04 Created by KiCad (PCBNEW (5.1.0)-1) date 2020-01-03 20:23:20*
%MOMM*%
%LPD*%
G04 APERTURE LIST*
%ADD10C,0.150000*%
%ADD11C,0.125000*%
G04 APERTURE END LIST*
D10*
X167500000Y-60500000D02*
X168500000Y-60500000D01*
X168000000Y-60400000D02*
X167500000Y-59500000D01*
X167500000Y-59500000D02*
X168500000Y-59500000D01*
X168500000Y-59500000D02*
X168000000Y-60400000D01*
X167250000Y-57300000D02*
X167250000Y-62700000D01*
X167250000Y-62700000D02*
X168750000Y-62700000D01*
X168750000Y-62700000D02*
X168750000Y-57300000D01*
X168750000Y-57300000D02*
X167250000Y-57300000D01*
X168250000Y-76800000D02*
X166750000Y-76800000D01*
X168250000Y-82200000D02*
X168250000Y-76800000D01*
X166750000Y-82200000D02*
X168250000Y-82200000D01*
X166750000Y-76800000D02*
X166750000Y-82200000D01*
X168000000Y-79000000D02*
X167500000Y-79900000D01*
X167000000Y-79000000D02*
X168000000Y-79000000D01*
X167500000Y-79900000D02*
X167000000Y-79000000D01*
X167000000Y-80000000D02*
X168000000Y-80000000D01*
X167000000Y-99000000D02*
X168000000Y-99000000D01*
X167500000Y-98900000D02*
X167000000Y-98000000D01*
X167000000Y-98000000D02*
X168000000Y-98000000D01*
X168000000Y-98000000D02*
X167500000Y-98900000D01*
X166750000Y-95800000D02*
X166750000Y-101200000D01*
X166750000Y-101200000D02*
X168250000Y-101200000D01*
X168250000Y-101200000D02*
X168250000Y-95800000D01*
X168250000Y-95800000D02*
X166750000Y-95800000D01*
X167000000Y-118000000D02*
X168000000Y-118000000D01*
X167500000Y-117900000D02*
X167000000Y-117000000D01*
X167000000Y-117000000D02*
X168000000Y-117000000D01*
X168000000Y-117000000D02*
X167500000Y-117900000D01*
X166750000Y-114800000D02*
X166750000Y-120200000D01*
X166750000Y-120200000D02*
X168250000Y-120200000D01*
X168250000Y-120200000D02*
X168250000Y-114800000D01*
X168250000Y-114800000D02*
X166750000Y-114800000D01*
X171250000Y-61800000D02*
X169750000Y-61800000D01*
X171250000Y-67200000D02*
X171250000Y-61800000D01*
X169750000Y-67200000D02*
X171250000Y-67200000D01*
X169750000Y-61800000D02*
X169750000Y-67200000D01*
X171000000Y-64000000D02*
X170500000Y-64900000D01*
X170000000Y-64000000D02*
X171000000Y-64000000D01*
X170500000Y-64900000D02*
X170000000Y-64000000D01*
X170000000Y-65000000D02*
X171000000Y-65000000D01*
X171250000Y-80800000D02*
X169750000Y-80800000D01*
X171250000Y-86200000D02*
X171250000Y-80800000D01*
X169750000Y-86200000D02*
X171250000Y-86200000D01*
X169750000Y-80800000D02*
X169750000Y-86200000D01*
X171000000Y-83000000D02*
X170500000Y-83900000D01*
X170000000Y-83000000D02*
X171000000Y-83000000D01*
X170500000Y-83900000D02*
X170000000Y-83000000D01*
X170000000Y-84000000D02*
X171000000Y-84000000D01*
X171250000Y-99300000D02*
X169750000Y-99300000D01*
X171250000Y-104700000D02*
X171250000Y-99300000D01*
X169750000Y-104700000D02*
X171250000Y-104700000D01*
X169750000Y-99300000D02*
X169750000Y-104700000D01*
X171000000Y-101500000D02*
X170500000Y-102400000D01*
X170000000Y-101500000D02*
X171000000Y-101500000D01*
X170500000Y-102400000D02*
X170000000Y-101500000D01*
X170000000Y-102500000D02*
X171000000Y-102500000D01*
X175500000Y-122225000D02*
X176500000Y-122225000D01*
X176000000Y-122125000D02*
X175500000Y-121225000D01*
X175500000Y-121225000D02*
X176500000Y-121225000D01*
X176500000Y-121225000D02*
X176000000Y-122125000D01*
X175250000Y-119025000D02*
X175250000Y-124425000D01*
X175250000Y-124425000D02*
X176750000Y-124425000D01*
X176750000Y-124425000D02*
X176750000Y-119025000D01*
X176750000Y-119025000D02*
X175250000Y-119025000D01*
X187250000Y-61800000D02*
X185750000Y-61800000D01*
X187250000Y-67200000D02*
X187250000Y-61800000D01*
X185750000Y-67200000D02*
X187250000Y-67200000D01*
X185750000Y-61800000D02*
X185750000Y-67200000D01*
X187000000Y-64000000D02*
X186500000Y-64900000D01*
X186000000Y-64000000D02*
X187000000Y-64000000D01*
X186500000Y-64900000D02*
X186000000Y-64000000D01*
X186000000Y-65000000D02*
X187000000Y-65000000D01*
X186000000Y-83500000D02*
X187000000Y-83500000D01*
X186500000Y-83400000D02*
X186000000Y-82500000D01*
X186000000Y-82500000D02*
X187000000Y-82500000D01*
X187000000Y-82500000D02*
X186500000Y-83400000D01*
X185750000Y-80300000D02*
X185750000Y-85700000D01*
X185750000Y-85700000D02*
X187250000Y-85700000D01*
X187250000Y-85700000D02*
X187250000Y-80300000D01*
X187250000Y-80300000D02*
X185750000Y-80300000D01*
X188500000Y-98000000D02*
X189500000Y-98000000D01*
X189000000Y-97900000D02*
X188500000Y-97000000D01*
X188500000Y-97000000D02*
X189500000Y-97000000D01*
X189500000Y-97000000D02*
X189000000Y-97900000D01*
X188250000Y-94800000D02*
X188250000Y-100200000D01*
X188250000Y-100200000D02*
X189750000Y-100200000D01*
X189750000Y-100200000D02*
X189750000Y-94800000D01*
X189750000Y-94800000D02*
X188250000Y-94800000D01*
X193500000Y-124725000D02*
X194500000Y-124725000D01*
X194000000Y-124625000D02*
X193500000Y-123725000D01*
X193500000Y-123725000D02*
X194500000Y-123725000D01*
X194500000Y-123725000D02*
X194000000Y-124625000D01*
X193250000Y-121525000D02*
X193250000Y-126925000D01*
X193250000Y-126925000D02*
X194750000Y-126925000D01*
X194750000Y-126925000D02*
X194750000Y-121525000D01*
X194750000Y-121525000D02*
X193250000Y-121525000D01*
X227000000Y-68500000D02*
X228000000Y-68500000D01*
X227500000Y-68400000D02*
X227000000Y-67500000D01*
X227000000Y-67500000D02*
X228000000Y-67500000D01*
X228000000Y-67500000D02*
X227500000Y-68400000D01*
X226750000Y-65300000D02*
X226750000Y-70700000D01*
X226750000Y-70700000D02*
X228250000Y-70700000D01*
X228250000Y-70700000D02*
X228250000Y-65300000D01*
X228250000Y-65300000D02*
X226750000Y-65300000D01*
X226250000Y-87525000D02*
X224750000Y-87525000D01*
X226250000Y-92925000D02*
X226250000Y-87525000D01*
X224750000Y-92925000D02*
X226250000Y-92925000D01*
X224750000Y-87525000D02*
X224750000Y-92925000D01*
X226000000Y-89725000D02*
X225500000Y-90625000D01*
X225000000Y-89725000D02*
X226000000Y-89725000D01*
X225500000Y-90625000D02*
X225000000Y-89725000D01*
X225000000Y-90725000D02*
X226000000Y-90725000D01*
X209250000Y-102025000D02*
X207750000Y-102025000D01*
X209250000Y-107425000D02*
X209250000Y-102025000D01*
X207750000Y-107425000D02*
X209250000Y-107425000D01*
X207750000Y-102025000D02*
X207750000Y-107425000D01*
X209000000Y-104225000D02*
X208500000Y-105125000D01*
X208000000Y-104225000D02*
X209000000Y-104225000D01*
X208500000Y-105125000D02*
X208000000Y-104225000D01*
X208000000Y-105225000D02*
X209000000Y-105225000D01*
X214250000Y-121800000D02*
X212750000Y-121800000D01*
X214250000Y-127200000D02*
X214250000Y-121800000D01*
X212750000Y-127200000D02*
X214250000Y-127200000D01*
X212750000Y-121800000D02*
X212750000Y-127200000D01*
X214000000Y-124000000D02*
X213500000Y-124900000D01*
X213000000Y-124000000D02*
X214000000Y-124000000D01*
X213500000Y-124900000D02*
X213000000Y-124000000D01*
X213000000Y-125000000D02*
X214000000Y-125000000D01*
X227000000Y-75000000D02*
X228000000Y-75000000D01*
X227500000Y-74900000D02*
X227000000Y-74000000D01*
X227000000Y-74000000D02*
X228000000Y-74000000D01*
X228000000Y-74000000D02*
X227500000Y-74900000D01*
X226750000Y-71800000D02*
X226750000Y-77200000D01*
X226750000Y-77200000D02*
X228250000Y-77200000D01*
X228250000Y-77200000D02*
X228250000Y-71800000D01*
X228250000Y-71800000D02*
X226750000Y-71800000D01*
X228250000Y-83800000D02*
X226750000Y-83800000D01*
X228250000Y-89200000D02*
X228250000Y-83800000D01*
X226750000Y-89200000D02*
X228250000Y-89200000D01*
X226750000Y-83800000D02*
X226750000Y-89200000D01*
X228000000Y-86000000D02*
X227500000Y-86900000D01*
X227000000Y-86000000D02*
X228000000Y-86000000D01*
X227500000Y-86900000D02*
X227000000Y-86000000D01*
X227000000Y-87000000D02*
X228000000Y-87000000D01*
X227500000Y-106000000D02*
X228500000Y-106000000D01*
X228000000Y-105900000D02*
X227500000Y-105000000D01*
X227500000Y-105000000D02*
X228500000Y-105000000D01*
X228500000Y-105000000D02*
X228000000Y-105900000D01*
X227250000Y-102800000D02*
X227250000Y-108200000D01*
X227250000Y-108200000D02*
X228750000Y-108200000D01*
X228750000Y-108200000D02*
X228750000Y-102800000D01*
X228750000Y-102800000D02*
X227250000Y-102800000D01*
X233250000Y-121800000D02*
X231750000Y-121800000D01*
X233250000Y-127200000D02*
X233250000Y-121800000D01*
X231750000Y-127200000D02*
X233250000Y-127200000D01*
X231750000Y-121800000D02*
X231750000Y-127200000D01*
X233000000Y-124000000D02*
X232500000Y-124900000D01*
X232000000Y-124000000D02*
X233000000Y-124000000D01*
X232500000Y-124900000D02*
X232000000Y-124000000D01*
X232000000Y-125000000D02*
X233000000Y-125000000D01*
X244250000Y-68300000D02*
X242750000Y-68300000D01*
X244250000Y-73700000D02*
X244250000Y-68300000D01*
X242750000Y-73700000D02*
X244250000Y-73700000D01*
X242750000Y-68300000D02*
X242750000Y-73700000D01*
X244000000Y-70500000D02*
X243500000Y-71400000D01*
X243000000Y-70500000D02*
X244000000Y-70500000D01*
X243500000Y-71400000D02*
X243000000Y-70500000D01*
X243000000Y-71500000D02*
X244000000Y-71500000D01*
X243000000Y-87000000D02*
X244000000Y-87000000D01*
X243500000Y-86900000D02*
X243000000Y-86000000D01*
X243000000Y-86000000D02*
X244000000Y-86000000D01*
X244000000Y-86000000D02*
X243500000Y-86900000D01*
X242750000Y-83800000D02*
X242750000Y-89200000D01*
X242750000Y-89200000D02*
X244250000Y-89200000D01*
X244250000Y-89200000D02*
X244250000Y-83800000D01*
X244250000Y-83800000D02*
X242750000Y-83800000D01*
X244750000Y-102800000D02*
X243250000Y-102800000D01*
X244750000Y-108200000D02*
X244750000Y-102800000D01*
X243250000Y-108200000D02*
X244750000Y-108200000D01*
X243250000Y-102800000D02*
X243250000Y-108200000D01*
X244500000Y-105000000D02*
X244000000Y-105900000D01*
X243500000Y-105000000D02*
X244500000Y-105000000D01*
X244000000Y-105900000D02*
X243500000Y-105000000D01*
X243500000Y-106000000D02*
X244500000Y-106000000D01*
X241000000Y-115000000D02*
X242000000Y-115000000D01*
X241500000Y-114900000D02*
X241000000Y-114000000D01*
X241000000Y-114000000D02*
X242000000Y-114000000D01*
X242000000Y-114000000D02*
X241500000Y-114900000D01*
X240750000Y-111800000D02*
X240750000Y-117200000D01*
X240750000Y-117200000D02*
X242250000Y-117200000D01*
X242250000Y-117200000D02*
X242250000Y-111800000D01*
X242250000Y-111800000D02*
X240750000Y-111800000D01*
X237000000Y-51250000D02*
X249000000Y-51250000D01*
X237000000Y-57250000D02*
X237000000Y-51250000D01*
X249000000Y-57250000D02*
X237000000Y-57250000D01*
X249000000Y-51250000D02*
X249000000Y-57250000D01*
X185500000Y-54500000D02*
X185500000Y-54750000D01*
X185500000Y-54750000D02*
X179500000Y-54750000D01*
X179500000Y-54750000D02*
X179500000Y-54500000D01*
X179500000Y-51500000D02*
X179500000Y-51250000D01*
X179500000Y-51250000D02*
X185500000Y-51250000D01*
X185500000Y-51250000D02*
X185500000Y-51500000D01*
X246250000Y-70000000D02*
X246500000Y-70000000D01*
X246250000Y-76000000D02*
X246250000Y-70000000D01*
X246500000Y-76000000D02*
X246250000Y-76000000D01*
X249750000Y-76000000D02*
X249500000Y-76000000D01*
X249750000Y-70000000D02*
X249750000Y-76000000D01*
X249500000Y-70000000D02*
X249750000Y-70000000D01*
X249500000Y-80000000D02*
X249750000Y-80000000D01*
X249750000Y-80000000D02*
X249750000Y-86000000D01*
X249750000Y-86000000D02*
X249500000Y-86000000D01*
X246500000Y-86000000D02*
X246250000Y-86000000D01*
X246250000Y-86000000D02*
X246250000Y-80000000D01*
X246250000Y-80000000D02*
X246500000Y-80000000D01*
X246250000Y-90000000D02*
X246500000Y-90000000D01*
X246250000Y-96000000D02*
X246250000Y-90000000D01*
X246500000Y-96000000D02*
X246250000Y-96000000D01*
X249750000Y-96000000D02*
X249500000Y-96000000D01*
X249750000Y-90000000D02*
X249750000Y-96000000D01*
X249500000Y-90000000D02*
X249750000Y-90000000D01*
X249500000Y-99500000D02*
X249750000Y-99500000D01*
X249750000Y-99500000D02*
X249750000Y-105500000D01*
X249750000Y-105500000D02*
X249500000Y-105500000D01*
X246500000Y-105500000D02*
X246250000Y-105500000D01*
X246250000Y-105500000D02*
X246250000Y-99500000D01*
X246250000Y-99500000D02*
X246500000Y-99500000D01*
X191113600Y-84232000D02*
X191113600Y-53752000D01*
X188573600Y-84232000D02*
X191113600Y-84232000D01*
X188573600Y-53752000D02*
X188573600Y-84232000D01*
X191113600Y-53752000D02*
X188573600Y-53752000D01*
X206333600Y-84232000D02*
X206333600Y-53752000D01*
X203793600Y-84232000D02*
X206333600Y-84232000D01*
X203793600Y-53752000D02*
X203793600Y-84232000D01*
X206333600Y-53752000D02*
X203793600Y-53752000D01*
X242038880Y-53412595D02*
X242038880Y-53984023D01*
X243038880Y-53698309D02*
X242038880Y-53698309D01*
X243038880Y-54888785D02*
X242562690Y-54555452D01*
X243038880Y-54317357D02*
X242038880Y-54317357D01*
X242038880Y-54698309D01*
X242086500Y-54793547D01*
X242134119Y-54841166D01*
X242229357Y-54888785D01*
X242372214Y-54888785D01*
X242467452Y-54841166D01*
X242515071Y-54793547D01*
X242562690Y-54698309D01*
X242562690Y-54317357D01*
X243038880Y-55888785D02*
X242562690Y-55555452D01*
X243038880Y-55317357D02*
X242038880Y-55317357D01*
X242038880Y-55698309D01*
X242086500Y-55793547D01*
X242134119Y-55841166D01*
X242229357Y-55888785D01*
X242372214Y-55888785D01*
X242467452Y-55841166D01*
X242515071Y-55793547D01*
X242562690Y-55698309D01*
X242562690Y-55317357D01*
X242991261Y-56269738D02*
X243038880Y-56412595D01*
X243038880Y-56650690D01*
X242991261Y-56745928D01*
X242943642Y-56793547D01*
X242848404Y-56841166D01*
X242753166Y-56841166D01*
X242657928Y-56793547D01*
X242610309Y-56745928D01*
X242562690Y-56650690D01*
X242515071Y-56460214D01*
X242467452Y-56364976D01*
X242419833Y-56317357D01*
X242324595Y-56269738D01*
X242229357Y-56269738D01*
X242134119Y-56317357D01*
X242086500Y-56364976D01*
X242038880Y-56460214D01*
X242038880Y-56698309D01*
X242086500Y-56841166D01*
X184079380Y-53452380D02*
X184412714Y-52976190D01*
X184650809Y-53452380D02*
X184650809Y-52452380D01*
X184269857Y-52452380D01*
X184174619Y-52500000D01*
X184127000Y-52547619D01*
X184079380Y-52642857D01*
X184079380Y-52785714D01*
X184127000Y-52880952D01*
X184174619Y-52928571D01*
X184269857Y-52976190D01*
X184650809Y-52976190D01*
X183650809Y-52928571D02*
X183317476Y-52928571D01*
X183174619Y-53452380D02*
X183650809Y-53452380D01*
X183650809Y-52452380D01*
X183174619Y-52452380D01*
X182793666Y-53404761D02*
X182650809Y-53452380D01*
X182412714Y-53452380D01*
X182317476Y-53404761D01*
X182269857Y-53357142D01*
X182222238Y-53261904D01*
X182222238Y-53166666D01*
X182269857Y-53071428D01*
X182317476Y-53023809D01*
X182412714Y-52976190D01*
X182603190Y-52928571D01*
X182698428Y-52880952D01*
X182746047Y-52833333D01*
X182793666Y-52738095D01*
X182793666Y-52642857D01*
X182746047Y-52547619D01*
X182698428Y-52500000D01*
X182603190Y-52452380D01*
X182365095Y-52452380D01*
X182222238Y-52500000D01*
X181793666Y-52928571D02*
X181460333Y-52928571D01*
X181317476Y-53452380D02*
X181793666Y-53452380D01*
X181793666Y-52452380D01*
X181317476Y-52452380D01*
X181031761Y-52452380D02*
X180460333Y-52452380D01*
X180746047Y-53452380D02*
X180746047Y-52452380D01*
D11*
X192880952Y-73141285D02*
X193047619Y-72784142D01*
X193166666Y-73141285D02*
X193166666Y-72391285D01*
X192976190Y-72391285D01*
X192928571Y-72427000D01*
X192904761Y-72462714D01*
X192880952Y-72534142D01*
X192880952Y-72641285D01*
X192904761Y-72712714D01*
X192928571Y-72748428D01*
X192976190Y-72784142D01*
X193166666Y-72784142D01*
X192571428Y-72391285D02*
X192476190Y-72391285D01*
X192428571Y-72427000D01*
X192380952Y-72498428D01*
X192357142Y-72641285D01*
X192357142Y-72891285D01*
X192380952Y-73034142D01*
X192428571Y-73105571D01*
X192476190Y-73141285D01*
X192571428Y-73141285D01*
X192619047Y-73105571D01*
X192666666Y-73034142D01*
X192690476Y-72891285D01*
X192690476Y-72641285D01*
X192666666Y-72498428D01*
X192619047Y-72427000D01*
X192571428Y-72391285D01*
X192190476Y-72391285D02*
X192071428Y-73141285D01*
X191976190Y-72605571D01*
X191880952Y-73141285D01*
X191761904Y-72391285D01*
X191309523Y-73141285D02*
X191595238Y-73141285D01*
X191452380Y-73141285D02*
X191452380Y-72391285D01*
X191500000Y-72498428D01*
X191547619Y-72569857D01*
X191595238Y-72605571D01*
X207997619Y-75617857D02*
X208021428Y-75653571D01*
X208092857Y-75689285D01*
X208140476Y-75689285D01*
X208211904Y-75653571D01*
X208259523Y-75582142D01*
X208283333Y-75510714D01*
X208307142Y-75367857D01*
X208307142Y-75260714D01*
X208283333Y-75117857D01*
X208259523Y-75046428D01*
X208211904Y-74975000D01*
X208140476Y-74939285D01*
X208092857Y-74939285D01*
X208021428Y-74975000D01*
X207997619Y-75010714D01*
X207688095Y-74939285D02*
X207592857Y-74939285D01*
X207545238Y-74975000D01*
X207497619Y-75046428D01*
X207473809Y-75189285D01*
X207473809Y-75439285D01*
X207497619Y-75582142D01*
X207545238Y-75653571D01*
X207592857Y-75689285D01*
X207688095Y-75689285D01*
X207735714Y-75653571D01*
X207783333Y-75582142D01*
X207807142Y-75439285D01*
X207807142Y-75189285D01*
X207783333Y-75046428D01*
X207735714Y-74975000D01*
X207688095Y-74939285D01*
X207021428Y-75689285D02*
X207259523Y-75689285D01*
X207259523Y-74939285D01*
X206640476Y-75189285D02*
X206640476Y-75689285D01*
X206759523Y-74903571D02*
X206878571Y-75439285D01*
X206569047Y-75439285D01*
X192930952Y-75689285D02*
X193097619Y-75332142D01*
X193216666Y-75689285D02*
X193216666Y-74939285D01*
X193026190Y-74939285D01*
X192978571Y-74975000D01*
X192954761Y-75010714D01*
X192930952Y-75082142D01*
X192930952Y-75189285D01*
X192954761Y-75260714D01*
X192978571Y-75296428D01*
X193026190Y-75332142D01*
X193216666Y-75332142D01*
X192621428Y-74939285D02*
X192526190Y-74939285D01*
X192478571Y-74975000D01*
X192430952Y-75046428D01*
X192407142Y-75189285D01*
X192407142Y-75439285D01*
X192430952Y-75582142D01*
X192478571Y-75653571D01*
X192526190Y-75689285D01*
X192621428Y-75689285D01*
X192669047Y-75653571D01*
X192716666Y-75582142D01*
X192740476Y-75439285D01*
X192740476Y-75189285D01*
X192716666Y-75046428D01*
X192669047Y-74975000D01*
X192621428Y-74939285D01*
X192240476Y-74939285D02*
X192121428Y-75689285D01*
X192026190Y-75153571D01*
X191930952Y-75689285D01*
X191811904Y-74939285D01*
X191645238Y-75010714D02*
X191621428Y-74975000D01*
X191573809Y-74939285D01*
X191454761Y-74939285D01*
X191407142Y-74975000D01*
X191383333Y-75010714D01*
X191359523Y-75082142D01*
X191359523Y-75153571D01*
X191383333Y-75260714D01*
X191669047Y-75689285D01*
X191359523Y-75689285D01*
X207997619Y-78213357D02*
X208021428Y-78249071D01*
X208092857Y-78284785D01*
X208140476Y-78284785D01*
X208211904Y-78249071D01*
X208259523Y-78177642D01*
X208283333Y-78106214D01*
X208307142Y-77963357D01*
X208307142Y-77856214D01*
X208283333Y-77713357D01*
X208259523Y-77641928D01*
X208211904Y-77570500D01*
X208140476Y-77534785D01*
X208092857Y-77534785D01*
X208021428Y-77570500D01*
X207997619Y-77606214D01*
X207688095Y-77534785D02*
X207592857Y-77534785D01*
X207545238Y-77570500D01*
X207497619Y-77641928D01*
X207473809Y-77784785D01*
X207473809Y-78034785D01*
X207497619Y-78177642D01*
X207545238Y-78249071D01*
X207592857Y-78284785D01*
X207688095Y-78284785D01*
X207735714Y-78249071D01*
X207783333Y-78177642D01*
X207807142Y-78034785D01*
X207807142Y-77784785D01*
X207783333Y-77641928D01*
X207735714Y-77570500D01*
X207688095Y-77534785D01*
X207021428Y-78284785D02*
X207259523Y-78284785D01*
X207259523Y-77534785D01*
X206616666Y-77534785D02*
X206854761Y-77534785D01*
X206878571Y-77891928D01*
X206854761Y-77856214D01*
X206807142Y-77820500D01*
X206688095Y-77820500D01*
X206640476Y-77856214D01*
X206616666Y-77891928D01*
X206592857Y-77963357D01*
X206592857Y-78141928D01*
X206616666Y-78213357D01*
X206640476Y-78249071D01*
X206688095Y-78284785D01*
X206807142Y-78284785D01*
X206854761Y-78249071D01*
X206878571Y-78213357D01*
X192930952Y-78284785D02*
X193097619Y-77927642D01*
X193216666Y-78284785D02*
X193216666Y-77534785D01*
X193026190Y-77534785D01*
X192978571Y-77570500D01*
X192954761Y-77606214D01*
X192930952Y-77677642D01*
X192930952Y-77784785D01*
X192954761Y-77856214D01*
X192978571Y-77891928D01*
X193026190Y-77927642D01*
X193216666Y-77927642D01*
X192621428Y-77534785D02*
X192526190Y-77534785D01*
X192478571Y-77570500D01*
X192430952Y-77641928D01*
X192407142Y-77784785D01*
X192407142Y-78034785D01*
X192430952Y-78177642D01*
X192478571Y-78249071D01*
X192526190Y-78284785D01*
X192621428Y-78284785D01*
X192669047Y-78249071D01*
X192716666Y-78177642D01*
X192740476Y-78034785D01*
X192740476Y-77784785D01*
X192716666Y-77641928D01*
X192669047Y-77570500D01*
X192621428Y-77534785D01*
X192240476Y-77534785D02*
X192121428Y-78284785D01*
X192026190Y-77749071D01*
X191930952Y-78284785D01*
X191811904Y-77534785D01*
X191669047Y-77534785D02*
X191359523Y-77534785D01*
X191526190Y-77820500D01*
X191454761Y-77820500D01*
X191407142Y-77856214D01*
X191383333Y-77891928D01*
X191359523Y-77963357D01*
X191359523Y-78141928D01*
X191383333Y-78213357D01*
X191407142Y-78249071D01*
X191454761Y-78284785D01*
X191597619Y-78284785D01*
X191645238Y-78249071D01*
X191669047Y-78213357D01*
X207652380Y-80396428D02*
X207580952Y-80432142D01*
X207557142Y-80467857D01*
X207533333Y-80539285D01*
X207533333Y-80646428D01*
X207557142Y-80717857D01*
X207580952Y-80753571D01*
X207628571Y-80789285D01*
X207819047Y-80789285D01*
X207819047Y-80039285D01*
X207652380Y-80039285D01*
X207604761Y-80075000D01*
X207580952Y-80110714D01*
X207557142Y-80182142D01*
X207557142Y-80253571D01*
X207580952Y-80325000D01*
X207604761Y-80360714D01*
X207652380Y-80396428D01*
X207819047Y-80396428D01*
X207342857Y-80110714D02*
X207319047Y-80075000D01*
X207271428Y-80039285D01*
X207152380Y-80039285D01*
X207104761Y-80075000D01*
X207080952Y-80110714D01*
X207057142Y-80182142D01*
X207057142Y-80253571D01*
X207080952Y-80360714D01*
X207366666Y-80789285D01*
X207057142Y-80789285D01*
X192502380Y-80368428D02*
X192430952Y-80404142D01*
X192407142Y-80439857D01*
X192383333Y-80511285D01*
X192383333Y-80618428D01*
X192407142Y-80689857D01*
X192430952Y-80725571D01*
X192478571Y-80761285D01*
X192669047Y-80761285D01*
X192669047Y-80011285D01*
X192502380Y-80011285D01*
X192454761Y-80047000D01*
X192430952Y-80082714D01*
X192407142Y-80154142D01*
X192407142Y-80225571D01*
X192430952Y-80297000D01*
X192454761Y-80332714D01*
X192502380Y-80368428D01*
X192669047Y-80368428D01*
X191954761Y-80261285D02*
X191954761Y-80761285D01*
X192073809Y-79975571D02*
X192192857Y-80511285D01*
X191883333Y-80511285D01*
X192502380Y-82971928D02*
X192430952Y-83007642D01*
X192407142Y-83043357D01*
X192383333Y-83114785D01*
X192383333Y-83221928D01*
X192407142Y-83293357D01*
X192430952Y-83329071D01*
X192478571Y-83364785D01*
X192669047Y-83364785D01*
X192669047Y-82614785D01*
X192502380Y-82614785D01*
X192454761Y-82650500D01*
X192430952Y-82686214D01*
X192407142Y-82757642D01*
X192407142Y-82829071D01*
X192430952Y-82900500D01*
X192454761Y-82936214D01*
X192502380Y-82971928D01*
X192669047Y-82971928D01*
X191930952Y-82614785D02*
X192169047Y-82614785D01*
X192192857Y-82971928D01*
X192169047Y-82936214D01*
X192121428Y-82900500D01*
X192002380Y-82900500D01*
X191954761Y-82936214D01*
X191930952Y-82971928D01*
X191907142Y-83043357D01*
X191907142Y-83221928D01*
X191930952Y-83293357D01*
X191954761Y-83329071D01*
X192002380Y-83364785D01*
X192121428Y-83364785D01*
X192169047Y-83329071D01*
X192192857Y-83293357D01*
X207752380Y-82946428D02*
X207680952Y-82982142D01*
X207657142Y-83017857D01*
X207633333Y-83089285D01*
X207633333Y-83196428D01*
X207657142Y-83267857D01*
X207680952Y-83303571D01*
X207728571Y-83339285D01*
X207919047Y-83339285D01*
X207919047Y-82589285D01*
X207752380Y-82589285D01*
X207704761Y-82625000D01*
X207680952Y-82660714D01*
X207657142Y-82732142D01*
X207657142Y-82803571D01*
X207680952Y-82875000D01*
X207704761Y-82910714D01*
X207752380Y-82946428D01*
X207919047Y-82946428D01*
X207204761Y-82589285D02*
X207300000Y-82589285D01*
X207347619Y-82625000D01*
X207371428Y-82660714D01*
X207419047Y-82767857D01*
X207442857Y-82910714D01*
X207442857Y-83196428D01*
X207419047Y-83267857D01*
X207395238Y-83303571D01*
X207347619Y-83339285D01*
X207252380Y-83339285D01*
X207204761Y-83303571D01*
X207180952Y-83267857D01*
X207157142Y-83196428D01*
X207157142Y-83017857D01*
X207180952Y-82946428D01*
X207204761Y-82910714D01*
X207252380Y-82875000D01*
X207347619Y-82875000D01*
X207395238Y-82910714D01*
X207419047Y-82946428D01*
X207442857Y-83017857D01*
X207947619Y-65467857D02*
X207971428Y-65503571D01*
X208042857Y-65539285D01*
X208090476Y-65539285D01*
X208161904Y-65503571D01*
X208209523Y-65432142D01*
X208233333Y-65360714D01*
X208257142Y-65217857D01*
X208257142Y-65110714D01*
X208233333Y-64967857D01*
X208209523Y-64896428D01*
X208161904Y-64825000D01*
X208090476Y-64789285D01*
X208042857Y-64789285D01*
X207971428Y-64825000D01*
X207947619Y-64860714D01*
X207638095Y-64789285D02*
X207542857Y-64789285D01*
X207495238Y-64825000D01*
X207447619Y-64896428D01*
X207423809Y-65039285D01*
X207423809Y-65289285D01*
X207447619Y-65432142D01*
X207495238Y-65503571D01*
X207542857Y-65539285D01*
X207638095Y-65539285D01*
X207685714Y-65503571D01*
X207733333Y-65432142D01*
X207757142Y-65289285D01*
X207757142Y-65039285D01*
X207733333Y-64896428D01*
X207685714Y-64825000D01*
X207638095Y-64789285D01*
X206971428Y-65539285D02*
X207209523Y-65539285D01*
X207209523Y-64789285D01*
X206709523Y-64789285D02*
X206661904Y-64789285D01*
X206614285Y-64825000D01*
X206590476Y-64860714D01*
X206566666Y-64932142D01*
X206542857Y-65075000D01*
X206542857Y-65253571D01*
X206566666Y-65396428D01*
X206590476Y-65467857D01*
X206614285Y-65503571D01*
X206661904Y-65539285D01*
X206709523Y-65539285D01*
X206757142Y-65503571D01*
X206780952Y-65467857D01*
X206804761Y-65396428D01*
X206828571Y-65253571D01*
X206828571Y-65075000D01*
X206804761Y-64932142D01*
X206780952Y-64860714D01*
X206757142Y-64825000D01*
X206709523Y-64789285D01*
X192646142Y-65485571D02*
X192574714Y-65521285D01*
X192455666Y-65521285D01*
X192408047Y-65485571D01*
X192384238Y-65449857D01*
X192360428Y-65378428D01*
X192360428Y-65307000D01*
X192384238Y-65235571D01*
X192408047Y-65199857D01*
X192455666Y-65164142D01*
X192550904Y-65128428D01*
X192598523Y-65092714D01*
X192622333Y-65057000D01*
X192646142Y-64985571D01*
X192646142Y-64914142D01*
X192622333Y-64842714D01*
X192598523Y-64807000D01*
X192550904Y-64771285D01*
X192431857Y-64771285D01*
X192360428Y-64807000D01*
X192146142Y-65521285D02*
X192146142Y-64771285D01*
X192027095Y-64771285D01*
X191955666Y-64807000D01*
X191908047Y-64878428D01*
X191884238Y-64949857D01*
X191860428Y-65092714D01*
X191860428Y-65199857D01*
X191884238Y-65342714D01*
X191908047Y-65414142D01*
X191955666Y-65485571D01*
X192027095Y-65521285D01*
X192146142Y-65521285D01*
X191669952Y-65307000D02*
X191431857Y-65307000D01*
X191717571Y-65521285D02*
X191550904Y-64771285D01*
X191384238Y-65521285D01*
X207897619Y-67989857D02*
X207921428Y-68025571D01*
X207992857Y-68061285D01*
X208040476Y-68061285D01*
X208111904Y-68025571D01*
X208159523Y-67954142D01*
X208183333Y-67882714D01*
X208207142Y-67739857D01*
X208207142Y-67632714D01*
X208183333Y-67489857D01*
X208159523Y-67418428D01*
X208111904Y-67347000D01*
X208040476Y-67311285D01*
X207992857Y-67311285D01*
X207921428Y-67347000D01*
X207897619Y-67382714D01*
X207588095Y-67311285D02*
X207492857Y-67311285D01*
X207445238Y-67347000D01*
X207397619Y-67418428D01*
X207373809Y-67561285D01*
X207373809Y-67811285D01*
X207397619Y-67954142D01*
X207445238Y-68025571D01*
X207492857Y-68061285D01*
X207588095Y-68061285D01*
X207635714Y-68025571D01*
X207683333Y-67954142D01*
X207707142Y-67811285D01*
X207707142Y-67561285D01*
X207683333Y-67418428D01*
X207635714Y-67347000D01*
X207588095Y-67311285D01*
X206921428Y-68061285D02*
X207159523Y-68061285D01*
X207159523Y-67311285D01*
X206492857Y-68061285D02*
X206778571Y-68061285D01*
X206635714Y-68061285D02*
X206635714Y-67311285D01*
X206683333Y-67418428D01*
X206730952Y-67489857D01*
X206778571Y-67525571D01*
X192634238Y-68025571D02*
X192562809Y-68061285D01*
X192443761Y-68061285D01*
X192396142Y-68025571D01*
X192372333Y-67989857D01*
X192348523Y-67918428D01*
X192348523Y-67847000D01*
X192372333Y-67775571D01*
X192396142Y-67739857D01*
X192443761Y-67704142D01*
X192539000Y-67668428D01*
X192586619Y-67632714D01*
X192610428Y-67597000D01*
X192634238Y-67525571D01*
X192634238Y-67454142D01*
X192610428Y-67382714D01*
X192586619Y-67347000D01*
X192539000Y-67311285D01*
X192419952Y-67311285D01*
X192348523Y-67347000D01*
X191848523Y-67989857D02*
X191872333Y-68025571D01*
X191943761Y-68061285D01*
X191991380Y-68061285D01*
X192062809Y-68025571D01*
X192110428Y-67954142D01*
X192134238Y-67882714D01*
X192158047Y-67739857D01*
X192158047Y-67632714D01*
X192134238Y-67489857D01*
X192110428Y-67418428D01*
X192062809Y-67347000D01*
X191991380Y-67311285D01*
X191943761Y-67311285D01*
X191872333Y-67347000D01*
X191848523Y-67382714D01*
X191396142Y-68061285D02*
X191634238Y-68061285D01*
X191634238Y-67311285D01*
X207947619Y-70529857D02*
X207971428Y-70565571D01*
X208042857Y-70601285D01*
X208090476Y-70601285D01*
X208161904Y-70565571D01*
X208209523Y-70494142D01*
X208233333Y-70422714D01*
X208257142Y-70279857D01*
X208257142Y-70172714D01*
X208233333Y-70029857D01*
X208209523Y-69958428D01*
X208161904Y-69887000D01*
X208090476Y-69851285D01*
X208042857Y-69851285D01*
X207971428Y-69887000D01*
X207947619Y-69922714D01*
X207638095Y-69851285D02*
X207542857Y-69851285D01*
X207495238Y-69887000D01*
X207447619Y-69958428D01*
X207423809Y-70101285D01*
X207423809Y-70351285D01*
X207447619Y-70494142D01*
X207495238Y-70565571D01*
X207542857Y-70601285D01*
X207638095Y-70601285D01*
X207685714Y-70565571D01*
X207733333Y-70494142D01*
X207757142Y-70351285D01*
X207757142Y-70101285D01*
X207733333Y-69958428D01*
X207685714Y-69887000D01*
X207638095Y-69851285D01*
X206971428Y-70601285D02*
X207209523Y-70601285D01*
X207209523Y-69851285D01*
X206828571Y-69922714D02*
X206804761Y-69887000D01*
X206757142Y-69851285D01*
X206638095Y-69851285D01*
X206590476Y-69887000D01*
X206566666Y-69922714D01*
X206542857Y-69994142D01*
X206542857Y-70065571D01*
X206566666Y-70172714D01*
X206852380Y-70601285D01*
X206542857Y-70601285D01*
X192930952Y-70639285D02*
X193097619Y-70282142D01*
X193216666Y-70639285D02*
X193216666Y-69889285D01*
X193026190Y-69889285D01*
X192978571Y-69925000D01*
X192954761Y-69960714D01*
X192930952Y-70032142D01*
X192930952Y-70139285D01*
X192954761Y-70210714D01*
X192978571Y-70246428D01*
X193026190Y-70282142D01*
X193216666Y-70282142D01*
X192621428Y-69889285D02*
X192526190Y-69889285D01*
X192478571Y-69925000D01*
X192430952Y-69996428D01*
X192407142Y-70139285D01*
X192407142Y-70389285D01*
X192430952Y-70532142D01*
X192478571Y-70603571D01*
X192526190Y-70639285D01*
X192621428Y-70639285D01*
X192669047Y-70603571D01*
X192716666Y-70532142D01*
X192740476Y-70389285D01*
X192740476Y-70139285D01*
X192716666Y-69996428D01*
X192669047Y-69925000D01*
X192621428Y-69889285D01*
X192240476Y-69889285D02*
X192121428Y-70639285D01*
X192026190Y-70103571D01*
X191930952Y-70639285D01*
X191811904Y-69889285D01*
X191526190Y-69889285D02*
X191478571Y-69889285D01*
X191430952Y-69925000D01*
X191407142Y-69960714D01*
X191383333Y-70032142D01*
X191359523Y-70175000D01*
X191359523Y-70353571D01*
X191383333Y-70496428D01*
X191407142Y-70567857D01*
X191430952Y-70603571D01*
X191478571Y-70639285D01*
X191526190Y-70639285D01*
X191573809Y-70603571D01*
X191597619Y-70567857D01*
X191621428Y-70496428D01*
X191645238Y-70353571D01*
X191645238Y-70175000D01*
X191621428Y-70032142D01*
X191597619Y-69960714D01*
X191573809Y-69925000D01*
X191526190Y-69889285D01*
X208047619Y-73117857D02*
X208071428Y-73153571D01*
X208142857Y-73189285D01*
X208190476Y-73189285D01*
X208261904Y-73153571D01*
X208309523Y-73082142D01*
X208333333Y-73010714D01*
X208357142Y-72867857D01*
X208357142Y-72760714D01*
X208333333Y-72617857D01*
X208309523Y-72546428D01*
X208261904Y-72475000D01*
X208190476Y-72439285D01*
X208142857Y-72439285D01*
X208071428Y-72475000D01*
X208047619Y-72510714D01*
X207738095Y-72439285D02*
X207642857Y-72439285D01*
X207595238Y-72475000D01*
X207547619Y-72546428D01*
X207523809Y-72689285D01*
X207523809Y-72939285D01*
X207547619Y-73082142D01*
X207595238Y-73153571D01*
X207642857Y-73189285D01*
X207738095Y-73189285D01*
X207785714Y-73153571D01*
X207833333Y-73082142D01*
X207857142Y-72939285D01*
X207857142Y-72689285D01*
X207833333Y-72546428D01*
X207785714Y-72475000D01*
X207738095Y-72439285D01*
X207071428Y-73189285D02*
X207309523Y-73189285D01*
X207309523Y-72439285D01*
X206952380Y-72439285D02*
X206642857Y-72439285D01*
X206809523Y-72725000D01*
X206738095Y-72725000D01*
X206690476Y-72760714D01*
X206666666Y-72796428D01*
X206642857Y-72867857D01*
X206642857Y-73046428D01*
X206666666Y-73117857D01*
X206690476Y-73153571D01*
X206738095Y-73189285D01*
X206880952Y-73189285D01*
X206928571Y-73153571D01*
X206952380Y-73117857D01*
X192419952Y-62330500D02*
X192467571Y-62294785D01*
X192539000Y-62294785D01*
X192610428Y-62330500D01*
X192658047Y-62401928D01*
X192681857Y-62473357D01*
X192705666Y-62616214D01*
X192705666Y-62723357D01*
X192681857Y-62866214D01*
X192658047Y-62937642D01*
X192610428Y-63009071D01*
X192539000Y-63044785D01*
X192491380Y-63044785D01*
X192419952Y-63009071D01*
X192396142Y-62973357D01*
X192396142Y-62723357D01*
X192491380Y-62723357D01*
X192181857Y-63044785D02*
X192181857Y-62294785D01*
X191896142Y-63044785D01*
X191896142Y-62294785D01*
X191658047Y-63044785D02*
X191658047Y-62294785D01*
X191539000Y-62294785D01*
X191467571Y-62330500D01*
X191419952Y-62401928D01*
X191396142Y-62473357D01*
X191372333Y-62616214D01*
X191372333Y-62723357D01*
X191396142Y-62866214D01*
X191419952Y-62937642D01*
X191467571Y-63009071D01*
X191539000Y-63044785D01*
X191658047Y-63044785D01*
X207882166Y-62231285D02*
X207715500Y-62981285D01*
X207548833Y-62231285D01*
X207096452Y-62909857D02*
X207120261Y-62945571D01*
X207191690Y-62981285D01*
X207239309Y-62981285D01*
X207310738Y-62945571D01*
X207358357Y-62874142D01*
X207382166Y-62802714D01*
X207405976Y-62659857D01*
X207405976Y-62552714D01*
X207382166Y-62409857D01*
X207358357Y-62338428D01*
X207310738Y-62267000D01*
X207239309Y-62231285D01*
X207191690Y-62231285D01*
X207120261Y-62267000D01*
X207096452Y-62302714D01*
X206596452Y-62909857D02*
X206620261Y-62945571D01*
X206691690Y-62981285D01*
X206739309Y-62981285D01*
X206810738Y-62945571D01*
X206858357Y-62874142D01*
X206882166Y-62802714D01*
X206905976Y-62659857D01*
X206905976Y-62552714D01*
X206882166Y-62409857D01*
X206858357Y-62338428D01*
X206810738Y-62267000D01*
X206739309Y-62231285D01*
X206691690Y-62231285D01*
X206620261Y-62267000D01*
X206596452Y-62302714D01*
X192356452Y-59790500D02*
X192404071Y-59754785D01*
X192475500Y-59754785D01*
X192546928Y-59790500D01*
X192594547Y-59861928D01*
X192618357Y-59933357D01*
X192642166Y-60076214D01*
X192642166Y-60183357D01*
X192618357Y-60326214D01*
X192594547Y-60397642D01*
X192546928Y-60469071D01*
X192475500Y-60504785D01*
X192427880Y-60504785D01*
X192356452Y-60469071D01*
X192332642Y-60433357D01*
X192332642Y-60183357D01*
X192427880Y-60183357D01*
X192118357Y-60504785D02*
X192118357Y-59754785D01*
X191832642Y-60504785D01*
X191832642Y-59754785D01*
X191594547Y-60504785D02*
X191594547Y-59754785D01*
X191475500Y-59754785D01*
X191404071Y-59790500D01*
X191356452Y-59861928D01*
X191332642Y-59933357D01*
X191308833Y-60076214D01*
X191308833Y-60183357D01*
X191332642Y-60326214D01*
X191356452Y-60397642D01*
X191404071Y-60469071D01*
X191475500Y-60504785D01*
X191594547Y-60504785D01*
X207489309Y-60504785D02*
X207655976Y-60147642D01*
X207775023Y-60504785D02*
X207775023Y-59754785D01*
X207584547Y-59754785D01*
X207536928Y-59790500D01*
X207513119Y-59826214D01*
X207489309Y-59897642D01*
X207489309Y-60004785D01*
X207513119Y-60076214D01*
X207536928Y-60111928D01*
X207584547Y-60147642D01*
X207775023Y-60147642D01*
X207298833Y-60469071D02*
X207227404Y-60504785D01*
X207108357Y-60504785D01*
X207060738Y-60469071D01*
X207036928Y-60433357D01*
X207013119Y-60361928D01*
X207013119Y-60290500D01*
X207036928Y-60219071D01*
X207060738Y-60183357D01*
X207108357Y-60147642D01*
X207203595Y-60111928D01*
X207251214Y-60076214D01*
X207275023Y-60040500D01*
X207298833Y-59969071D01*
X207298833Y-59897642D01*
X207275023Y-59826214D01*
X207251214Y-59790500D01*
X207203595Y-59754785D01*
X207084547Y-59754785D01*
X207013119Y-59790500D01*
X206870261Y-59754785D02*
X206584547Y-59754785D01*
X206727404Y-60504785D02*
X206727404Y-59754785D01*
X192900000Y-57889285D02*
X192900000Y-57139285D01*
X192780952Y-57139285D01*
X192709523Y-57175000D01*
X192661904Y-57246428D01*
X192638095Y-57317857D01*
X192614285Y-57460714D01*
X192614285Y-57567857D01*
X192638095Y-57710714D01*
X192661904Y-57782142D01*
X192709523Y-57853571D01*
X192780952Y-57889285D01*
X192900000Y-57889285D01*
X192423809Y-57675000D02*
X192185714Y-57675000D01*
X192471428Y-57889285D02*
X192304761Y-57139285D01*
X192138095Y-57889285D01*
X192042857Y-57139285D02*
X191757142Y-57139285D01*
X191900000Y-57889285D02*
X191900000Y-57139285D01*
X191614285Y-57675000D02*
X191376190Y-57675000D01*
X191661904Y-57889285D02*
X191495238Y-57139285D01*
X191328571Y-57889285D01*
X207596452Y-57187000D02*
X207644071Y-57151285D01*
X207715500Y-57151285D01*
X207786928Y-57187000D01*
X207834547Y-57258428D01*
X207858357Y-57329857D01*
X207882166Y-57472714D01*
X207882166Y-57579857D01*
X207858357Y-57722714D01*
X207834547Y-57794142D01*
X207786928Y-57865571D01*
X207715500Y-57901285D01*
X207667880Y-57901285D01*
X207596452Y-57865571D01*
X207572642Y-57829857D01*
X207572642Y-57579857D01*
X207667880Y-57579857D01*
X207358357Y-57901285D02*
X207358357Y-57151285D01*
X207072642Y-57901285D01*
X207072642Y-57151285D01*
X206834547Y-57901285D02*
X206834547Y-57151285D01*
X206715500Y-57151285D01*
X206644071Y-57187000D01*
X206596452Y-57258428D01*
X206572642Y-57329857D01*
X206548833Y-57472714D01*
X206548833Y-57579857D01*
X206572642Y-57722714D01*
X206596452Y-57794142D01*
X206644071Y-57865571D01*
X206715500Y-57901285D01*
X206834547Y-57901285D01*
X192321428Y-55361285D02*
X192559523Y-55361285D01*
X192559523Y-54611285D01*
X192154761Y-54968428D02*
X191988095Y-54968428D01*
X191916666Y-55361285D02*
X192154761Y-55361285D01*
X192154761Y-54611285D01*
X191916666Y-54611285D01*
X191702380Y-55361285D02*
X191702380Y-54611285D01*
X191583333Y-54611285D01*
X191511904Y-54647000D01*
X191464285Y-54718428D01*
X191440476Y-54789857D01*
X191416666Y-54932714D01*
X191416666Y-55039857D01*
X191440476Y-55182714D01*
X191464285Y-55254142D01*
X191511904Y-55325571D01*
X191583333Y-55361285D01*
X191702380Y-55361285D01*
X207560738Y-55361285D02*
X207727404Y-55004142D01*
X207846452Y-55361285D02*
X207846452Y-54611285D01*
X207655976Y-54611285D01*
X207608357Y-54647000D01*
X207584547Y-54682714D01*
X207560738Y-54754142D01*
X207560738Y-54861285D01*
X207584547Y-54932714D01*
X207608357Y-54968428D01*
X207655976Y-55004142D01*
X207846452Y-55004142D01*
X207370261Y-55147000D02*
X207132166Y-55147000D01*
X207417880Y-55361285D02*
X207251214Y-54611285D01*
X207084547Y-55361285D01*
X206965500Y-54611285D02*
X206846452Y-55361285D01*
X206751214Y-54825571D01*
X206655976Y-55361285D01*
X206536928Y-54611285D01*
D10*
M02*
