G04 #@! TF.GenerationSoftware,KiCad,Pcbnew,(5.1.0)-1*
G04 #@! TF.CreationDate,2020-01-03T18:30:48+09:00*
G04 #@! TF.ProjectId,100cm^3,31303063-6d5e-4332-9e6b-696361645f70,rev?*
G04 #@! TF.SameCoordinates,Original*
G04 #@! TF.FileFunction,Profile,NP*
%FSLAX46Y46*%
G04 Gerber Fmt 4.6, Leading zero omitted, Abs format (unit mm)*
G04 Created by KiCad (PCBNEW (5.1.0)-1) date 2020-01-03 18:30:48*
%MOMM*%
%LPD*%
G04 APERTURE LIST*
%ADD10C,0.050000*%
G04 APERTURE END LIST*
D10*
X70000000Y-73000000D02*
G75*
G02X73000000Y-70000000I3000000J0D01*
G01*
X167000000Y-70000000D02*
G75*
G02X170000000Y-73000000I0J-3000000D01*
G01*
X170000000Y-151000000D02*
G75*
G02X167000000Y-154000000I-3000000J0D01*
G01*
X73000000Y-154000000D02*
G75*
G02X70000000Y-151000000I0J3000000D01*
G01*
X110500000Y-105500000D02*
X110500000Y-91500000D01*
X110500000Y-86500000D02*
X110500000Y-72500000D01*
X129500000Y-93500000D02*
X129500000Y-79500000D01*
X129500000Y-112500000D02*
X129500000Y-98500000D01*
X124500000Y-91500000D02*
X124500000Y-105500000D01*
X124500000Y-72500000D02*
X124500000Y-86500000D01*
X170000000Y-84000000D02*
X170000000Y-73000000D01*
X170000000Y-151000000D02*
X170000000Y-132000000D01*
X170000000Y-84000000D02*
G75*
G02X167500000Y-86500000I-2500000J0D01*
G01*
X165000000Y-89000000D02*
G75*
G02X167500000Y-86500000I2500000J0D01*
G01*
X167500000Y-129500000D02*
G75*
G02X170000000Y-132000000I0J-2500000D01*
G01*
X167500000Y-129500000D02*
G75*
G02X165000000Y-127000000I0J2500000D01*
G01*
X165000000Y-89000000D02*
X165000000Y-127000000D01*
X96500000Y-151500000D02*
X96500000Y-137500000D01*
X96500000Y-137500000D02*
X110500000Y-137500000D01*
X110500000Y-151500000D02*
X96500000Y-151500000D01*
X110500000Y-137500000D02*
X110500000Y-151500000D01*
X115500000Y-151500000D02*
X115500000Y-137500000D01*
X115500000Y-137500000D02*
X129500000Y-137500000D01*
X129500000Y-151500000D02*
X115500000Y-151500000D01*
X129500000Y-137500000D02*
X129500000Y-151500000D01*
X134500000Y-151500000D02*
X134500000Y-137500000D01*
X134500000Y-137500000D02*
X148500000Y-137500000D01*
X148500000Y-151500000D02*
X134500000Y-151500000D01*
X148500000Y-137500000D02*
X148500000Y-151500000D01*
X153500000Y-151500000D02*
X153500000Y-137500000D01*
X153500000Y-137500000D02*
X167500000Y-137500000D01*
X167500000Y-151500000D02*
X153500000Y-151500000D01*
X167500000Y-137500000D02*
X167500000Y-151500000D01*
X148500000Y-132500000D02*
X148500000Y-118500000D01*
X148500000Y-118500000D02*
X162500000Y-118500000D01*
X162500000Y-132500000D02*
X148500000Y-132500000D01*
X162500000Y-118500000D02*
X162500000Y-132500000D01*
X148500000Y-113500000D02*
X148500000Y-99500000D01*
X148500000Y-99500000D02*
X162500000Y-99500000D01*
X162500000Y-113500000D02*
X148500000Y-113500000D01*
X162500000Y-99500000D02*
X162500000Y-113500000D01*
X148500000Y-94500000D02*
X148500000Y-80500000D01*
X148500000Y-80500000D02*
X162500000Y-80500000D01*
X162500000Y-94500000D02*
X148500000Y-94500000D01*
X162500000Y-80500000D02*
X162500000Y-94500000D01*
X129500000Y-131500000D02*
X129500000Y-117500000D01*
X129500000Y-117500000D02*
X143500000Y-117500000D01*
X143500000Y-131500000D02*
X129500000Y-131500000D01*
X143500000Y-117500000D02*
X143500000Y-131500000D01*
X129500000Y-98500000D02*
X143500000Y-98500000D01*
X143500000Y-112500000D02*
X129500000Y-112500000D01*
X143500000Y-98500000D02*
X143500000Y-112500000D01*
X129500000Y-79500000D02*
X143500000Y-79500000D01*
X143500000Y-93500000D02*
X129500000Y-93500000D01*
X143500000Y-79500000D02*
X143500000Y-93500000D01*
X110500000Y-124500000D02*
X110500000Y-110500000D01*
X110500000Y-110500000D02*
X124500000Y-110500000D01*
X124500000Y-124500000D02*
X110500000Y-124500000D01*
X124500000Y-110500000D02*
X124500000Y-124500000D01*
X110500000Y-91500000D02*
X124500000Y-91500000D01*
X124500000Y-105500000D02*
X110500000Y-105500000D01*
X110500000Y-72500000D02*
X124500000Y-72500000D01*
X124500000Y-86500000D02*
X110500000Y-86500000D01*
X91500000Y-129500000D02*
X91500000Y-115500000D01*
X91500000Y-115500000D02*
X105500000Y-115500000D01*
X105500000Y-129500000D02*
X91500000Y-129500000D01*
X105500000Y-115500000D02*
X105500000Y-129500000D01*
X91500000Y-110500000D02*
X91500000Y-96500000D01*
X91500000Y-96500000D02*
X105500000Y-96500000D01*
X105500000Y-110500000D02*
X91500000Y-110500000D01*
X105500000Y-96500000D02*
X105500000Y-110500000D01*
X91500000Y-91500000D02*
X91500000Y-77500000D01*
X91500000Y-77500000D02*
X105500000Y-77500000D01*
X105500000Y-91500000D02*
X91500000Y-91500000D01*
X105500000Y-77500000D02*
X105500000Y-91500000D01*
X72500000Y-144500000D02*
X72500000Y-130500000D01*
X72500000Y-130500000D02*
X86500000Y-130500000D01*
X86500000Y-144500000D02*
X72500000Y-144500000D01*
X86500000Y-130500000D02*
X86500000Y-144500000D01*
X72500000Y-125500000D02*
X72500000Y-111500000D01*
X72500000Y-111500000D02*
X86500000Y-111500000D01*
X86500000Y-125500000D02*
X72500000Y-125500000D01*
X86500000Y-111500000D02*
X86500000Y-125500000D01*
X72500000Y-92500000D02*
X86500000Y-92500000D01*
X86500000Y-92500000D02*
X86500000Y-106500000D01*
X86500000Y-106500000D02*
X72500000Y-106500000D01*
X72500000Y-106500000D02*
X72500000Y-92500000D01*
X72500000Y-87500000D02*
X72500000Y-73500000D01*
X86500000Y-87500000D02*
X72500000Y-87500000D01*
X86500000Y-73500000D02*
X86500000Y-87500000D01*
X72500000Y-73500000D02*
X86500000Y-73500000D01*
X70000000Y-151000000D02*
X70000000Y-73000000D01*
X167000000Y-154000000D02*
X73000000Y-154000000D01*
X73000000Y-70000000D02*
X167000000Y-70000000D01*
M02*
