G04 #@! TF.GenerationSoftware,KiCad,Pcbnew,(5.1.0)-1*
G04 #@! TF.CreationDate,2020-01-03T18:30:47+09:00*
G04 #@! TF.ProjectId,100cm^3,31303063-6d5e-4332-9e6b-696361645f70,rev?*
G04 #@! TF.SameCoordinates,Original*
G04 #@! TF.FileFunction,Copper,L1,Top*
G04 #@! TF.FilePolarity,Positive*
%FSLAX46Y46*%
G04 Gerber Fmt 4.6, Leading zero omitted, Abs format (unit mm)*
G04 Created by KiCad (PCBNEW (5.1.0)-1) date 2020-01-03 18:30:47*
%MOMM*%
%LPD*%
G04 APERTURE LIST*
%ADD10C,3.800000*%
%ADD11C,1.524000*%
%ADD12C,0.250000*%
%ADD13C,0.254000*%
G04 APERTURE END LIST*
D10*
X91000000Y-74000000D03*
X91000000Y-150000000D03*
X166000000Y-133000000D03*
X166000000Y-83000000D03*
D11*
X144158600Y-75020000D03*
X144158600Y-77560000D03*
X144158600Y-80100000D03*
X144158600Y-82640000D03*
X144158600Y-85180000D03*
X144158600Y-87720000D03*
X144158600Y-90260000D03*
X144158600Y-92800000D03*
X144158600Y-95340000D03*
X144158600Y-97880000D03*
X144158600Y-100420000D03*
X144158600Y-102960000D03*
X128938600Y-102960000D03*
X128938600Y-100420000D03*
X128938600Y-97880000D03*
X128938600Y-95340000D03*
X128938600Y-92800000D03*
X128938600Y-90260000D03*
X128938600Y-87720000D03*
X128938600Y-85180000D03*
X128938600Y-82640000D03*
X128938600Y-80100000D03*
X128938600Y-77560000D03*
X128938600Y-75020000D03*
X109841400Y-75020000D03*
X109841400Y-77560000D03*
X109841400Y-80100000D03*
X109841400Y-82640000D03*
X109841400Y-85180000D03*
X109841400Y-87720000D03*
X109841400Y-90260000D03*
X109841400Y-92800000D03*
X109841400Y-95340000D03*
X109841400Y-97880000D03*
X109841400Y-100420000D03*
X109841400Y-102960000D03*
X125061400Y-102960000D03*
X125061400Y-100420000D03*
X125061400Y-97880000D03*
X125061400Y-95340000D03*
X125061400Y-92800000D03*
X125061400Y-90260000D03*
X125061400Y-87720000D03*
X125061400Y-85180000D03*
X125061400Y-82640000D03*
X125061400Y-80100000D03*
X125061400Y-77560000D03*
X125061400Y-75020000D03*
D12*
X126148401Y-83727001D02*
X126148401Y-91618563D01*
X125823399Y-80861999D02*
X125061400Y-80100000D01*
X126148401Y-81187001D02*
X125823399Y-80861999D01*
X126148401Y-91618563D02*
X126148401Y-81187001D01*
X128416839Y-93887001D02*
X126148401Y-91618563D01*
X129460361Y-93887001D02*
X128416839Y-93887001D01*
X125823399Y-83401999D02*
X125061400Y-82640000D01*
X126148401Y-83727001D02*
X125823399Y-83401999D01*
X126148401Y-88241761D02*
X126148401Y-83727001D01*
X125583161Y-88807001D02*
X126148401Y-88241761D01*
X120192999Y-88807001D02*
X125583161Y-88807001D01*
X120000000Y-89000000D02*
X120192999Y-88807001D01*
X130112999Y-93887001D02*
X133887001Y-93887001D01*
X130112999Y-93887001D02*
X130887001Y-93887001D01*
X129460361Y-93887001D02*
X130112999Y-93887001D01*
X133887001Y-93887001D02*
X135000000Y-95000000D01*
X135000000Y-95000000D02*
X135000000Y-96000000D01*
X135000000Y-96000000D02*
X134000000Y-96000000D01*
D13*
G36*
X167453893Y-70707670D02*
G01*
X167890498Y-70839489D01*
X168293185Y-71053600D01*
X168646612Y-71341848D01*
X168937327Y-71693261D01*
X169154242Y-72094439D01*
X169289106Y-72530113D01*
X169340001Y-73014353D01*
X169340000Y-83967721D01*
X169301853Y-84356776D01*
X169198238Y-84699964D01*
X169029939Y-85016489D01*
X168803365Y-85294296D01*
X168527146Y-85522805D01*
X168211803Y-85693310D01*
X167869344Y-85799319D01*
X167481718Y-85840060D01*
X167480240Y-85840065D01*
X167451560Y-85842978D01*
X167422730Y-85842777D01*
X167413558Y-85843677D01*
X166928316Y-85894678D01*
X166869760Y-85906698D01*
X166810959Y-85917914D01*
X166802138Y-85920578D01*
X166336044Y-86064858D01*
X166280881Y-86088046D01*
X166225435Y-86110448D01*
X166217299Y-86114774D01*
X165788106Y-86346838D01*
X165738539Y-86380271D01*
X165688460Y-86413042D01*
X165681319Y-86418866D01*
X165305374Y-86729875D01*
X165263252Y-86772292D01*
X165220483Y-86814174D01*
X165214610Y-86821275D01*
X164906233Y-87199382D01*
X164873141Y-87249191D01*
X164839334Y-87298563D01*
X164834952Y-87306669D01*
X164605890Y-87737473D01*
X164583099Y-87792767D01*
X164559529Y-87847760D01*
X164556804Y-87856563D01*
X164415781Y-88323653D01*
X164404159Y-88382347D01*
X164391725Y-88440844D01*
X164390762Y-88450009D01*
X164343150Y-88935595D01*
X164340000Y-88967582D01*
X164340001Y-127032419D01*
X164342886Y-127061709D01*
X164342777Y-127077271D01*
X164343677Y-127086442D01*
X164394678Y-127571684D01*
X164406699Y-127630247D01*
X164417914Y-127689040D01*
X164420578Y-127697862D01*
X164564858Y-128163956D01*
X164588033Y-128219086D01*
X164610447Y-128274565D01*
X164614774Y-128282701D01*
X164846838Y-128711894D01*
X164880271Y-128761461D01*
X164913042Y-128811540D01*
X164918867Y-128818681D01*
X165229875Y-129194627D01*
X165272311Y-129236767D01*
X165314174Y-129279517D01*
X165321275Y-129285391D01*
X165699382Y-129593767D01*
X165749191Y-129626859D01*
X165798563Y-129660666D01*
X165806667Y-129665047D01*
X165806675Y-129665051D01*
X166237473Y-129894111D01*
X166292788Y-129916910D01*
X166347760Y-129940471D01*
X166356563Y-129943196D01*
X166823652Y-130084219D01*
X166882369Y-130095845D01*
X166940845Y-130108275D01*
X166950009Y-130109238D01*
X167435581Y-130156849D01*
X167435595Y-130156850D01*
X167856775Y-130198147D01*
X168199967Y-130301763D01*
X168516489Y-130470062D01*
X168794299Y-130696637D01*
X169022806Y-130972856D01*
X169193310Y-131288197D01*
X169299319Y-131630656D01*
X169340001Y-132017722D01*
X169340000Y-150967721D01*
X169292330Y-151453894D01*
X169160512Y-151890497D01*
X168946399Y-152293186D01*
X168658150Y-152646613D01*
X168306739Y-152937327D01*
X167905564Y-153154240D01*
X167469886Y-153289106D01*
X166985664Y-153340000D01*
X73032279Y-153340000D01*
X72546106Y-153292330D01*
X72109503Y-153160512D01*
X71706814Y-152946399D01*
X71353387Y-152658150D01*
X71062673Y-152306739D01*
X70845760Y-151905564D01*
X70710894Y-151469886D01*
X70660000Y-150985664D01*
X70660000Y-149750324D01*
X88465000Y-149750324D01*
X88465000Y-150249676D01*
X88562418Y-150739432D01*
X88753512Y-151200773D01*
X89030937Y-151615968D01*
X89384032Y-151969063D01*
X89799227Y-152246488D01*
X90260568Y-152437582D01*
X90750324Y-152535000D01*
X91249676Y-152535000D01*
X91739432Y-152437582D01*
X92200773Y-152246488D01*
X92615968Y-151969063D01*
X92969063Y-151615968D01*
X93246488Y-151200773D01*
X93437582Y-150739432D01*
X93535000Y-150249676D01*
X93535000Y-149750324D01*
X93437582Y-149260568D01*
X93246488Y-148799227D01*
X92969063Y-148384032D01*
X92615968Y-148030937D01*
X92200773Y-147753512D01*
X91739432Y-147562418D01*
X91249676Y-147465000D01*
X90750324Y-147465000D01*
X90260568Y-147562418D01*
X89799227Y-147753512D01*
X89384032Y-148030937D01*
X89030937Y-148384032D01*
X88753512Y-148799227D01*
X88562418Y-149260568D01*
X88465000Y-149750324D01*
X70660000Y-149750324D01*
X70660000Y-130500000D01*
X71836807Y-130500000D01*
X71840001Y-130532429D01*
X71840000Y-144467581D01*
X71836807Y-144500000D01*
X71849550Y-144629383D01*
X71887290Y-144753793D01*
X71948575Y-144868450D01*
X72031052Y-144968948D01*
X72131550Y-145051425D01*
X72246207Y-145112710D01*
X72370617Y-145150450D01*
X72500000Y-145163193D01*
X72532419Y-145160000D01*
X86467581Y-145160000D01*
X86500000Y-145163193D01*
X86532419Y-145160000D01*
X86629383Y-145150450D01*
X86753793Y-145112710D01*
X86868450Y-145051425D01*
X86968948Y-144968948D01*
X87051425Y-144868450D01*
X87112710Y-144753793D01*
X87150450Y-144629383D01*
X87163193Y-144500000D01*
X87160000Y-144467581D01*
X87160000Y-137500000D01*
X95836807Y-137500000D01*
X95840001Y-137532429D01*
X95840000Y-151467581D01*
X95836807Y-151500000D01*
X95849550Y-151629383D01*
X95887290Y-151753793D01*
X95948575Y-151868450D01*
X96029764Y-151967379D01*
X96031052Y-151968948D01*
X96131550Y-152051425D01*
X96246207Y-152112710D01*
X96370617Y-152150450D01*
X96500000Y-152163193D01*
X96532419Y-152160000D01*
X110467581Y-152160000D01*
X110500000Y-152163193D01*
X110532419Y-152160000D01*
X110629383Y-152150450D01*
X110753793Y-152112710D01*
X110868450Y-152051425D01*
X110968948Y-151968948D01*
X111051425Y-151868450D01*
X111112710Y-151753793D01*
X111150450Y-151629383D01*
X111163193Y-151500000D01*
X111160000Y-151467581D01*
X111160000Y-137532419D01*
X111163193Y-137500000D01*
X114836807Y-137500000D01*
X114840001Y-137532429D01*
X114840000Y-151467581D01*
X114836807Y-151500000D01*
X114849550Y-151629383D01*
X114887290Y-151753793D01*
X114948575Y-151868450D01*
X115029764Y-151967379D01*
X115031052Y-151968948D01*
X115131550Y-152051425D01*
X115246207Y-152112710D01*
X115370617Y-152150450D01*
X115500000Y-152163193D01*
X115532419Y-152160000D01*
X129467581Y-152160000D01*
X129500000Y-152163193D01*
X129532419Y-152160000D01*
X129629383Y-152150450D01*
X129753793Y-152112710D01*
X129868450Y-152051425D01*
X129968948Y-151968948D01*
X130051425Y-151868450D01*
X130112710Y-151753793D01*
X130150450Y-151629383D01*
X130163193Y-151500000D01*
X130160000Y-151467581D01*
X130160000Y-137532419D01*
X130163193Y-137500000D01*
X133836807Y-137500000D01*
X133840001Y-137532429D01*
X133840000Y-151467581D01*
X133836807Y-151500000D01*
X133849550Y-151629383D01*
X133887290Y-151753793D01*
X133948575Y-151868450D01*
X134029764Y-151967379D01*
X134031052Y-151968948D01*
X134131550Y-152051425D01*
X134246207Y-152112710D01*
X134370617Y-152150450D01*
X134500000Y-152163193D01*
X134532419Y-152160000D01*
X148467581Y-152160000D01*
X148500000Y-152163193D01*
X148532419Y-152160000D01*
X148629383Y-152150450D01*
X148753793Y-152112710D01*
X148868450Y-152051425D01*
X148968948Y-151968948D01*
X149051425Y-151868450D01*
X149112710Y-151753793D01*
X149150450Y-151629383D01*
X149163193Y-151500000D01*
X149160000Y-151467581D01*
X149160000Y-137532419D01*
X149163193Y-137500000D01*
X152836807Y-137500000D01*
X152840001Y-137532429D01*
X152840000Y-151467581D01*
X152836807Y-151500000D01*
X152849550Y-151629383D01*
X152887290Y-151753793D01*
X152948575Y-151868450D01*
X153029764Y-151967379D01*
X153031052Y-151968948D01*
X153131550Y-152051425D01*
X153246207Y-152112710D01*
X153370617Y-152150450D01*
X153500000Y-152163193D01*
X153532419Y-152160000D01*
X167467581Y-152160000D01*
X167500000Y-152163193D01*
X167532419Y-152160000D01*
X167629383Y-152150450D01*
X167753793Y-152112710D01*
X167868450Y-152051425D01*
X167968948Y-151968948D01*
X168051425Y-151868450D01*
X168112710Y-151753793D01*
X168150450Y-151629383D01*
X168163193Y-151500000D01*
X168160000Y-151467581D01*
X168160000Y-137532419D01*
X168163193Y-137500000D01*
X168150450Y-137370617D01*
X168112710Y-137246207D01*
X168051425Y-137131550D01*
X167968948Y-137031052D01*
X167868450Y-136948575D01*
X167753793Y-136887290D01*
X167629383Y-136849550D01*
X167532419Y-136840000D01*
X167500000Y-136836807D01*
X167467581Y-136840000D01*
X153532419Y-136840000D01*
X153500000Y-136836807D01*
X153467581Y-136840000D01*
X153370617Y-136849550D01*
X153246207Y-136887290D01*
X153131550Y-136948575D01*
X153031052Y-137031052D01*
X152948575Y-137131550D01*
X152887290Y-137246207D01*
X152849550Y-137370617D01*
X152836807Y-137500000D01*
X149163193Y-137500000D01*
X149150450Y-137370617D01*
X149112710Y-137246207D01*
X149051425Y-137131550D01*
X148968948Y-137031052D01*
X148868450Y-136948575D01*
X148753793Y-136887290D01*
X148629383Y-136849550D01*
X148532419Y-136840000D01*
X148500000Y-136836807D01*
X148467581Y-136840000D01*
X134532419Y-136840000D01*
X134500000Y-136836807D01*
X134467581Y-136840000D01*
X134370617Y-136849550D01*
X134246207Y-136887290D01*
X134131550Y-136948575D01*
X134031052Y-137031052D01*
X133948575Y-137131550D01*
X133887290Y-137246207D01*
X133849550Y-137370617D01*
X133836807Y-137500000D01*
X130163193Y-137500000D01*
X130150450Y-137370617D01*
X130112710Y-137246207D01*
X130051425Y-137131550D01*
X129968948Y-137031052D01*
X129868450Y-136948575D01*
X129753793Y-136887290D01*
X129629383Y-136849550D01*
X129532419Y-136840000D01*
X129500000Y-136836807D01*
X129467581Y-136840000D01*
X115532419Y-136840000D01*
X115500000Y-136836807D01*
X115467581Y-136840000D01*
X115370617Y-136849550D01*
X115246207Y-136887290D01*
X115131550Y-136948575D01*
X115031052Y-137031052D01*
X114948575Y-137131550D01*
X114887290Y-137246207D01*
X114849550Y-137370617D01*
X114836807Y-137500000D01*
X111163193Y-137500000D01*
X111150450Y-137370617D01*
X111112710Y-137246207D01*
X111051425Y-137131550D01*
X110968948Y-137031052D01*
X110868450Y-136948575D01*
X110753793Y-136887290D01*
X110629383Y-136849550D01*
X110532419Y-136840000D01*
X110500000Y-136836807D01*
X110467581Y-136840000D01*
X96532419Y-136840000D01*
X96500000Y-136836807D01*
X96467581Y-136840000D01*
X96370617Y-136849550D01*
X96246207Y-136887290D01*
X96131550Y-136948575D01*
X96031052Y-137031052D01*
X95948575Y-137131550D01*
X95887290Y-137246207D01*
X95849550Y-137370617D01*
X95836807Y-137500000D01*
X87160000Y-137500000D01*
X87160000Y-130532419D01*
X87163193Y-130500000D01*
X87150450Y-130370617D01*
X87112710Y-130246207D01*
X87051425Y-130131550D01*
X86968948Y-130031052D01*
X86868450Y-129948575D01*
X86753793Y-129887290D01*
X86629383Y-129849550D01*
X86532419Y-129840000D01*
X86500000Y-129836807D01*
X86467581Y-129840000D01*
X72532419Y-129840000D01*
X72500000Y-129836807D01*
X72467581Y-129840000D01*
X72370617Y-129849550D01*
X72246207Y-129887290D01*
X72131550Y-129948575D01*
X72031052Y-130031052D01*
X71948575Y-130131550D01*
X71887290Y-130246207D01*
X71849550Y-130370617D01*
X71836807Y-130500000D01*
X70660000Y-130500000D01*
X70660000Y-111500000D01*
X71836807Y-111500000D01*
X71840001Y-111532429D01*
X71840000Y-125467581D01*
X71836807Y-125500000D01*
X71849550Y-125629383D01*
X71887290Y-125753793D01*
X71948575Y-125868450D01*
X72031052Y-125968948D01*
X72131550Y-126051425D01*
X72246207Y-126112710D01*
X72370617Y-126150450D01*
X72500000Y-126163193D01*
X72532419Y-126160000D01*
X86467581Y-126160000D01*
X86500000Y-126163193D01*
X86532419Y-126160000D01*
X86629383Y-126150450D01*
X86753793Y-126112710D01*
X86868450Y-126051425D01*
X86968948Y-125968948D01*
X87051425Y-125868450D01*
X87112710Y-125753793D01*
X87150450Y-125629383D01*
X87163193Y-125500000D01*
X87160000Y-125467581D01*
X87160000Y-115500000D01*
X90836807Y-115500000D01*
X90840001Y-115532429D01*
X90840000Y-129467581D01*
X90836807Y-129500000D01*
X90849550Y-129629383D01*
X90887290Y-129753793D01*
X90948575Y-129868450D01*
X91009918Y-129943196D01*
X91031052Y-129968948D01*
X91131550Y-130051425D01*
X91246207Y-130112710D01*
X91370617Y-130150450D01*
X91500000Y-130163193D01*
X91532419Y-130160000D01*
X105467581Y-130160000D01*
X105500000Y-130163193D01*
X105532419Y-130160000D01*
X105629383Y-130150450D01*
X105753793Y-130112710D01*
X105868450Y-130051425D01*
X105968948Y-129968948D01*
X106051425Y-129868450D01*
X106112710Y-129753793D01*
X106150450Y-129629383D01*
X106163193Y-129500000D01*
X106160000Y-129467581D01*
X106160000Y-115532419D01*
X106163193Y-115500000D01*
X106150450Y-115370617D01*
X106112710Y-115246207D01*
X106051425Y-115131550D01*
X105968948Y-115031052D01*
X105868450Y-114948575D01*
X105753793Y-114887290D01*
X105629383Y-114849550D01*
X105532419Y-114840000D01*
X105500000Y-114836807D01*
X105467581Y-114840000D01*
X91532419Y-114840000D01*
X91500000Y-114836807D01*
X91467581Y-114840000D01*
X91370617Y-114849550D01*
X91246207Y-114887290D01*
X91131550Y-114948575D01*
X91031052Y-115031052D01*
X90948575Y-115131550D01*
X90887290Y-115246207D01*
X90849550Y-115370617D01*
X90836807Y-115500000D01*
X87160000Y-115500000D01*
X87160000Y-111532419D01*
X87163193Y-111500000D01*
X87150450Y-111370617D01*
X87112710Y-111246207D01*
X87051425Y-111131550D01*
X86968948Y-111031052D01*
X86868450Y-110948575D01*
X86753793Y-110887290D01*
X86629383Y-110849550D01*
X86532419Y-110840000D01*
X86500000Y-110836807D01*
X86467581Y-110840000D01*
X72532419Y-110840000D01*
X72500000Y-110836807D01*
X72467581Y-110840000D01*
X72370617Y-110849550D01*
X72246207Y-110887290D01*
X72131550Y-110948575D01*
X72031052Y-111031052D01*
X71948575Y-111131550D01*
X71887290Y-111246207D01*
X71849550Y-111370617D01*
X71836807Y-111500000D01*
X70660000Y-111500000D01*
X70660000Y-92500000D01*
X71836807Y-92500000D01*
X71840001Y-92532429D01*
X71840000Y-106467581D01*
X71836807Y-106500000D01*
X71849550Y-106629383D01*
X71887290Y-106753793D01*
X71948575Y-106868450D01*
X72031052Y-106968948D01*
X72131550Y-107051425D01*
X72246207Y-107112710D01*
X72370617Y-107150450D01*
X72500000Y-107163193D01*
X72532419Y-107160000D01*
X86467581Y-107160000D01*
X86500000Y-107163193D01*
X86532419Y-107160000D01*
X86629383Y-107150450D01*
X86753793Y-107112710D01*
X86868450Y-107051425D01*
X86968948Y-106968948D01*
X87051425Y-106868450D01*
X87112710Y-106753793D01*
X87150450Y-106629383D01*
X87163193Y-106500000D01*
X87160000Y-106467581D01*
X87160000Y-96500000D01*
X90836807Y-96500000D01*
X90840001Y-96532429D01*
X90840000Y-110467581D01*
X90836807Y-110500000D01*
X90849550Y-110629383D01*
X90887290Y-110753793D01*
X90948575Y-110868450D01*
X90964037Y-110887290D01*
X91031052Y-110968948D01*
X91131550Y-111051425D01*
X91246207Y-111112710D01*
X91370617Y-111150450D01*
X91500000Y-111163193D01*
X91532419Y-111160000D01*
X105467581Y-111160000D01*
X105500000Y-111163193D01*
X105532419Y-111160000D01*
X105629383Y-111150450D01*
X105753793Y-111112710D01*
X105868450Y-111051425D01*
X105968948Y-110968948D01*
X106051425Y-110868450D01*
X106112710Y-110753793D01*
X106150450Y-110629383D01*
X106163193Y-110500000D01*
X109836807Y-110500000D01*
X109840001Y-110532429D01*
X109840000Y-124467581D01*
X109836807Y-124500000D01*
X109849550Y-124629383D01*
X109887290Y-124753793D01*
X109948575Y-124868450D01*
X109964037Y-124887290D01*
X110031052Y-124968948D01*
X110131550Y-125051425D01*
X110246207Y-125112710D01*
X110370617Y-125150450D01*
X110500000Y-125163193D01*
X110532419Y-125160000D01*
X124467581Y-125160000D01*
X124500000Y-125163193D01*
X124532419Y-125160000D01*
X124629383Y-125150450D01*
X124753793Y-125112710D01*
X124868450Y-125051425D01*
X124968948Y-124968948D01*
X125051425Y-124868450D01*
X125112710Y-124753793D01*
X125150450Y-124629383D01*
X125163193Y-124500000D01*
X125160000Y-124467581D01*
X125160000Y-117500000D01*
X128836807Y-117500000D01*
X128840001Y-117532429D01*
X128840000Y-131467581D01*
X128836807Y-131500000D01*
X128849550Y-131629383D01*
X128887290Y-131753793D01*
X128948575Y-131868450D01*
X128993122Y-131922730D01*
X129031052Y-131968948D01*
X129131550Y-132051425D01*
X129246207Y-132112710D01*
X129370617Y-132150450D01*
X129500000Y-132163193D01*
X129532419Y-132160000D01*
X143467581Y-132160000D01*
X143500000Y-132163193D01*
X143532419Y-132160000D01*
X143629383Y-132150450D01*
X143753793Y-132112710D01*
X143868450Y-132051425D01*
X143968948Y-131968948D01*
X144051425Y-131868450D01*
X144112710Y-131753793D01*
X144150450Y-131629383D01*
X144163193Y-131500000D01*
X144160000Y-131467581D01*
X144160000Y-118500000D01*
X147836807Y-118500000D01*
X147840001Y-118532429D01*
X147840000Y-132467581D01*
X147836807Y-132500000D01*
X147849550Y-132629383D01*
X147887290Y-132753793D01*
X147948575Y-132868450D01*
X148031052Y-132968948D01*
X148131550Y-133051425D01*
X148246207Y-133112710D01*
X148370617Y-133150450D01*
X148500000Y-133163193D01*
X148532419Y-133160000D01*
X162467581Y-133160000D01*
X162500000Y-133163193D01*
X162532419Y-133160000D01*
X162629383Y-133150450D01*
X162753793Y-133112710D01*
X162868450Y-133051425D01*
X162968948Y-132968948D01*
X163051425Y-132868450D01*
X163112710Y-132753793D01*
X163113762Y-132750324D01*
X163465000Y-132750324D01*
X163465000Y-133249676D01*
X163562418Y-133739432D01*
X163753512Y-134200773D01*
X164030937Y-134615968D01*
X164384032Y-134969063D01*
X164799227Y-135246488D01*
X165260568Y-135437582D01*
X165750324Y-135535000D01*
X166249676Y-135535000D01*
X166739432Y-135437582D01*
X167200773Y-135246488D01*
X167615968Y-134969063D01*
X167969063Y-134615968D01*
X168246488Y-134200773D01*
X168437582Y-133739432D01*
X168535000Y-133249676D01*
X168535000Y-132750324D01*
X168437582Y-132260568D01*
X168246488Y-131799227D01*
X167969063Y-131384032D01*
X167615968Y-131030937D01*
X167200773Y-130753512D01*
X166739432Y-130562418D01*
X166249676Y-130465000D01*
X165750324Y-130465000D01*
X165260568Y-130562418D01*
X164799227Y-130753512D01*
X164384032Y-131030937D01*
X164030937Y-131384032D01*
X163753512Y-131799227D01*
X163562418Y-132260568D01*
X163465000Y-132750324D01*
X163113762Y-132750324D01*
X163150450Y-132629383D01*
X163163193Y-132500000D01*
X163160000Y-132467581D01*
X163160000Y-118532419D01*
X163163193Y-118500000D01*
X163150450Y-118370617D01*
X163112710Y-118246207D01*
X163051425Y-118131550D01*
X162968948Y-118031052D01*
X162868450Y-117948575D01*
X162753793Y-117887290D01*
X162629383Y-117849550D01*
X162532419Y-117840000D01*
X162500000Y-117836807D01*
X162467581Y-117840000D01*
X148532419Y-117840000D01*
X148500000Y-117836807D01*
X148467581Y-117840000D01*
X148370617Y-117849550D01*
X148246207Y-117887290D01*
X148131550Y-117948575D01*
X148031052Y-118031052D01*
X147948575Y-118131550D01*
X147887290Y-118246207D01*
X147849550Y-118370617D01*
X147836807Y-118500000D01*
X144160000Y-118500000D01*
X144160000Y-117532419D01*
X144163193Y-117500000D01*
X144150450Y-117370617D01*
X144112710Y-117246207D01*
X144051425Y-117131550D01*
X143968948Y-117031052D01*
X143868450Y-116948575D01*
X143753793Y-116887290D01*
X143629383Y-116849550D01*
X143532419Y-116840000D01*
X143500000Y-116836807D01*
X143467581Y-116840000D01*
X129532419Y-116840000D01*
X129500000Y-116836807D01*
X129467581Y-116840000D01*
X129370617Y-116849550D01*
X129246207Y-116887290D01*
X129131550Y-116948575D01*
X129031052Y-117031052D01*
X128948575Y-117131550D01*
X128887290Y-117246207D01*
X128849550Y-117370617D01*
X128836807Y-117500000D01*
X125160000Y-117500000D01*
X125160000Y-110532418D01*
X125163193Y-110500000D01*
X125150450Y-110370617D01*
X125112710Y-110246207D01*
X125051425Y-110131550D01*
X124968948Y-110031052D01*
X124868450Y-109948575D01*
X124753793Y-109887290D01*
X124629383Y-109849550D01*
X124532419Y-109840000D01*
X124500000Y-109836807D01*
X124467581Y-109840000D01*
X110532419Y-109840000D01*
X110500000Y-109836807D01*
X110467581Y-109840000D01*
X110370617Y-109849550D01*
X110246207Y-109887290D01*
X110131550Y-109948575D01*
X110031052Y-110031052D01*
X109948575Y-110131550D01*
X109887290Y-110246207D01*
X109849550Y-110370617D01*
X109836807Y-110500000D01*
X106163193Y-110500000D01*
X106160000Y-110467581D01*
X106160000Y-96532419D01*
X106163193Y-96500000D01*
X106150450Y-96370617D01*
X106112710Y-96246207D01*
X106051425Y-96131550D01*
X105968948Y-96031052D01*
X105868450Y-95948575D01*
X105753793Y-95887290D01*
X105629383Y-95849550D01*
X105532419Y-95840000D01*
X105500000Y-95836807D01*
X105467581Y-95840000D01*
X91532419Y-95840000D01*
X91500000Y-95836807D01*
X91467581Y-95840000D01*
X91370617Y-95849550D01*
X91246207Y-95887290D01*
X91131550Y-95948575D01*
X91031052Y-96031052D01*
X90948575Y-96131550D01*
X90887290Y-96246207D01*
X90849550Y-96370617D01*
X90836807Y-96500000D01*
X87160000Y-96500000D01*
X87160000Y-92532419D01*
X87163193Y-92500000D01*
X87150450Y-92370617D01*
X87112710Y-92246207D01*
X87051425Y-92131550D01*
X86968948Y-92031052D01*
X86868450Y-91948575D01*
X86753793Y-91887290D01*
X86629383Y-91849550D01*
X86532419Y-91840000D01*
X86500000Y-91836807D01*
X86467581Y-91840000D01*
X72532419Y-91840000D01*
X72500000Y-91836807D01*
X72467581Y-91840000D01*
X72370617Y-91849550D01*
X72246207Y-91887290D01*
X72131550Y-91948575D01*
X72031052Y-92031052D01*
X71948575Y-92131550D01*
X71887290Y-92246207D01*
X71849550Y-92370617D01*
X71836807Y-92500000D01*
X70660000Y-92500000D01*
X70660000Y-73500000D01*
X71836807Y-73500000D01*
X71840001Y-73532429D01*
X71840000Y-87467581D01*
X71836807Y-87500000D01*
X71849550Y-87629383D01*
X71887290Y-87753793D01*
X71948575Y-87868450D01*
X71998694Y-87929520D01*
X72031052Y-87968948D01*
X72131550Y-88051425D01*
X72246207Y-88112710D01*
X72370617Y-88150450D01*
X72500000Y-88163193D01*
X72532419Y-88160000D01*
X86467581Y-88160000D01*
X86500000Y-88163193D01*
X86532419Y-88160000D01*
X86629383Y-88150450D01*
X86753793Y-88112710D01*
X86868450Y-88051425D01*
X86968948Y-87968948D01*
X87051425Y-87868450D01*
X87112710Y-87753793D01*
X87150450Y-87629383D01*
X87163193Y-87500000D01*
X87160000Y-87467581D01*
X87160000Y-77500000D01*
X90836807Y-77500000D01*
X90840001Y-77532429D01*
X90840000Y-91467581D01*
X90836807Y-91500000D01*
X90849550Y-91629383D01*
X90887290Y-91753793D01*
X90948575Y-91868450D01*
X91014332Y-91948575D01*
X91031052Y-91968948D01*
X91131550Y-92051425D01*
X91246207Y-92112710D01*
X91370617Y-92150450D01*
X91500000Y-92163193D01*
X91532419Y-92160000D01*
X105467581Y-92160000D01*
X105500000Y-92163193D01*
X105532419Y-92160000D01*
X105629383Y-92150450D01*
X105753793Y-92112710D01*
X105868450Y-92051425D01*
X105968948Y-91968948D01*
X106051425Y-91868450D01*
X106112710Y-91753793D01*
X106150450Y-91629383D01*
X106163193Y-91500000D01*
X106160000Y-91467581D01*
X106160000Y-77532419D01*
X106163193Y-77500000D01*
X106150450Y-77370617D01*
X106112710Y-77246207D01*
X106051425Y-77131550D01*
X105968948Y-77031052D01*
X105868450Y-76948575D01*
X105753793Y-76887290D01*
X105629383Y-76849550D01*
X105532419Y-76840000D01*
X105500000Y-76836807D01*
X105467581Y-76840000D01*
X91532419Y-76840000D01*
X91500000Y-76836807D01*
X91467581Y-76840000D01*
X91370617Y-76849550D01*
X91246207Y-76887290D01*
X91131550Y-76948575D01*
X91031052Y-77031052D01*
X90948575Y-77131550D01*
X90887290Y-77246207D01*
X90849550Y-77370617D01*
X90836807Y-77500000D01*
X87160000Y-77500000D01*
X87160000Y-73750324D01*
X88465000Y-73750324D01*
X88465000Y-74249676D01*
X88562418Y-74739432D01*
X88753512Y-75200773D01*
X89030937Y-75615968D01*
X89384032Y-75969063D01*
X89799227Y-76246488D01*
X90260568Y-76437582D01*
X90750324Y-76535000D01*
X91249676Y-76535000D01*
X91739432Y-76437582D01*
X92200773Y-76246488D01*
X92615968Y-75969063D01*
X92969063Y-75615968D01*
X93246488Y-75200773D01*
X93378359Y-74882408D01*
X108444400Y-74882408D01*
X108444400Y-75157592D01*
X108498086Y-75427490D01*
X108603395Y-75681727D01*
X108756280Y-75910535D01*
X108950865Y-76105120D01*
X109179673Y-76258005D01*
X109256915Y-76290000D01*
X109179673Y-76321995D01*
X108950865Y-76474880D01*
X108756280Y-76669465D01*
X108603395Y-76898273D01*
X108498086Y-77152510D01*
X108444400Y-77422408D01*
X108444400Y-77697592D01*
X108498086Y-77967490D01*
X108603395Y-78221727D01*
X108756280Y-78450535D01*
X108950865Y-78645120D01*
X109179673Y-78798005D01*
X109256915Y-78830000D01*
X109179673Y-78861995D01*
X108950865Y-79014880D01*
X108756280Y-79209465D01*
X108603395Y-79438273D01*
X108498086Y-79692510D01*
X108444400Y-79962408D01*
X108444400Y-80237592D01*
X108498086Y-80507490D01*
X108603395Y-80761727D01*
X108756280Y-80990535D01*
X108950865Y-81185120D01*
X109179673Y-81338005D01*
X109256915Y-81370000D01*
X109179673Y-81401995D01*
X108950865Y-81554880D01*
X108756280Y-81749465D01*
X108603395Y-81978273D01*
X108498086Y-82232510D01*
X108444400Y-82502408D01*
X108444400Y-82777592D01*
X108498086Y-83047490D01*
X108603395Y-83301727D01*
X108756280Y-83530535D01*
X108950865Y-83725120D01*
X109179673Y-83878005D01*
X109256915Y-83910000D01*
X109179673Y-83941995D01*
X108950865Y-84094880D01*
X108756280Y-84289465D01*
X108603395Y-84518273D01*
X108498086Y-84772510D01*
X108444400Y-85042408D01*
X108444400Y-85317592D01*
X108498086Y-85587490D01*
X108603395Y-85841727D01*
X108756280Y-86070535D01*
X108950865Y-86265120D01*
X109179673Y-86418005D01*
X109256915Y-86450000D01*
X109179673Y-86481995D01*
X108950865Y-86634880D01*
X108756280Y-86829465D01*
X108603395Y-87058273D01*
X108498086Y-87312510D01*
X108444400Y-87582408D01*
X108444400Y-87857592D01*
X108498086Y-88127490D01*
X108603395Y-88381727D01*
X108756280Y-88610535D01*
X108950865Y-88805120D01*
X109179673Y-88958005D01*
X109256915Y-88990000D01*
X109179673Y-89021995D01*
X108950865Y-89174880D01*
X108756280Y-89369465D01*
X108603395Y-89598273D01*
X108498086Y-89852510D01*
X108444400Y-90122408D01*
X108444400Y-90397592D01*
X108498086Y-90667490D01*
X108603395Y-90921727D01*
X108756280Y-91150535D01*
X108950865Y-91345120D01*
X109179673Y-91498005D01*
X109256915Y-91530000D01*
X109179673Y-91561995D01*
X108950865Y-91714880D01*
X108756280Y-91909465D01*
X108603395Y-92138273D01*
X108498086Y-92392510D01*
X108444400Y-92662408D01*
X108444400Y-92937592D01*
X108498086Y-93207490D01*
X108603395Y-93461727D01*
X108756280Y-93690535D01*
X108950865Y-93885120D01*
X109179673Y-94038005D01*
X109256915Y-94070000D01*
X109179673Y-94101995D01*
X108950865Y-94254880D01*
X108756280Y-94449465D01*
X108603395Y-94678273D01*
X108498086Y-94932510D01*
X108444400Y-95202408D01*
X108444400Y-95477592D01*
X108498086Y-95747490D01*
X108603395Y-96001727D01*
X108756280Y-96230535D01*
X108950865Y-96425120D01*
X109179673Y-96578005D01*
X109256915Y-96610000D01*
X109179673Y-96641995D01*
X108950865Y-96794880D01*
X108756280Y-96989465D01*
X108603395Y-97218273D01*
X108498086Y-97472510D01*
X108444400Y-97742408D01*
X108444400Y-98017592D01*
X108498086Y-98287490D01*
X108603395Y-98541727D01*
X108756280Y-98770535D01*
X108950865Y-98965120D01*
X109179673Y-99118005D01*
X109256915Y-99150000D01*
X109179673Y-99181995D01*
X108950865Y-99334880D01*
X108756280Y-99529465D01*
X108603395Y-99758273D01*
X108498086Y-100012510D01*
X108444400Y-100282408D01*
X108444400Y-100557592D01*
X108498086Y-100827490D01*
X108603395Y-101081727D01*
X108756280Y-101310535D01*
X108950865Y-101505120D01*
X109179673Y-101658005D01*
X109256915Y-101690000D01*
X109179673Y-101721995D01*
X108950865Y-101874880D01*
X108756280Y-102069465D01*
X108603395Y-102298273D01*
X108498086Y-102552510D01*
X108444400Y-102822408D01*
X108444400Y-103097592D01*
X108498086Y-103367490D01*
X108603395Y-103621727D01*
X108756280Y-103850535D01*
X108950865Y-104045120D01*
X109179673Y-104198005D01*
X109433910Y-104303314D01*
X109703808Y-104357000D01*
X109840000Y-104357000D01*
X109840000Y-105467581D01*
X109836807Y-105500000D01*
X109849550Y-105629383D01*
X109887290Y-105753793D01*
X109948575Y-105868450D01*
X109964037Y-105887290D01*
X110031052Y-105968948D01*
X110131550Y-106051425D01*
X110246207Y-106112710D01*
X110370617Y-106150450D01*
X110500000Y-106163193D01*
X110532419Y-106160000D01*
X124467581Y-106160000D01*
X124500000Y-106163193D01*
X124532419Y-106160000D01*
X124629383Y-106150450D01*
X124753793Y-106112710D01*
X124868450Y-106051425D01*
X124968948Y-105968948D01*
X125051425Y-105868450D01*
X125112710Y-105753793D01*
X125150450Y-105629383D01*
X125163193Y-105500000D01*
X125160000Y-105467581D01*
X125160000Y-104357000D01*
X125198992Y-104357000D01*
X125468890Y-104303314D01*
X125723127Y-104198005D01*
X125951935Y-104045120D01*
X126146520Y-103850535D01*
X126299405Y-103621727D01*
X126404714Y-103367490D01*
X126458400Y-103097592D01*
X126458400Y-102822408D01*
X126404714Y-102552510D01*
X126299405Y-102298273D01*
X126146520Y-102069465D01*
X125951935Y-101874880D01*
X125723127Y-101721995D01*
X125645885Y-101690000D01*
X125723127Y-101658005D01*
X125951935Y-101505120D01*
X126146520Y-101310535D01*
X126299405Y-101081727D01*
X126404714Y-100827490D01*
X126458400Y-100557592D01*
X126458400Y-100282408D01*
X126404714Y-100012510D01*
X126299405Y-99758273D01*
X126146520Y-99529465D01*
X125951935Y-99334880D01*
X125723127Y-99181995D01*
X125645885Y-99150000D01*
X125723127Y-99118005D01*
X125951935Y-98965120D01*
X126146520Y-98770535D01*
X126299405Y-98541727D01*
X126404714Y-98287490D01*
X126458400Y-98017592D01*
X126458400Y-97742408D01*
X126404714Y-97472510D01*
X126299405Y-97218273D01*
X126146520Y-96989465D01*
X125951935Y-96794880D01*
X125723127Y-96641995D01*
X125645885Y-96610000D01*
X125723127Y-96578005D01*
X125951935Y-96425120D01*
X126146520Y-96230535D01*
X126299405Y-96001727D01*
X126404714Y-95747490D01*
X126458400Y-95477592D01*
X126458400Y-95202408D01*
X126404714Y-94932510D01*
X126299405Y-94678273D01*
X126146520Y-94449465D01*
X125951935Y-94254880D01*
X125723127Y-94101995D01*
X125645885Y-94070000D01*
X125723127Y-94038005D01*
X125951935Y-93885120D01*
X126146520Y-93690535D01*
X126299405Y-93461727D01*
X126404714Y-93207490D01*
X126458400Y-92937592D01*
X126458400Y-92662408D01*
X126404714Y-92392510D01*
X126299405Y-92138273D01*
X126146520Y-91909465D01*
X125951935Y-91714880D01*
X125723127Y-91561995D01*
X125645885Y-91530000D01*
X125723127Y-91498005D01*
X125951935Y-91345120D01*
X126146520Y-91150535D01*
X126299405Y-90921727D01*
X126404714Y-90667490D01*
X126458400Y-90397592D01*
X126458400Y-90122408D01*
X126404714Y-89852510D01*
X126299405Y-89598273D01*
X126146520Y-89369465D01*
X125951935Y-89174880D01*
X125723127Y-89021995D01*
X125645885Y-88990000D01*
X125723127Y-88958005D01*
X125951935Y-88805120D01*
X126146520Y-88610535D01*
X126299405Y-88381727D01*
X126404714Y-88127490D01*
X126458400Y-87857592D01*
X126458400Y-87582408D01*
X126404714Y-87312510D01*
X126299405Y-87058273D01*
X126146520Y-86829465D01*
X125951935Y-86634880D01*
X125723127Y-86481995D01*
X125645885Y-86450000D01*
X125723127Y-86418005D01*
X125951935Y-86265120D01*
X126146520Y-86070535D01*
X126299405Y-85841727D01*
X126404714Y-85587490D01*
X126458400Y-85317592D01*
X126458400Y-85042408D01*
X126404714Y-84772510D01*
X126299405Y-84518273D01*
X126146520Y-84289465D01*
X125951935Y-84094880D01*
X125723127Y-83941995D01*
X125651457Y-83912308D01*
X125664423Y-83907636D01*
X125780380Y-83845656D01*
X125847360Y-83605565D01*
X125160000Y-82918205D01*
X125160000Y-82640000D01*
X125241005Y-82640000D01*
X126026965Y-83425960D01*
X126267056Y-83358980D01*
X126384156Y-83109952D01*
X126450423Y-82842865D01*
X126463310Y-82567983D01*
X126422322Y-82295867D01*
X126329036Y-82036977D01*
X126267056Y-81921020D01*
X126026965Y-81854040D01*
X125241005Y-82640000D01*
X125160000Y-82640000D01*
X125160000Y-82361795D01*
X125847360Y-81674435D01*
X125780380Y-81434344D01*
X125649756Y-81372921D01*
X125664423Y-81367636D01*
X125780380Y-81305656D01*
X125847360Y-81065565D01*
X125160000Y-80378205D01*
X125160000Y-80100000D01*
X125241005Y-80100000D01*
X126026965Y-80885960D01*
X126267056Y-80818980D01*
X126384156Y-80569952D01*
X126450423Y-80302865D01*
X126463310Y-80027983D01*
X126422322Y-79755867D01*
X126329036Y-79496977D01*
X126267056Y-79381020D01*
X126026965Y-79314040D01*
X125241005Y-80100000D01*
X125160000Y-80100000D01*
X125160000Y-79821795D01*
X125847360Y-79134435D01*
X125780380Y-78894344D01*
X125644640Y-78830515D01*
X125723127Y-78798005D01*
X125951935Y-78645120D01*
X126146520Y-78450535D01*
X126299405Y-78221727D01*
X126404714Y-77967490D01*
X126458400Y-77697592D01*
X126458400Y-77422408D01*
X126404714Y-77152510D01*
X126299405Y-76898273D01*
X126146520Y-76669465D01*
X125951935Y-76474880D01*
X125723127Y-76321995D01*
X125645885Y-76290000D01*
X125723127Y-76258005D01*
X125951935Y-76105120D01*
X126146520Y-75910535D01*
X126299405Y-75681727D01*
X126404714Y-75427490D01*
X126458400Y-75157592D01*
X126458400Y-74882408D01*
X127541600Y-74882408D01*
X127541600Y-75157592D01*
X127595286Y-75427490D01*
X127700595Y-75681727D01*
X127853480Y-75910535D01*
X128048065Y-76105120D01*
X128276873Y-76258005D01*
X128354115Y-76290000D01*
X128276873Y-76321995D01*
X128048065Y-76474880D01*
X127853480Y-76669465D01*
X127700595Y-76898273D01*
X127595286Y-77152510D01*
X127541600Y-77422408D01*
X127541600Y-77697592D01*
X127595286Y-77967490D01*
X127700595Y-78221727D01*
X127853480Y-78450535D01*
X128048065Y-78645120D01*
X128276873Y-78798005D01*
X128354115Y-78830000D01*
X128276873Y-78861995D01*
X128048065Y-79014880D01*
X127853480Y-79209465D01*
X127700595Y-79438273D01*
X127595286Y-79692510D01*
X127541600Y-79962408D01*
X127541600Y-80237592D01*
X127595286Y-80507490D01*
X127700595Y-80761727D01*
X127853480Y-80990535D01*
X128048065Y-81185120D01*
X128276873Y-81338005D01*
X128354115Y-81370000D01*
X128276873Y-81401995D01*
X128048065Y-81554880D01*
X127853480Y-81749465D01*
X127700595Y-81978273D01*
X127595286Y-82232510D01*
X127541600Y-82502408D01*
X127541600Y-82777592D01*
X127595286Y-83047490D01*
X127700595Y-83301727D01*
X127853480Y-83530535D01*
X128048065Y-83725120D01*
X128276873Y-83878005D01*
X128354115Y-83910000D01*
X128276873Y-83941995D01*
X128048065Y-84094880D01*
X127853480Y-84289465D01*
X127700595Y-84518273D01*
X127595286Y-84772510D01*
X127541600Y-85042408D01*
X127541600Y-85317592D01*
X127595286Y-85587490D01*
X127700595Y-85841727D01*
X127853480Y-86070535D01*
X128048065Y-86265120D01*
X128276873Y-86418005D01*
X128354115Y-86450000D01*
X128276873Y-86481995D01*
X128048065Y-86634880D01*
X127853480Y-86829465D01*
X127700595Y-87058273D01*
X127595286Y-87312510D01*
X127541600Y-87582408D01*
X127541600Y-87857592D01*
X127595286Y-88127490D01*
X127700595Y-88381727D01*
X127853480Y-88610535D01*
X128048065Y-88805120D01*
X128276873Y-88958005D01*
X128354115Y-88990000D01*
X128276873Y-89021995D01*
X128048065Y-89174880D01*
X127853480Y-89369465D01*
X127700595Y-89598273D01*
X127595286Y-89852510D01*
X127541600Y-90122408D01*
X127541600Y-90397592D01*
X127595286Y-90667490D01*
X127700595Y-90921727D01*
X127853480Y-91150535D01*
X128048065Y-91345120D01*
X128276873Y-91498005D01*
X128354115Y-91530000D01*
X128276873Y-91561995D01*
X128048065Y-91714880D01*
X127853480Y-91909465D01*
X127700595Y-92138273D01*
X127595286Y-92392510D01*
X127541600Y-92662408D01*
X127541600Y-92937592D01*
X127595286Y-93207490D01*
X127700595Y-93461727D01*
X127853480Y-93690535D01*
X128048065Y-93885120D01*
X128276873Y-94038005D01*
X128354115Y-94070000D01*
X128276873Y-94101995D01*
X128048065Y-94254880D01*
X127853480Y-94449465D01*
X127700595Y-94678273D01*
X127595286Y-94932510D01*
X127541600Y-95202408D01*
X127541600Y-95477592D01*
X127595286Y-95747490D01*
X127700595Y-96001727D01*
X127853480Y-96230535D01*
X128048065Y-96425120D01*
X128276873Y-96578005D01*
X128354115Y-96610000D01*
X128276873Y-96641995D01*
X128048065Y-96794880D01*
X127853480Y-96989465D01*
X127700595Y-97218273D01*
X127595286Y-97472510D01*
X127541600Y-97742408D01*
X127541600Y-98017592D01*
X127595286Y-98287490D01*
X127700595Y-98541727D01*
X127853480Y-98770535D01*
X128048065Y-98965120D01*
X128276873Y-99118005D01*
X128354115Y-99150000D01*
X128276873Y-99181995D01*
X128048065Y-99334880D01*
X127853480Y-99529465D01*
X127700595Y-99758273D01*
X127595286Y-100012510D01*
X127541600Y-100282408D01*
X127541600Y-100557592D01*
X127595286Y-100827490D01*
X127700595Y-101081727D01*
X127853480Y-101310535D01*
X128048065Y-101505120D01*
X128276873Y-101658005D01*
X128354115Y-101690000D01*
X128276873Y-101721995D01*
X128048065Y-101874880D01*
X127853480Y-102069465D01*
X127700595Y-102298273D01*
X127595286Y-102552510D01*
X127541600Y-102822408D01*
X127541600Y-103097592D01*
X127595286Y-103367490D01*
X127700595Y-103621727D01*
X127853480Y-103850535D01*
X128048065Y-104045120D01*
X128276873Y-104198005D01*
X128531110Y-104303314D01*
X128801008Y-104357000D01*
X128840001Y-104357000D01*
X128840000Y-112467581D01*
X128836807Y-112500000D01*
X128849550Y-112629383D01*
X128887290Y-112753793D01*
X128948575Y-112868450D01*
X128964037Y-112887290D01*
X129031052Y-112968948D01*
X129131550Y-113051425D01*
X129246207Y-113112710D01*
X129370617Y-113150450D01*
X129500000Y-113163193D01*
X129532419Y-113160000D01*
X143467581Y-113160000D01*
X143500000Y-113163193D01*
X143532419Y-113160000D01*
X143629383Y-113150450D01*
X143753793Y-113112710D01*
X143868450Y-113051425D01*
X143968948Y-112968948D01*
X144051425Y-112868450D01*
X144112710Y-112753793D01*
X144150450Y-112629383D01*
X144163193Y-112500000D01*
X144160000Y-112467581D01*
X144160000Y-104357000D01*
X144296192Y-104357000D01*
X144566090Y-104303314D01*
X144820327Y-104198005D01*
X145049135Y-104045120D01*
X145243720Y-103850535D01*
X145396605Y-103621727D01*
X145501914Y-103367490D01*
X145555600Y-103097592D01*
X145555600Y-102822408D01*
X145501914Y-102552510D01*
X145396605Y-102298273D01*
X145243720Y-102069465D01*
X145049135Y-101874880D01*
X144820327Y-101721995D01*
X144743085Y-101690000D01*
X144820327Y-101658005D01*
X145049135Y-101505120D01*
X145243720Y-101310535D01*
X145396605Y-101081727D01*
X145501914Y-100827490D01*
X145555600Y-100557592D01*
X145555600Y-100282408D01*
X145501914Y-100012510D01*
X145396605Y-99758273D01*
X145243720Y-99529465D01*
X145214255Y-99500000D01*
X147836807Y-99500000D01*
X147840001Y-99532429D01*
X147840000Y-113467581D01*
X147836807Y-113500000D01*
X147849550Y-113629383D01*
X147887290Y-113753793D01*
X147948575Y-113868450D01*
X148031052Y-113968948D01*
X148131550Y-114051425D01*
X148246207Y-114112710D01*
X148370617Y-114150450D01*
X148500000Y-114163193D01*
X148532419Y-114160000D01*
X162467581Y-114160000D01*
X162500000Y-114163193D01*
X162532419Y-114160000D01*
X162629383Y-114150450D01*
X162753793Y-114112710D01*
X162868450Y-114051425D01*
X162968948Y-113968948D01*
X163051425Y-113868450D01*
X163112710Y-113753793D01*
X163150450Y-113629383D01*
X163163193Y-113500000D01*
X163160000Y-113467581D01*
X163160000Y-99532419D01*
X163163193Y-99500000D01*
X163150450Y-99370617D01*
X163112710Y-99246207D01*
X163051425Y-99131550D01*
X162968948Y-99031052D01*
X162868450Y-98948575D01*
X162753793Y-98887290D01*
X162629383Y-98849550D01*
X162532419Y-98840000D01*
X162500000Y-98836807D01*
X162467581Y-98840000D01*
X148532419Y-98840000D01*
X148500000Y-98836807D01*
X148467581Y-98840000D01*
X148370617Y-98849550D01*
X148246207Y-98887290D01*
X148131550Y-98948575D01*
X148031052Y-99031052D01*
X147948575Y-99131550D01*
X147887290Y-99246207D01*
X147849550Y-99370617D01*
X147836807Y-99500000D01*
X145214255Y-99500000D01*
X145049135Y-99334880D01*
X144820327Y-99181995D01*
X144743085Y-99150000D01*
X144820327Y-99118005D01*
X145049135Y-98965120D01*
X145243720Y-98770535D01*
X145396605Y-98541727D01*
X145501914Y-98287490D01*
X145555600Y-98017592D01*
X145555600Y-97742408D01*
X145501914Y-97472510D01*
X145396605Y-97218273D01*
X145243720Y-96989465D01*
X145049135Y-96794880D01*
X144820327Y-96641995D01*
X144743085Y-96610000D01*
X144820327Y-96578005D01*
X145049135Y-96425120D01*
X145243720Y-96230535D01*
X145396605Y-96001727D01*
X145501914Y-95747490D01*
X145555600Y-95477592D01*
X145555600Y-95202408D01*
X145501914Y-94932510D01*
X145396605Y-94678273D01*
X145243720Y-94449465D01*
X145049135Y-94254880D01*
X144820327Y-94101995D01*
X144743085Y-94070000D01*
X144820327Y-94038005D01*
X145049135Y-93885120D01*
X145243720Y-93690535D01*
X145396605Y-93461727D01*
X145501914Y-93207490D01*
X145555600Y-92937592D01*
X145555600Y-92662408D01*
X145501914Y-92392510D01*
X145396605Y-92138273D01*
X145243720Y-91909465D01*
X145049135Y-91714880D01*
X144820327Y-91561995D01*
X144743085Y-91530000D01*
X144820327Y-91498005D01*
X145049135Y-91345120D01*
X145243720Y-91150535D01*
X145396605Y-90921727D01*
X145501914Y-90667490D01*
X145555600Y-90397592D01*
X145555600Y-90122408D01*
X145501914Y-89852510D01*
X145396605Y-89598273D01*
X145243720Y-89369465D01*
X145049135Y-89174880D01*
X144820327Y-89021995D01*
X144743085Y-88990000D01*
X144820327Y-88958005D01*
X145049135Y-88805120D01*
X145243720Y-88610535D01*
X145396605Y-88381727D01*
X145501914Y-88127490D01*
X145555600Y-87857592D01*
X145555600Y-87582408D01*
X145501914Y-87312510D01*
X145396605Y-87058273D01*
X145243720Y-86829465D01*
X145049135Y-86634880D01*
X144820327Y-86481995D01*
X144743085Y-86450000D01*
X144820327Y-86418005D01*
X145049135Y-86265120D01*
X145243720Y-86070535D01*
X145396605Y-85841727D01*
X145501914Y-85587490D01*
X145555600Y-85317592D01*
X145555600Y-85042408D01*
X145501914Y-84772510D01*
X145396605Y-84518273D01*
X145243720Y-84289465D01*
X145049135Y-84094880D01*
X144820327Y-83941995D01*
X144743085Y-83910000D01*
X144820327Y-83878005D01*
X145049135Y-83725120D01*
X145243720Y-83530535D01*
X145396605Y-83301727D01*
X145501914Y-83047490D01*
X145555600Y-82777592D01*
X145555600Y-82502408D01*
X145501914Y-82232510D01*
X145396605Y-81978273D01*
X145243720Y-81749465D01*
X145049135Y-81554880D01*
X144820327Y-81401995D01*
X144743085Y-81370000D01*
X144820327Y-81338005D01*
X145049135Y-81185120D01*
X145243720Y-80990535D01*
X145396605Y-80761727D01*
X145501914Y-80507490D01*
X145503403Y-80500000D01*
X147836807Y-80500000D01*
X147840001Y-80532429D01*
X147840000Y-94467581D01*
X147836807Y-94500000D01*
X147849550Y-94629383D01*
X147887290Y-94753793D01*
X147948575Y-94868450D01*
X148001148Y-94932510D01*
X148031052Y-94968948D01*
X148131550Y-95051425D01*
X148246207Y-95112710D01*
X148370617Y-95150450D01*
X148500000Y-95163193D01*
X148532419Y-95160000D01*
X162467581Y-95160000D01*
X162500000Y-95163193D01*
X162532419Y-95160000D01*
X162629383Y-95150450D01*
X162753793Y-95112710D01*
X162868450Y-95051425D01*
X162968948Y-94968948D01*
X163051425Y-94868450D01*
X163112710Y-94753793D01*
X163150450Y-94629383D01*
X163163193Y-94500000D01*
X163160000Y-94467581D01*
X163160000Y-82750324D01*
X163465000Y-82750324D01*
X163465000Y-83249676D01*
X163562418Y-83739432D01*
X163753512Y-84200773D01*
X164030937Y-84615968D01*
X164384032Y-84969063D01*
X164799227Y-85246488D01*
X165260568Y-85437582D01*
X165750324Y-85535000D01*
X166249676Y-85535000D01*
X166739432Y-85437582D01*
X167200773Y-85246488D01*
X167615968Y-84969063D01*
X167969063Y-84615968D01*
X168246488Y-84200773D01*
X168437582Y-83739432D01*
X168535000Y-83249676D01*
X168535000Y-82750324D01*
X168437582Y-82260568D01*
X168246488Y-81799227D01*
X167969063Y-81384032D01*
X167615968Y-81030937D01*
X167200773Y-80753512D01*
X166739432Y-80562418D01*
X166249676Y-80465000D01*
X165750324Y-80465000D01*
X165260568Y-80562418D01*
X164799227Y-80753512D01*
X164384032Y-81030937D01*
X164030937Y-81384032D01*
X163753512Y-81799227D01*
X163562418Y-82260568D01*
X163465000Y-82750324D01*
X163160000Y-82750324D01*
X163160000Y-80532419D01*
X163163193Y-80500000D01*
X163150450Y-80370617D01*
X163112710Y-80246207D01*
X163051425Y-80131550D01*
X162968948Y-80031052D01*
X162868450Y-79948575D01*
X162753793Y-79887290D01*
X162629383Y-79849550D01*
X162532419Y-79840000D01*
X162500000Y-79836807D01*
X162467581Y-79840000D01*
X148532419Y-79840000D01*
X148500000Y-79836807D01*
X148467581Y-79840000D01*
X148370617Y-79849550D01*
X148246207Y-79887290D01*
X148131550Y-79948575D01*
X148031052Y-80031052D01*
X147948575Y-80131550D01*
X147887290Y-80246207D01*
X147849550Y-80370617D01*
X147836807Y-80500000D01*
X145503403Y-80500000D01*
X145555600Y-80237592D01*
X145555600Y-79962408D01*
X145501914Y-79692510D01*
X145396605Y-79438273D01*
X145243720Y-79209465D01*
X145049135Y-79014880D01*
X144820327Y-78861995D01*
X144743085Y-78830000D01*
X144820327Y-78798005D01*
X145049135Y-78645120D01*
X145243720Y-78450535D01*
X145396605Y-78221727D01*
X145501914Y-77967490D01*
X145555600Y-77697592D01*
X145555600Y-77422408D01*
X145501914Y-77152510D01*
X145396605Y-76898273D01*
X145243720Y-76669465D01*
X145049135Y-76474880D01*
X144820327Y-76321995D01*
X144743085Y-76290000D01*
X144820327Y-76258005D01*
X145049135Y-76105120D01*
X145243720Y-75910535D01*
X145396605Y-75681727D01*
X145501914Y-75427490D01*
X145555600Y-75157592D01*
X145555600Y-74882408D01*
X145501914Y-74612510D01*
X145396605Y-74358273D01*
X145243720Y-74129465D01*
X145049135Y-73934880D01*
X144820327Y-73781995D01*
X144566090Y-73676686D01*
X144296192Y-73623000D01*
X144021008Y-73623000D01*
X143751110Y-73676686D01*
X143496873Y-73781995D01*
X143268065Y-73934880D01*
X143073480Y-74129465D01*
X142920595Y-74358273D01*
X142815286Y-74612510D01*
X142761600Y-74882408D01*
X142761600Y-75157592D01*
X142815286Y-75427490D01*
X142920595Y-75681727D01*
X143073480Y-75910535D01*
X143268065Y-76105120D01*
X143496873Y-76258005D01*
X143574115Y-76290000D01*
X143496873Y-76321995D01*
X143268065Y-76474880D01*
X143073480Y-76669465D01*
X142920595Y-76898273D01*
X142815286Y-77152510D01*
X142761600Y-77422408D01*
X142761600Y-77697592D01*
X142815286Y-77967490D01*
X142920595Y-78221727D01*
X143073480Y-78450535D01*
X143268065Y-78645120D01*
X143496873Y-78798005D01*
X143574115Y-78830000D01*
X143546601Y-78841397D01*
X143532419Y-78840000D01*
X143500000Y-78836807D01*
X143467581Y-78840000D01*
X129547227Y-78840000D01*
X129523085Y-78830000D01*
X129600327Y-78798005D01*
X129829135Y-78645120D01*
X130023720Y-78450535D01*
X130176605Y-78221727D01*
X130281914Y-77967490D01*
X130335600Y-77697592D01*
X130335600Y-77422408D01*
X130281914Y-77152510D01*
X130176605Y-76898273D01*
X130023720Y-76669465D01*
X129829135Y-76474880D01*
X129600327Y-76321995D01*
X129523085Y-76290000D01*
X129600327Y-76258005D01*
X129829135Y-76105120D01*
X130023720Y-75910535D01*
X130176605Y-75681727D01*
X130281914Y-75427490D01*
X130335600Y-75157592D01*
X130335600Y-74882408D01*
X130281914Y-74612510D01*
X130176605Y-74358273D01*
X130023720Y-74129465D01*
X129829135Y-73934880D01*
X129600327Y-73781995D01*
X129346090Y-73676686D01*
X129076192Y-73623000D01*
X128801008Y-73623000D01*
X128531110Y-73676686D01*
X128276873Y-73781995D01*
X128048065Y-73934880D01*
X127853480Y-74129465D01*
X127700595Y-74358273D01*
X127595286Y-74612510D01*
X127541600Y-74882408D01*
X126458400Y-74882408D01*
X126404714Y-74612510D01*
X126299405Y-74358273D01*
X126146520Y-74129465D01*
X125951935Y-73934880D01*
X125723127Y-73781995D01*
X125468890Y-73676686D01*
X125198992Y-73623000D01*
X125160000Y-73623000D01*
X125160000Y-72532419D01*
X125163193Y-72500000D01*
X125150450Y-72370617D01*
X125112710Y-72246207D01*
X125051425Y-72131550D01*
X124968948Y-72031052D01*
X124868450Y-71948575D01*
X124753793Y-71887290D01*
X124629383Y-71849550D01*
X124532419Y-71840000D01*
X124500000Y-71836807D01*
X124467581Y-71840000D01*
X110532419Y-71840000D01*
X110500000Y-71836807D01*
X110467581Y-71840000D01*
X110370617Y-71849550D01*
X110246207Y-71887290D01*
X110131550Y-71948575D01*
X110031052Y-72031052D01*
X109948575Y-72131550D01*
X109887290Y-72246207D01*
X109849550Y-72370617D01*
X109836807Y-72500000D01*
X109840001Y-72532429D01*
X109840001Y-73623000D01*
X109703808Y-73623000D01*
X109433910Y-73676686D01*
X109179673Y-73781995D01*
X108950865Y-73934880D01*
X108756280Y-74129465D01*
X108603395Y-74358273D01*
X108498086Y-74612510D01*
X108444400Y-74882408D01*
X93378359Y-74882408D01*
X93437582Y-74739432D01*
X93535000Y-74249676D01*
X93535000Y-73750324D01*
X93437582Y-73260568D01*
X93246488Y-72799227D01*
X92969063Y-72384032D01*
X92615968Y-72030937D01*
X92200773Y-71753512D01*
X91739432Y-71562418D01*
X91249676Y-71465000D01*
X90750324Y-71465000D01*
X90260568Y-71562418D01*
X89799227Y-71753512D01*
X89384032Y-72030937D01*
X89030937Y-72384032D01*
X88753512Y-72799227D01*
X88562418Y-73260568D01*
X88465000Y-73750324D01*
X87160000Y-73750324D01*
X87160000Y-73532419D01*
X87163193Y-73500000D01*
X87150450Y-73370617D01*
X87112710Y-73246207D01*
X87051425Y-73131550D01*
X86968948Y-73031052D01*
X86868450Y-72948575D01*
X86753793Y-72887290D01*
X86629383Y-72849550D01*
X86532419Y-72840000D01*
X86500000Y-72836807D01*
X86467581Y-72840000D01*
X72532419Y-72840000D01*
X72500000Y-72836807D01*
X72467581Y-72840000D01*
X72370617Y-72849550D01*
X72246207Y-72887290D01*
X72131550Y-72948575D01*
X72031052Y-73031052D01*
X71948575Y-73131550D01*
X71887290Y-73246207D01*
X71849550Y-73370617D01*
X71836807Y-73500000D01*
X70660000Y-73500000D01*
X70660000Y-73032279D01*
X70707670Y-72546107D01*
X70839489Y-72109502D01*
X71053600Y-71706815D01*
X71341848Y-71353388D01*
X71693261Y-71062673D01*
X72094439Y-70845758D01*
X72530113Y-70710894D01*
X73014344Y-70660000D01*
X166967721Y-70660000D01*
X167453893Y-70707670D01*
X167453893Y-70707670D01*
G37*
X167453893Y-70707670D02*
X167890498Y-70839489D01*
X168293185Y-71053600D01*
X168646612Y-71341848D01*
X168937327Y-71693261D01*
X169154242Y-72094439D01*
X169289106Y-72530113D01*
X169340001Y-73014353D01*
X169340000Y-83967721D01*
X169301853Y-84356776D01*
X169198238Y-84699964D01*
X169029939Y-85016489D01*
X168803365Y-85294296D01*
X168527146Y-85522805D01*
X168211803Y-85693310D01*
X167869344Y-85799319D01*
X167481718Y-85840060D01*
X167480240Y-85840065D01*
X167451560Y-85842978D01*
X167422730Y-85842777D01*
X167413558Y-85843677D01*
X166928316Y-85894678D01*
X166869760Y-85906698D01*
X166810959Y-85917914D01*
X166802138Y-85920578D01*
X166336044Y-86064858D01*
X166280881Y-86088046D01*
X166225435Y-86110448D01*
X166217299Y-86114774D01*
X165788106Y-86346838D01*
X165738539Y-86380271D01*
X165688460Y-86413042D01*
X165681319Y-86418866D01*
X165305374Y-86729875D01*
X165263252Y-86772292D01*
X165220483Y-86814174D01*
X165214610Y-86821275D01*
X164906233Y-87199382D01*
X164873141Y-87249191D01*
X164839334Y-87298563D01*
X164834952Y-87306669D01*
X164605890Y-87737473D01*
X164583099Y-87792767D01*
X164559529Y-87847760D01*
X164556804Y-87856563D01*
X164415781Y-88323653D01*
X164404159Y-88382347D01*
X164391725Y-88440844D01*
X164390762Y-88450009D01*
X164343150Y-88935595D01*
X164340000Y-88967582D01*
X164340001Y-127032419D01*
X164342886Y-127061709D01*
X164342777Y-127077271D01*
X164343677Y-127086442D01*
X164394678Y-127571684D01*
X164406699Y-127630247D01*
X164417914Y-127689040D01*
X164420578Y-127697862D01*
X164564858Y-128163956D01*
X164588033Y-128219086D01*
X164610447Y-128274565D01*
X164614774Y-128282701D01*
X164846838Y-128711894D01*
X164880271Y-128761461D01*
X164913042Y-128811540D01*
X164918867Y-128818681D01*
X165229875Y-129194627D01*
X165272311Y-129236767D01*
X165314174Y-129279517D01*
X165321275Y-129285391D01*
X165699382Y-129593767D01*
X165749191Y-129626859D01*
X165798563Y-129660666D01*
X165806667Y-129665047D01*
X165806675Y-129665051D01*
X166237473Y-129894111D01*
X166292788Y-129916910D01*
X166347760Y-129940471D01*
X166356563Y-129943196D01*
X166823652Y-130084219D01*
X166882369Y-130095845D01*
X166940845Y-130108275D01*
X166950009Y-130109238D01*
X167435581Y-130156849D01*
X167435595Y-130156850D01*
X167856775Y-130198147D01*
X168199967Y-130301763D01*
X168516489Y-130470062D01*
X168794299Y-130696637D01*
X169022806Y-130972856D01*
X169193310Y-131288197D01*
X169299319Y-131630656D01*
X169340001Y-132017722D01*
X169340000Y-150967721D01*
X169292330Y-151453894D01*
X169160512Y-151890497D01*
X168946399Y-152293186D01*
X168658150Y-152646613D01*
X168306739Y-152937327D01*
X167905564Y-153154240D01*
X167469886Y-153289106D01*
X166985664Y-153340000D01*
X73032279Y-153340000D01*
X72546106Y-153292330D01*
X72109503Y-153160512D01*
X71706814Y-152946399D01*
X71353387Y-152658150D01*
X71062673Y-152306739D01*
X70845760Y-151905564D01*
X70710894Y-151469886D01*
X70660000Y-150985664D01*
X70660000Y-149750324D01*
X88465000Y-149750324D01*
X88465000Y-150249676D01*
X88562418Y-150739432D01*
X88753512Y-151200773D01*
X89030937Y-151615968D01*
X89384032Y-151969063D01*
X89799227Y-152246488D01*
X90260568Y-152437582D01*
X90750324Y-152535000D01*
X91249676Y-152535000D01*
X91739432Y-152437582D01*
X92200773Y-152246488D01*
X92615968Y-151969063D01*
X92969063Y-151615968D01*
X93246488Y-151200773D01*
X93437582Y-150739432D01*
X93535000Y-150249676D01*
X93535000Y-149750324D01*
X93437582Y-149260568D01*
X93246488Y-148799227D01*
X92969063Y-148384032D01*
X92615968Y-148030937D01*
X92200773Y-147753512D01*
X91739432Y-147562418D01*
X91249676Y-147465000D01*
X90750324Y-147465000D01*
X90260568Y-147562418D01*
X89799227Y-147753512D01*
X89384032Y-148030937D01*
X89030937Y-148384032D01*
X88753512Y-148799227D01*
X88562418Y-149260568D01*
X88465000Y-149750324D01*
X70660000Y-149750324D01*
X70660000Y-130500000D01*
X71836807Y-130500000D01*
X71840001Y-130532429D01*
X71840000Y-144467581D01*
X71836807Y-144500000D01*
X71849550Y-144629383D01*
X71887290Y-144753793D01*
X71948575Y-144868450D01*
X72031052Y-144968948D01*
X72131550Y-145051425D01*
X72246207Y-145112710D01*
X72370617Y-145150450D01*
X72500000Y-145163193D01*
X72532419Y-145160000D01*
X86467581Y-145160000D01*
X86500000Y-145163193D01*
X86532419Y-145160000D01*
X86629383Y-145150450D01*
X86753793Y-145112710D01*
X86868450Y-145051425D01*
X86968948Y-144968948D01*
X87051425Y-144868450D01*
X87112710Y-144753793D01*
X87150450Y-144629383D01*
X87163193Y-144500000D01*
X87160000Y-144467581D01*
X87160000Y-137500000D01*
X95836807Y-137500000D01*
X95840001Y-137532429D01*
X95840000Y-151467581D01*
X95836807Y-151500000D01*
X95849550Y-151629383D01*
X95887290Y-151753793D01*
X95948575Y-151868450D01*
X96029764Y-151967379D01*
X96031052Y-151968948D01*
X96131550Y-152051425D01*
X96246207Y-152112710D01*
X96370617Y-152150450D01*
X96500000Y-152163193D01*
X96532419Y-152160000D01*
X110467581Y-152160000D01*
X110500000Y-152163193D01*
X110532419Y-152160000D01*
X110629383Y-152150450D01*
X110753793Y-152112710D01*
X110868450Y-152051425D01*
X110968948Y-151968948D01*
X111051425Y-151868450D01*
X111112710Y-151753793D01*
X111150450Y-151629383D01*
X111163193Y-151500000D01*
X111160000Y-151467581D01*
X111160000Y-137532419D01*
X111163193Y-137500000D01*
X114836807Y-137500000D01*
X114840001Y-137532429D01*
X114840000Y-151467581D01*
X114836807Y-151500000D01*
X114849550Y-151629383D01*
X114887290Y-151753793D01*
X114948575Y-151868450D01*
X115029764Y-151967379D01*
X115031052Y-151968948D01*
X115131550Y-152051425D01*
X115246207Y-152112710D01*
X115370617Y-152150450D01*
X115500000Y-152163193D01*
X115532419Y-152160000D01*
X129467581Y-152160000D01*
X129500000Y-152163193D01*
X129532419Y-152160000D01*
X129629383Y-152150450D01*
X129753793Y-152112710D01*
X129868450Y-152051425D01*
X129968948Y-151968948D01*
X130051425Y-151868450D01*
X130112710Y-151753793D01*
X130150450Y-151629383D01*
X130163193Y-151500000D01*
X130160000Y-151467581D01*
X130160000Y-137532419D01*
X130163193Y-137500000D01*
X133836807Y-137500000D01*
X133840001Y-137532429D01*
X133840000Y-151467581D01*
X133836807Y-151500000D01*
X133849550Y-151629383D01*
X133887290Y-151753793D01*
X133948575Y-151868450D01*
X134029764Y-151967379D01*
X134031052Y-151968948D01*
X134131550Y-152051425D01*
X134246207Y-152112710D01*
X134370617Y-152150450D01*
X134500000Y-152163193D01*
X134532419Y-152160000D01*
X148467581Y-152160000D01*
X148500000Y-152163193D01*
X148532419Y-152160000D01*
X148629383Y-152150450D01*
X148753793Y-152112710D01*
X148868450Y-152051425D01*
X148968948Y-151968948D01*
X149051425Y-151868450D01*
X149112710Y-151753793D01*
X149150450Y-151629383D01*
X149163193Y-151500000D01*
X149160000Y-151467581D01*
X149160000Y-137532419D01*
X149163193Y-137500000D01*
X152836807Y-137500000D01*
X152840001Y-137532429D01*
X152840000Y-151467581D01*
X152836807Y-151500000D01*
X152849550Y-151629383D01*
X152887290Y-151753793D01*
X152948575Y-151868450D01*
X153029764Y-151967379D01*
X153031052Y-151968948D01*
X153131550Y-152051425D01*
X153246207Y-152112710D01*
X153370617Y-152150450D01*
X153500000Y-152163193D01*
X153532419Y-152160000D01*
X167467581Y-152160000D01*
X167500000Y-152163193D01*
X167532419Y-152160000D01*
X167629383Y-152150450D01*
X167753793Y-152112710D01*
X167868450Y-152051425D01*
X167968948Y-151968948D01*
X168051425Y-151868450D01*
X168112710Y-151753793D01*
X168150450Y-151629383D01*
X168163193Y-151500000D01*
X168160000Y-151467581D01*
X168160000Y-137532419D01*
X168163193Y-137500000D01*
X168150450Y-137370617D01*
X168112710Y-137246207D01*
X168051425Y-137131550D01*
X167968948Y-137031052D01*
X167868450Y-136948575D01*
X167753793Y-136887290D01*
X167629383Y-136849550D01*
X167532419Y-136840000D01*
X167500000Y-136836807D01*
X167467581Y-136840000D01*
X153532419Y-136840000D01*
X153500000Y-136836807D01*
X153467581Y-136840000D01*
X153370617Y-136849550D01*
X153246207Y-136887290D01*
X153131550Y-136948575D01*
X153031052Y-137031052D01*
X152948575Y-137131550D01*
X152887290Y-137246207D01*
X152849550Y-137370617D01*
X152836807Y-137500000D01*
X149163193Y-137500000D01*
X149150450Y-137370617D01*
X149112710Y-137246207D01*
X149051425Y-137131550D01*
X148968948Y-137031052D01*
X148868450Y-136948575D01*
X148753793Y-136887290D01*
X148629383Y-136849550D01*
X148532419Y-136840000D01*
X148500000Y-136836807D01*
X148467581Y-136840000D01*
X134532419Y-136840000D01*
X134500000Y-136836807D01*
X134467581Y-136840000D01*
X134370617Y-136849550D01*
X134246207Y-136887290D01*
X134131550Y-136948575D01*
X134031052Y-137031052D01*
X133948575Y-137131550D01*
X133887290Y-137246207D01*
X133849550Y-137370617D01*
X133836807Y-137500000D01*
X130163193Y-137500000D01*
X130150450Y-137370617D01*
X130112710Y-137246207D01*
X130051425Y-137131550D01*
X129968948Y-137031052D01*
X129868450Y-136948575D01*
X129753793Y-136887290D01*
X129629383Y-136849550D01*
X129532419Y-136840000D01*
X129500000Y-136836807D01*
X129467581Y-136840000D01*
X115532419Y-136840000D01*
X115500000Y-136836807D01*
X115467581Y-136840000D01*
X115370617Y-136849550D01*
X115246207Y-136887290D01*
X115131550Y-136948575D01*
X115031052Y-137031052D01*
X114948575Y-137131550D01*
X114887290Y-137246207D01*
X114849550Y-137370617D01*
X114836807Y-137500000D01*
X111163193Y-137500000D01*
X111150450Y-137370617D01*
X111112710Y-137246207D01*
X111051425Y-137131550D01*
X110968948Y-137031052D01*
X110868450Y-136948575D01*
X110753793Y-136887290D01*
X110629383Y-136849550D01*
X110532419Y-136840000D01*
X110500000Y-136836807D01*
X110467581Y-136840000D01*
X96532419Y-136840000D01*
X96500000Y-136836807D01*
X96467581Y-136840000D01*
X96370617Y-136849550D01*
X96246207Y-136887290D01*
X96131550Y-136948575D01*
X96031052Y-137031052D01*
X95948575Y-137131550D01*
X95887290Y-137246207D01*
X95849550Y-137370617D01*
X95836807Y-137500000D01*
X87160000Y-137500000D01*
X87160000Y-130532419D01*
X87163193Y-130500000D01*
X87150450Y-130370617D01*
X87112710Y-130246207D01*
X87051425Y-130131550D01*
X86968948Y-130031052D01*
X86868450Y-129948575D01*
X86753793Y-129887290D01*
X86629383Y-129849550D01*
X86532419Y-129840000D01*
X86500000Y-129836807D01*
X86467581Y-129840000D01*
X72532419Y-129840000D01*
X72500000Y-129836807D01*
X72467581Y-129840000D01*
X72370617Y-129849550D01*
X72246207Y-129887290D01*
X72131550Y-129948575D01*
X72031052Y-130031052D01*
X71948575Y-130131550D01*
X71887290Y-130246207D01*
X71849550Y-130370617D01*
X71836807Y-130500000D01*
X70660000Y-130500000D01*
X70660000Y-111500000D01*
X71836807Y-111500000D01*
X71840001Y-111532429D01*
X71840000Y-125467581D01*
X71836807Y-125500000D01*
X71849550Y-125629383D01*
X71887290Y-125753793D01*
X71948575Y-125868450D01*
X72031052Y-125968948D01*
X72131550Y-126051425D01*
X72246207Y-126112710D01*
X72370617Y-126150450D01*
X72500000Y-126163193D01*
X72532419Y-126160000D01*
X86467581Y-126160000D01*
X86500000Y-126163193D01*
X86532419Y-126160000D01*
X86629383Y-126150450D01*
X86753793Y-126112710D01*
X86868450Y-126051425D01*
X86968948Y-125968948D01*
X87051425Y-125868450D01*
X87112710Y-125753793D01*
X87150450Y-125629383D01*
X87163193Y-125500000D01*
X87160000Y-125467581D01*
X87160000Y-115500000D01*
X90836807Y-115500000D01*
X90840001Y-115532429D01*
X90840000Y-129467581D01*
X90836807Y-129500000D01*
X90849550Y-129629383D01*
X90887290Y-129753793D01*
X90948575Y-129868450D01*
X91009918Y-129943196D01*
X91031052Y-129968948D01*
X91131550Y-130051425D01*
X91246207Y-130112710D01*
X91370617Y-130150450D01*
X91500000Y-130163193D01*
X91532419Y-130160000D01*
X105467581Y-130160000D01*
X105500000Y-130163193D01*
X105532419Y-130160000D01*
X105629383Y-130150450D01*
X105753793Y-130112710D01*
X105868450Y-130051425D01*
X105968948Y-129968948D01*
X106051425Y-129868450D01*
X106112710Y-129753793D01*
X106150450Y-129629383D01*
X106163193Y-129500000D01*
X106160000Y-129467581D01*
X106160000Y-115532419D01*
X106163193Y-115500000D01*
X106150450Y-115370617D01*
X106112710Y-115246207D01*
X106051425Y-115131550D01*
X105968948Y-115031052D01*
X105868450Y-114948575D01*
X105753793Y-114887290D01*
X105629383Y-114849550D01*
X105532419Y-114840000D01*
X105500000Y-114836807D01*
X105467581Y-114840000D01*
X91532419Y-114840000D01*
X91500000Y-114836807D01*
X91467581Y-114840000D01*
X91370617Y-114849550D01*
X91246207Y-114887290D01*
X91131550Y-114948575D01*
X91031052Y-115031052D01*
X90948575Y-115131550D01*
X90887290Y-115246207D01*
X90849550Y-115370617D01*
X90836807Y-115500000D01*
X87160000Y-115500000D01*
X87160000Y-111532419D01*
X87163193Y-111500000D01*
X87150450Y-111370617D01*
X87112710Y-111246207D01*
X87051425Y-111131550D01*
X86968948Y-111031052D01*
X86868450Y-110948575D01*
X86753793Y-110887290D01*
X86629383Y-110849550D01*
X86532419Y-110840000D01*
X86500000Y-110836807D01*
X86467581Y-110840000D01*
X72532419Y-110840000D01*
X72500000Y-110836807D01*
X72467581Y-110840000D01*
X72370617Y-110849550D01*
X72246207Y-110887290D01*
X72131550Y-110948575D01*
X72031052Y-111031052D01*
X71948575Y-111131550D01*
X71887290Y-111246207D01*
X71849550Y-111370617D01*
X71836807Y-111500000D01*
X70660000Y-111500000D01*
X70660000Y-92500000D01*
X71836807Y-92500000D01*
X71840001Y-92532429D01*
X71840000Y-106467581D01*
X71836807Y-106500000D01*
X71849550Y-106629383D01*
X71887290Y-106753793D01*
X71948575Y-106868450D01*
X72031052Y-106968948D01*
X72131550Y-107051425D01*
X72246207Y-107112710D01*
X72370617Y-107150450D01*
X72500000Y-107163193D01*
X72532419Y-107160000D01*
X86467581Y-107160000D01*
X86500000Y-107163193D01*
X86532419Y-107160000D01*
X86629383Y-107150450D01*
X86753793Y-107112710D01*
X86868450Y-107051425D01*
X86968948Y-106968948D01*
X87051425Y-106868450D01*
X87112710Y-106753793D01*
X87150450Y-106629383D01*
X87163193Y-106500000D01*
X87160000Y-106467581D01*
X87160000Y-96500000D01*
X90836807Y-96500000D01*
X90840001Y-96532429D01*
X90840000Y-110467581D01*
X90836807Y-110500000D01*
X90849550Y-110629383D01*
X90887290Y-110753793D01*
X90948575Y-110868450D01*
X90964037Y-110887290D01*
X91031052Y-110968948D01*
X91131550Y-111051425D01*
X91246207Y-111112710D01*
X91370617Y-111150450D01*
X91500000Y-111163193D01*
X91532419Y-111160000D01*
X105467581Y-111160000D01*
X105500000Y-111163193D01*
X105532419Y-111160000D01*
X105629383Y-111150450D01*
X105753793Y-111112710D01*
X105868450Y-111051425D01*
X105968948Y-110968948D01*
X106051425Y-110868450D01*
X106112710Y-110753793D01*
X106150450Y-110629383D01*
X106163193Y-110500000D01*
X109836807Y-110500000D01*
X109840001Y-110532429D01*
X109840000Y-124467581D01*
X109836807Y-124500000D01*
X109849550Y-124629383D01*
X109887290Y-124753793D01*
X109948575Y-124868450D01*
X109964037Y-124887290D01*
X110031052Y-124968948D01*
X110131550Y-125051425D01*
X110246207Y-125112710D01*
X110370617Y-125150450D01*
X110500000Y-125163193D01*
X110532419Y-125160000D01*
X124467581Y-125160000D01*
X124500000Y-125163193D01*
X124532419Y-125160000D01*
X124629383Y-125150450D01*
X124753793Y-125112710D01*
X124868450Y-125051425D01*
X124968948Y-124968948D01*
X125051425Y-124868450D01*
X125112710Y-124753793D01*
X125150450Y-124629383D01*
X125163193Y-124500000D01*
X125160000Y-124467581D01*
X125160000Y-117500000D01*
X128836807Y-117500000D01*
X128840001Y-117532429D01*
X128840000Y-131467581D01*
X128836807Y-131500000D01*
X128849550Y-131629383D01*
X128887290Y-131753793D01*
X128948575Y-131868450D01*
X128993122Y-131922730D01*
X129031052Y-131968948D01*
X129131550Y-132051425D01*
X129246207Y-132112710D01*
X129370617Y-132150450D01*
X129500000Y-132163193D01*
X129532419Y-132160000D01*
X143467581Y-132160000D01*
X143500000Y-132163193D01*
X143532419Y-132160000D01*
X143629383Y-132150450D01*
X143753793Y-132112710D01*
X143868450Y-132051425D01*
X143968948Y-131968948D01*
X144051425Y-131868450D01*
X144112710Y-131753793D01*
X144150450Y-131629383D01*
X144163193Y-131500000D01*
X144160000Y-131467581D01*
X144160000Y-118500000D01*
X147836807Y-118500000D01*
X147840001Y-118532429D01*
X147840000Y-132467581D01*
X147836807Y-132500000D01*
X147849550Y-132629383D01*
X147887290Y-132753793D01*
X147948575Y-132868450D01*
X148031052Y-132968948D01*
X148131550Y-133051425D01*
X148246207Y-133112710D01*
X148370617Y-133150450D01*
X148500000Y-133163193D01*
X148532419Y-133160000D01*
X162467581Y-133160000D01*
X162500000Y-133163193D01*
X162532419Y-133160000D01*
X162629383Y-133150450D01*
X162753793Y-133112710D01*
X162868450Y-133051425D01*
X162968948Y-132968948D01*
X163051425Y-132868450D01*
X163112710Y-132753793D01*
X163113762Y-132750324D01*
X163465000Y-132750324D01*
X163465000Y-133249676D01*
X163562418Y-133739432D01*
X163753512Y-134200773D01*
X164030937Y-134615968D01*
X164384032Y-134969063D01*
X164799227Y-135246488D01*
X165260568Y-135437582D01*
X165750324Y-135535000D01*
X166249676Y-135535000D01*
X166739432Y-135437582D01*
X167200773Y-135246488D01*
X167615968Y-134969063D01*
X167969063Y-134615968D01*
X168246488Y-134200773D01*
X168437582Y-133739432D01*
X168535000Y-133249676D01*
X168535000Y-132750324D01*
X168437582Y-132260568D01*
X168246488Y-131799227D01*
X167969063Y-131384032D01*
X167615968Y-131030937D01*
X167200773Y-130753512D01*
X166739432Y-130562418D01*
X166249676Y-130465000D01*
X165750324Y-130465000D01*
X165260568Y-130562418D01*
X164799227Y-130753512D01*
X164384032Y-131030937D01*
X164030937Y-131384032D01*
X163753512Y-131799227D01*
X163562418Y-132260568D01*
X163465000Y-132750324D01*
X163113762Y-132750324D01*
X163150450Y-132629383D01*
X163163193Y-132500000D01*
X163160000Y-132467581D01*
X163160000Y-118532419D01*
X163163193Y-118500000D01*
X163150450Y-118370617D01*
X163112710Y-118246207D01*
X163051425Y-118131550D01*
X162968948Y-118031052D01*
X162868450Y-117948575D01*
X162753793Y-117887290D01*
X162629383Y-117849550D01*
X162532419Y-117840000D01*
X162500000Y-117836807D01*
X162467581Y-117840000D01*
X148532419Y-117840000D01*
X148500000Y-117836807D01*
X148467581Y-117840000D01*
X148370617Y-117849550D01*
X148246207Y-117887290D01*
X148131550Y-117948575D01*
X148031052Y-118031052D01*
X147948575Y-118131550D01*
X147887290Y-118246207D01*
X147849550Y-118370617D01*
X147836807Y-118500000D01*
X144160000Y-118500000D01*
X144160000Y-117532419D01*
X144163193Y-117500000D01*
X144150450Y-117370617D01*
X144112710Y-117246207D01*
X144051425Y-117131550D01*
X143968948Y-117031052D01*
X143868450Y-116948575D01*
X143753793Y-116887290D01*
X143629383Y-116849550D01*
X143532419Y-116840000D01*
X143500000Y-116836807D01*
X143467581Y-116840000D01*
X129532419Y-116840000D01*
X129500000Y-116836807D01*
X129467581Y-116840000D01*
X129370617Y-116849550D01*
X129246207Y-116887290D01*
X129131550Y-116948575D01*
X129031052Y-117031052D01*
X128948575Y-117131550D01*
X128887290Y-117246207D01*
X128849550Y-117370617D01*
X128836807Y-117500000D01*
X125160000Y-117500000D01*
X125160000Y-110532418D01*
X125163193Y-110500000D01*
X125150450Y-110370617D01*
X125112710Y-110246207D01*
X125051425Y-110131550D01*
X124968948Y-110031052D01*
X124868450Y-109948575D01*
X124753793Y-109887290D01*
X124629383Y-109849550D01*
X124532419Y-109840000D01*
X124500000Y-109836807D01*
X124467581Y-109840000D01*
X110532419Y-109840000D01*
X110500000Y-109836807D01*
X110467581Y-109840000D01*
X110370617Y-109849550D01*
X110246207Y-109887290D01*
X110131550Y-109948575D01*
X110031052Y-110031052D01*
X109948575Y-110131550D01*
X109887290Y-110246207D01*
X109849550Y-110370617D01*
X109836807Y-110500000D01*
X106163193Y-110500000D01*
X106160000Y-110467581D01*
X106160000Y-96532419D01*
X106163193Y-96500000D01*
X106150450Y-96370617D01*
X106112710Y-96246207D01*
X106051425Y-96131550D01*
X105968948Y-96031052D01*
X105868450Y-95948575D01*
X105753793Y-95887290D01*
X105629383Y-95849550D01*
X105532419Y-95840000D01*
X105500000Y-95836807D01*
X105467581Y-95840000D01*
X91532419Y-95840000D01*
X91500000Y-95836807D01*
X91467581Y-95840000D01*
X91370617Y-95849550D01*
X91246207Y-95887290D01*
X91131550Y-95948575D01*
X91031052Y-96031052D01*
X90948575Y-96131550D01*
X90887290Y-96246207D01*
X90849550Y-96370617D01*
X90836807Y-96500000D01*
X87160000Y-96500000D01*
X87160000Y-92532419D01*
X87163193Y-92500000D01*
X87150450Y-92370617D01*
X87112710Y-92246207D01*
X87051425Y-92131550D01*
X86968948Y-92031052D01*
X86868450Y-91948575D01*
X86753793Y-91887290D01*
X86629383Y-91849550D01*
X86532419Y-91840000D01*
X86500000Y-91836807D01*
X86467581Y-91840000D01*
X72532419Y-91840000D01*
X72500000Y-91836807D01*
X72467581Y-91840000D01*
X72370617Y-91849550D01*
X72246207Y-91887290D01*
X72131550Y-91948575D01*
X72031052Y-92031052D01*
X71948575Y-92131550D01*
X71887290Y-92246207D01*
X71849550Y-92370617D01*
X71836807Y-92500000D01*
X70660000Y-92500000D01*
X70660000Y-73500000D01*
X71836807Y-73500000D01*
X71840001Y-73532429D01*
X71840000Y-87467581D01*
X71836807Y-87500000D01*
X71849550Y-87629383D01*
X71887290Y-87753793D01*
X71948575Y-87868450D01*
X71998694Y-87929520D01*
X72031052Y-87968948D01*
X72131550Y-88051425D01*
X72246207Y-88112710D01*
X72370617Y-88150450D01*
X72500000Y-88163193D01*
X72532419Y-88160000D01*
X86467581Y-88160000D01*
X86500000Y-88163193D01*
X86532419Y-88160000D01*
X86629383Y-88150450D01*
X86753793Y-88112710D01*
X86868450Y-88051425D01*
X86968948Y-87968948D01*
X87051425Y-87868450D01*
X87112710Y-87753793D01*
X87150450Y-87629383D01*
X87163193Y-87500000D01*
X87160000Y-87467581D01*
X87160000Y-77500000D01*
X90836807Y-77500000D01*
X90840001Y-77532429D01*
X90840000Y-91467581D01*
X90836807Y-91500000D01*
X90849550Y-91629383D01*
X90887290Y-91753793D01*
X90948575Y-91868450D01*
X91014332Y-91948575D01*
X91031052Y-91968948D01*
X91131550Y-92051425D01*
X91246207Y-92112710D01*
X91370617Y-92150450D01*
X91500000Y-92163193D01*
X91532419Y-92160000D01*
X105467581Y-92160000D01*
X105500000Y-92163193D01*
X105532419Y-92160000D01*
X105629383Y-92150450D01*
X105753793Y-92112710D01*
X105868450Y-92051425D01*
X105968948Y-91968948D01*
X106051425Y-91868450D01*
X106112710Y-91753793D01*
X106150450Y-91629383D01*
X106163193Y-91500000D01*
X106160000Y-91467581D01*
X106160000Y-77532419D01*
X106163193Y-77500000D01*
X106150450Y-77370617D01*
X106112710Y-77246207D01*
X106051425Y-77131550D01*
X105968948Y-77031052D01*
X105868450Y-76948575D01*
X105753793Y-76887290D01*
X105629383Y-76849550D01*
X105532419Y-76840000D01*
X105500000Y-76836807D01*
X105467581Y-76840000D01*
X91532419Y-76840000D01*
X91500000Y-76836807D01*
X91467581Y-76840000D01*
X91370617Y-76849550D01*
X91246207Y-76887290D01*
X91131550Y-76948575D01*
X91031052Y-77031052D01*
X90948575Y-77131550D01*
X90887290Y-77246207D01*
X90849550Y-77370617D01*
X90836807Y-77500000D01*
X87160000Y-77500000D01*
X87160000Y-73750324D01*
X88465000Y-73750324D01*
X88465000Y-74249676D01*
X88562418Y-74739432D01*
X88753512Y-75200773D01*
X89030937Y-75615968D01*
X89384032Y-75969063D01*
X89799227Y-76246488D01*
X90260568Y-76437582D01*
X90750324Y-76535000D01*
X91249676Y-76535000D01*
X91739432Y-76437582D01*
X92200773Y-76246488D01*
X92615968Y-75969063D01*
X92969063Y-75615968D01*
X93246488Y-75200773D01*
X93378359Y-74882408D01*
X108444400Y-74882408D01*
X108444400Y-75157592D01*
X108498086Y-75427490D01*
X108603395Y-75681727D01*
X108756280Y-75910535D01*
X108950865Y-76105120D01*
X109179673Y-76258005D01*
X109256915Y-76290000D01*
X109179673Y-76321995D01*
X108950865Y-76474880D01*
X108756280Y-76669465D01*
X108603395Y-76898273D01*
X108498086Y-77152510D01*
X108444400Y-77422408D01*
X108444400Y-77697592D01*
X108498086Y-77967490D01*
X108603395Y-78221727D01*
X108756280Y-78450535D01*
X108950865Y-78645120D01*
X109179673Y-78798005D01*
X109256915Y-78830000D01*
X109179673Y-78861995D01*
X108950865Y-79014880D01*
X108756280Y-79209465D01*
X108603395Y-79438273D01*
X108498086Y-79692510D01*
X108444400Y-79962408D01*
X108444400Y-80237592D01*
X108498086Y-80507490D01*
X108603395Y-80761727D01*
X108756280Y-80990535D01*
X108950865Y-81185120D01*
X109179673Y-81338005D01*
X109256915Y-81370000D01*
X109179673Y-81401995D01*
X108950865Y-81554880D01*
X108756280Y-81749465D01*
X108603395Y-81978273D01*
X108498086Y-82232510D01*
X108444400Y-82502408D01*
X108444400Y-82777592D01*
X108498086Y-83047490D01*
X108603395Y-83301727D01*
X108756280Y-83530535D01*
X108950865Y-83725120D01*
X109179673Y-83878005D01*
X109256915Y-83910000D01*
X109179673Y-83941995D01*
X108950865Y-84094880D01*
X108756280Y-84289465D01*
X108603395Y-84518273D01*
X108498086Y-84772510D01*
X108444400Y-85042408D01*
X108444400Y-85317592D01*
X108498086Y-85587490D01*
X108603395Y-85841727D01*
X108756280Y-86070535D01*
X108950865Y-86265120D01*
X109179673Y-86418005D01*
X109256915Y-86450000D01*
X109179673Y-86481995D01*
X108950865Y-86634880D01*
X108756280Y-86829465D01*
X108603395Y-87058273D01*
X108498086Y-87312510D01*
X108444400Y-87582408D01*
X108444400Y-87857592D01*
X108498086Y-88127490D01*
X108603395Y-88381727D01*
X108756280Y-88610535D01*
X108950865Y-88805120D01*
X109179673Y-88958005D01*
X109256915Y-88990000D01*
X109179673Y-89021995D01*
X108950865Y-89174880D01*
X108756280Y-89369465D01*
X108603395Y-89598273D01*
X108498086Y-89852510D01*
X108444400Y-90122408D01*
X108444400Y-90397592D01*
X108498086Y-90667490D01*
X108603395Y-90921727D01*
X108756280Y-91150535D01*
X108950865Y-91345120D01*
X109179673Y-91498005D01*
X109256915Y-91530000D01*
X109179673Y-91561995D01*
X108950865Y-91714880D01*
X108756280Y-91909465D01*
X108603395Y-92138273D01*
X108498086Y-92392510D01*
X108444400Y-92662408D01*
X108444400Y-92937592D01*
X108498086Y-93207490D01*
X108603395Y-93461727D01*
X108756280Y-93690535D01*
X108950865Y-93885120D01*
X109179673Y-94038005D01*
X109256915Y-94070000D01*
X109179673Y-94101995D01*
X108950865Y-94254880D01*
X108756280Y-94449465D01*
X108603395Y-94678273D01*
X108498086Y-94932510D01*
X108444400Y-95202408D01*
X108444400Y-95477592D01*
X108498086Y-95747490D01*
X108603395Y-96001727D01*
X108756280Y-96230535D01*
X108950865Y-96425120D01*
X109179673Y-96578005D01*
X109256915Y-96610000D01*
X109179673Y-96641995D01*
X108950865Y-96794880D01*
X108756280Y-96989465D01*
X108603395Y-97218273D01*
X108498086Y-97472510D01*
X108444400Y-97742408D01*
X108444400Y-98017592D01*
X108498086Y-98287490D01*
X108603395Y-98541727D01*
X108756280Y-98770535D01*
X108950865Y-98965120D01*
X109179673Y-99118005D01*
X109256915Y-99150000D01*
X109179673Y-99181995D01*
X108950865Y-99334880D01*
X108756280Y-99529465D01*
X108603395Y-99758273D01*
X108498086Y-100012510D01*
X108444400Y-100282408D01*
X108444400Y-100557592D01*
X108498086Y-100827490D01*
X108603395Y-101081727D01*
X108756280Y-101310535D01*
X108950865Y-101505120D01*
X109179673Y-101658005D01*
X109256915Y-101690000D01*
X109179673Y-101721995D01*
X108950865Y-101874880D01*
X108756280Y-102069465D01*
X108603395Y-102298273D01*
X108498086Y-102552510D01*
X108444400Y-102822408D01*
X108444400Y-103097592D01*
X108498086Y-103367490D01*
X108603395Y-103621727D01*
X108756280Y-103850535D01*
X108950865Y-104045120D01*
X109179673Y-104198005D01*
X109433910Y-104303314D01*
X109703808Y-104357000D01*
X109840000Y-104357000D01*
X109840000Y-105467581D01*
X109836807Y-105500000D01*
X109849550Y-105629383D01*
X109887290Y-105753793D01*
X109948575Y-105868450D01*
X109964037Y-105887290D01*
X110031052Y-105968948D01*
X110131550Y-106051425D01*
X110246207Y-106112710D01*
X110370617Y-106150450D01*
X110500000Y-106163193D01*
X110532419Y-106160000D01*
X124467581Y-106160000D01*
X124500000Y-106163193D01*
X124532419Y-106160000D01*
X124629383Y-106150450D01*
X124753793Y-106112710D01*
X124868450Y-106051425D01*
X124968948Y-105968948D01*
X125051425Y-105868450D01*
X125112710Y-105753793D01*
X125150450Y-105629383D01*
X125163193Y-105500000D01*
X125160000Y-105467581D01*
X125160000Y-104357000D01*
X125198992Y-104357000D01*
X125468890Y-104303314D01*
X125723127Y-104198005D01*
X125951935Y-104045120D01*
X126146520Y-103850535D01*
X126299405Y-103621727D01*
X126404714Y-103367490D01*
X126458400Y-103097592D01*
X126458400Y-102822408D01*
X126404714Y-102552510D01*
X126299405Y-102298273D01*
X126146520Y-102069465D01*
X125951935Y-101874880D01*
X125723127Y-101721995D01*
X125645885Y-101690000D01*
X125723127Y-101658005D01*
X125951935Y-101505120D01*
X126146520Y-101310535D01*
X126299405Y-101081727D01*
X126404714Y-100827490D01*
X126458400Y-100557592D01*
X126458400Y-100282408D01*
X126404714Y-100012510D01*
X126299405Y-99758273D01*
X126146520Y-99529465D01*
X125951935Y-99334880D01*
X125723127Y-99181995D01*
X125645885Y-99150000D01*
X125723127Y-99118005D01*
X125951935Y-98965120D01*
X126146520Y-98770535D01*
X126299405Y-98541727D01*
X126404714Y-98287490D01*
X126458400Y-98017592D01*
X126458400Y-97742408D01*
X126404714Y-97472510D01*
X126299405Y-97218273D01*
X126146520Y-96989465D01*
X125951935Y-96794880D01*
X125723127Y-96641995D01*
X125645885Y-96610000D01*
X125723127Y-96578005D01*
X125951935Y-96425120D01*
X126146520Y-96230535D01*
X126299405Y-96001727D01*
X126404714Y-95747490D01*
X126458400Y-95477592D01*
X126458400Y-95202408D01*
X126404714Y-94932510D01*
X126299405Y-94678273D01*
X126146520Y-94449465D01*
X125951935Y-94254880D01*
X125723127Y-94101995D01*
X125645885Y-94070000D01*
X125723127Y-94038005D01*
X125951935Y-93885120D01*
X126146520Y-93690535D01*
X126299405Y-93461727D01*
X126404714Y-93207490D01*
X126458400Y-92937592D01*
X126458400Y-92662408D01*
X126404714Y-92392510D01*
X126299405Y-92138273D01*
X126146520Y-91909465D01*
X125951935Y-91714880D01*
X125723127Y-91561995D01*
X125645885Y-91530000D01*
X125723127Y-91498005D01*
X125951935Y-91345120D01*
X126146520Y-91150535D01*
X126299405Y-90921727D01*
X126404714Y-90667490D01*
X126458400Y-90397592D01*
X126458400Y-90122408D01*
X126404714Y-89852510D01*
X126299405Y-89598273D01*
X126146520Y-89369465D01*
X125951935Y-89174880D01*
X125723127Y-89021995D01*
X125645885Y-88990000D01*
X125723127Y-88958005D01*
X125951935Y-88805120D01*
X126146520Y-88610535D01*
X126299405Y-88381727D01*
X126404714Y-88127490D01*
X126458400Y-87857592D01*
X126458400Y-87582408D01*
X126404714Y-87312510D01*
X126299405Y-87058273D01*
X126146520Y-86829465D01*
X125951935Y-86634880D01*
X125723127Y-86481995D01*
X125645885Y-86450000D01*
X125723127Y-86418005D01*
X125951935Y-86265120D01*
X126146520Y-86070535D01*
X126299405Y-85841727D01*
X126404714Y-85587490D01*
X126458400Y-85317592D01*
X126458400Y-85042408D01*
X126404714Y-84772510D01*
X126299405Y-84518273D01*
X126146520Y-84289465D01*
X125951935Y-84094880D01*
X125723127Y-83941995D01*
X125651457Y-83912308D01*
X125664423Y-83907636D01*
X125780380Y-83845656D01*
X125847360Y-83605565D01*
X125160000Y-82918205D01*
X125160000Y-82640000D01*
X125241005Y-82640000D01*
X126026965Y-83425960D01*
X126267056Y-83358980D01*
X126384156Y-83109952D01*
X126450423Y-82842865D01*
X126463310Y-82567983D01*
X126422322Y-82295867D01*
X126329036Y-82036977D01*
X126267056Y-81921020D01*
X126026965Y-81854040D01*
X125241005Y-82640000D01*
X125160000Y-82640000D01*
X125160000Y-82361795D01*
X125847360Y-81674435D01*
X125780380Y-81434344D01*
X125649756Y-81372921D01*
X125664423Y-81367636D01*
X125780380Y-81305656D01*
X125847360Y-81065565D01*
X125160000Y-80378205D01*
X125160000Y-80100000D01*
X125241005Y-80100000D01*
X126026965Y-80885960D01*
X126267056Y-80818980D01*
X126384156Y-80569952D01*
X126450423Y-80302865D01*
X126463310Y-80027983D01*
X126422322Y-79755867D01*
X126329036Y-79496977D01*
X126267056Y-79381020D01*
X126026965Y-79314040D01*
X125241005Y-80100000D01*
X125160000Y-80100000D01*
X125160000Y-79821795D01*
X125847360Y-79134435D01*
X125780380Y-78894344D01*
X125644640Y-78830515D01*
X125723127Y-78798005D01*
X125951935Y-78645120D01*
X126146520Y-78450535D01*
X126299405Y-78221727D01*
X126404714Y-77967490D01*
X126458400Y-77697592D01*
X126458400Y-77422408D01*
X126404714Y-77152510D01*
X126299405Y-76898273D01*
X126146520Y-76669465D01*
X125951935Y-76474880D01*
X125723127Y-76321995D01*
X125645885Y-76290000D01*
X125723127Y-76258005D01*
X125951935Y-76105120D01*
X126146520Y-75910535D01*
X126299405Y-75681727D01*
X126404714Y-75427490D01*
X126458400Y-75157592D01*
X126458400Y-74882408D01*
X127541600Y-74882408D01*
X127541600Y-75157592D01*
X127595286Y-75427490D01*
X127700595Y-75681727D01*
X127853480Y-75910535D01*
X128048065Y-76105120D01*
X128276873Y-76258005D01*
X128354115Y-76290000D01*
X128276873Y-76321995D01*
X128048065Y-76474880D01*
X127853480Y-76669465D01*
X127700595Y-76898273D01*
X127595286Y-77152510D01*
X127541600Y-77422408D01*
X127541600Y-77697592D01*
X127595286Y-77967490D01*
X127700595Y-78221727D01*
X127853480Y-78450535D01*
X128048065Y-78645120D01*
X128276873Y-78798005D01*
X128354115Y-78830000D01*
X128276873Y-78861995D01*
X128048065Y-79014880D01*
X127853480Y-79209465D01*
X127700595Y-79438273D01*
X127595286Y-79692510D01*
X127541600Y-79962408D01*
X127541600Y-80237592D01*
X127595286Y-80507490D01*
X127700595Y-80761727D01*
X127853480Y-80990535D01*
X128048065Y-81185120D01*
X128276873Y-81338005D01*
X128354115Y-81370000D01*
X128276873Y-81401995D01*
X128048065Y-81554880D01*
X127853480Y-81749465D01*
X127700595Y-81978273D01*
X127595286Y-82232510D01*
X127541600Y-82502408D01*
X127541600Y-82777592D01*
X127595286Y-83047490D01*
X127700595Y-83301727D01*
X127853480Y-83530535D01*
X128048065Y-83725120D01*
X128276873Y-83878005D01*
X128354115Y-83910000D01*
X128276873Y-83941995D01*
X128048065Y-84094880D01*
X127853480Y-84289465D01*
X127700595Y-84518273D01*
X127595286Y-84772510D01*
X127541600Y-85042408D01*
X127541600Y-85317592D01*
X127595286Y-85587490D01*
X127700595Y-85841727D01*
X127853480Y-86070535D01*
X128048065Y-86265120D01*
X128276873Y-86418005D01*
X128354115Y-86450000D01*
X128276873Y-86481995D01*
X128048065Y-86634880D01*
X127853480Y-86829465D01*
X127700595Y-87058273D01*
X127595286Y-87312510D01*
X127541600Y-87582408D01*
X127541600Y-87857592D01*
X127595286Y-88127490D01*
X127700595Y-88381727D01*
X127853480Y-88610535D01*
X128048065Y-88805120D01*
X128276873Y-88958005D01*
X128354115Y-88990000D01*
X128276873Y-89021995D01*
X128048065Y-89174880D01*
X127853480Y-89369465D01*
X127700595Y-89598273D01*
X127595286Y-89852510D01*
X127541600Y-90122408D01*
X127541600Y-90397592D01*
X127595286Y-90667490D01*
X127700595Y-90921727D01*
X127853480Y-91150535D01*
X128048065Y-91345120D01*
X128276873Y-91498005D01*
X128354115Y-91530000D01*
X128276873Y-91561995D01*
X128048065Y-91714880D01*
X127853480Y-91909465D01*
X127700595Y-92138273D01*
X127595286Y-92392510D01*
X127541600Y-92662408D01*
X127541600Y-92937592D01*
X127595286Y-93207490D01*
X127700595Y-93461727D01*
X127853480Y-93690535D01*
X128048065Y-93885120D01*
X128276873Y-94038005D01*
X128354115Y-94070000D01*
X128276873Y-94101995D01*
X128048065Y-94254880D01*
X127853480Y-94449465D01*
X127700595Y-94678273D01*
X127595286Y-94932510D01*
X127541600Y-95202408D01*
X127541600Y-95477592D01*
X127595286Y-95747490D01*
X127700595Y-96001727D01*
X127853480Y-96230535D01*
X128048065Y-96425120D01*
X128276873Y-96578005D01*
X128354115Y-96610000D01*
X128276873Y-96641995D01*
X128048065Y-96794880D01*
X127853480Y-96989465D01*
X127700595Y-97218273D01*
X127595286Y-97472510D01*
X127541600Y-97742408D01*
X127541600Y-98017592D01*
X127595286Y-98287490D01*
X127700595Y-98541727D01*
X127853480Y-98770535D01*
X128048065Y-98965120D01*
X128276873Y-99118005D01*
X128354115Y-99150000D01*
X128276873Y-99181995D01*
X128048065Y-99334880D01*
X127853480Y-99529465D01*
X127700595Y-99758273D01*
X127595286Y-100012510D01*
X127541600Y-100282408D01*
X127541600Y-100557592D01*
X127595286Y-100827490D01*
X127700595Y-101081727D01*
X127853480Y-101310535D01*
X128048065Y-101505120D01*
X128276873Y-101658005D01*
X128354115Y-101690000D01*
X128276873Y-101721995D01*
X128048065Y-101874880D01*
X127853480Y-102069465D01*
X127700595Y-102298273D01*
X127595286Y-102552510D01*
X127541600Y-102822408D01*
X127541600Y-103097592D01*
X127595286Y-103367490D01*
X127700595Y-103621727D01*
X127853480Y-103850535D01*
X128048065Y-104045120D01*
X128276873Y-104198005D01*
X128531110Y-104303314D01*
X128801008Y-104357000D01*
X128840001Y-104357000D01*
X128840000Y-112467581D01*
X128836807Y-112500000D01*
X128849550Y-112629383D01*
X128887290Y-112753793D01*
X128948575Y-112868450D01*
X128964037Y-112887290D01*
X129031052Y-112968948D01*
X129131550Y-113051425D01*
X129246207Y-113112710D01*
X129370617Y-113150450D01*
X129500000Y-113163193D01*
X129532419Y-113160000D01*
X143467581Y-113160000D01*
X143500000Y-113163193D01*
X143532419Y-113160000D01*
X143629383Y-113150450D01*
X143753793Y-113112710D01*
X143868450Y-113051425D01*
X143968948Y-112968948D01*
X144051425Y-112868450D01*
X144112710Y-112753793D01*
X144150450Y-112629383D01*
X144163193Y-112500000D01*
X144160000Y-112467581D01*
X144160000Y-104357000D01*
X144296192Y-104357000D01*
X144566090Y-104303314D01*
X144820327Y-104198005D01*
X145049135Y-104045120D01*
X145243720Y-103850535D01*
X145396605Y-103621727D01*
X145501914Y-103367490D01*
X145555600Y-103097592D01*
X145555600Y-102822408D01*
X145501914Y-102552510D01*
X145396605Y-102298273D01*
X145243720Y-102069465D01*
X145049135Y-101874880D01*
X144820327Y-101721995D01*
X144743085Y-101690000D01*
X144820327Y-101658005D01*
X145049135Y-101505120D01*
X145243720Y-101310535D01*
X145396605Y-101081727D01*
X145501914Y-100827490D01*
X145555600Y-100557592D01*
X145555600Y-100282408D01*
X145501914Y-100012510D01*
X145396605Y-99758273D01*
X145243720Y-99529465D01*
X145214255Y-99500000D01*
X147836807Y-99500000D01*
X147840001Y-99532429D01*
X147840000Y-113467581D01*
X147836807Y-113500000D01*
X147849550Y-113629383D01*
X147887290Y-113753793D01*
X147948575Y-113868450D01*
X148031052Y-113968948D01*
X148131550Y-114051425D01*
X148246207Y-114112710D01*
X148370617Y-114150450D01*
X148500000Y-114163193D01*
X148532419Y-114160000D01*
X162467581Y-114160000D01*
X162500000Y-114163193D01*
X162532419Y-114160000D01*
X162629383Y-114150450D01*
X162753793Y-114112710D01*
X162868450Y-114051425D01*
X162968948Y-113968948D01*
X163051425Y-113868450D01*
X163112710Y-113753793D01*
X163150450Y-113629383D01*
X163163193Y-113500000D01*
X163160000Y-113467581D01*
X163160000Y-99532419D01*
X163163193Y-99500000D01*
X163150450Y-99370617D01*
X163112710Y-99246207D01*
X163051425Y-99131550D01*
X162968948Y-99031052D01*
X162868450Y-98948575D01*
X162753793Y-98887290D01*
X162629383Y-98849550D01*
X162532419Y-98840000D01*
X162500000Y-98836807D01*
X162467581Y-98840000D01*
X148532419Y-98840000D01*
X148500000Y-98836807D01*
X148467581Y-98840000D01*
X148370617Y-98849550D01*
X148246207Y-98887290D01*
X148131550Y-98948575D01*
X148031052Y-99031052D01*
X147948575Y-99131550D01*
X147887290Y-99246207D01*
X147849550Y-99370617D01*
X147836807Y-99500000D01*
X145214255Y-99500000D01*
X145049135Y-99334880D01*
X144820327Y-99181995D01*
X144743085Y-99150000D01*
X144820327Y-99118005D01*
X145049135Y-98965120D01*
X145243720Y-98770535D01*
X145396605Y-98541727D01*
X145501914Y-98287490D01*
X145555600Y-98017592D01*
X145555600Y-97742408D01*
X145501914Y-97472510D01*
X145396605Y-97218273D01*
X145243720Y-96989465D01*
X145049135Y-96794880D01*
X144820327Y-96641995D01*
X144743085Y-96610000D01*
X144820327Y-96578005D01*
X145049135Y-96425120D01*
X145243720Y-96230535D01*
X145396605Y-96001727D01*
X145501914Y-95747490D01*
X145555600Y-95477592D01*
X145555600Y-95202408D01*
X145501914Y-94932510D01*
X145396605Y-94678273D01*
X145243720Y-94449465D01*
X145049135Y-94254880D01*
X144820327Y-94101995D01*
X144743085Y-94070000D01*
X144820327Y-94038005D01*
X145049135Y-93885120D01*
X145243720Y-93690535D01*
X145396605Y-93461727D01*
X145501914Y-93207490D01*
X145555600Y-92937592D01*
X145555600Y-92662408D01*
X145501914Y-92392510D01*
X145396605Y-92138273D01*
X145243720Y-91909465D01*
X145049135Y-91714880D01*
X144820327Y-91561995D01*
X144743085Y-91530000D01*
X144820327Y-91498005D01*
X145049135Y-91345120D01*
X145243720Y-91150535D01*
X145396605Y-90921727D01*
X145501914Y-90667490D01*
X145555600Y-90397592D01*
X145555600Y-90122408D01*
X145501914Y-89852510D01*
X145396605Y-89598273D01*
X145243720Y-89369465D01*
X145049135Y-89174880D01*
X144820327Y-89021995D01*
X144743085Y-88990000D01*
X144820327Y-88958005D01*
X145049135Y-88805120D01*
X145243720Y-88610535D01*
X145396605Y-88381727D01*
X145501914Y-88127490D01*
X145555600Y-87857592D01*
X145555600Y-87582408D01*
X145501914Y-87312510D01*
X145396605Y-87058273D01*
X145243720Y-86829465D01*
X145049135Y-86634880D01*
X144820327Y-86481995D01*
X144743085Y-86450000D01*
X144820327Y-86418005D01*
X145049135Y-86265120D01*
X145243720Y-86070535D01*
X145396605Y-85841727D01*
X145501914Y-85587490D01*
X145555600Y-85317592D01*
X145555600Y-85042408D01*
X145501914Y-84772510D01*
X145396605Y-84518273D01*
X145243720Y-84289465D01*
X145049135Y-84094880D01*
X144820327Y-83941995D01*
X144743085Y-83910000D01*
X144820327Y-83878005D01*
X145049135Y-83725120D01*
X145243720Y-83530535D01*
X145396605Y-83301727D01*
X145501914Y-83047490D01*
X145555600Y-82777592D01*
X145555600Y-82502408D01*
X145501914Y-82232510D01*
X145396605Y-81978273D01*
X145243720Y-81749465D01*
X145049135Y-81554880D01*
X144820327Y-81401995D01*
X144743085Y-81370000D01*
X144820327Y-81338005D01*
X145049135Y-81185120D01*
X145243720Y-80990535D01*
X145396605Y-80761727D01*
X145501914Y-80507490D01*
X145503403Y-80500000D01*
X147836807Y-80500000D01*
X147840001Y-80532429D01*
X147840000Y-94467581D01*
X147836807Y-94500000D01*
X147849550Y-94629383D01*
X147887290Y-94753793D01*
X147948575Y-94868450D01*
X148001148Y-94932510D01*
X148031052Y-94968948D01*
X148131550Y-95051425D01*
X148246207Y-95112710D01*
X148370617Y-95150450D01*
X148500000Y-95163193D01*
X148532419Y-95160000D01*
X162467581Y-95160000D01*
X162500000Y-95163193D01*
X162532419Y-95160000D01*
X162629383Y-95150450D01*
X162753793Y-95112710D01*
X162868450Y-95051425D01*
X162968948Y-94968948D01*
X163051425Y-94868450D01*
X163112710Y-94753793D01*
X163150450Y-94629383D01*
X163163193Y-94500000D01*
X163160000Y-94467581D01*
X163160000Y-82750324D01*
X163465000Y-82750324D01*
X163465000Y-83249676D01*
X163562418Y-83739432D01*
X163753512Y-84200773D01*
X164030937Y-84615968D01*
X164384032Y-84969063D01*
X164799227Y-85246488D01*
X165260568Y-85437582D01*
X165750324Y-85535000D01*
X166249676Y-85535000D01*
X166739432Y-85437582D01*
X167200773Y-85246488D01*
X167615968Y-84969063D01*
X167969063Y-84615968D01*
X168246488Y-84200773D01*
X168437582Y-83739432D01*
X168535000Y-83249676D01*
X168535000Y-82750324D01*
X168437582Y-82260568D01*
X168246488Y-81799227D01*
X167969063Y-81384032D01*
X167615968Y-81030937D01*
X167200773Y-80753512D01*
X166739432Y-80562418D01*
X166249676Y-80465000D01*
X165750324Y-80465000D01*
X165260568Y-80562418D01*
X164799227Y-80753512D01*
X164384032Y-81030937D01*
X164030937Y-81384032D01*
X163753512Y-81799227D01*
X163562418Y-82260568D01*
X163465000Y-82750324D01*
X163160000Y-82750324D01*
X163160000Y-80532419D01*
X163163193Y-80500000D01*
X163150450Y-80370617D01*
X163112710Y-80246207D01*
X163051425Y-80131550D01*
X162968948Y-80031052D01*
X162868450Y-79948575D01*
X162753793Y-79887290D01*
X162629383Y-79849550D01*
X162532419Y-79840000D01*
X162500000Y-79836807D01*
X162467581Y-79840000D01*
X148532419Y-79840000D01*
X148500000Y-79836807D01*
X148467581Y-79840000D01*
X148370617Y-79849550D01*
X148246207Y-79887290D01*
X148131550Y-79948575D01*
X148031052Y-80031052D01*
X147948575Y-80131550D01*
X147887290Y-80246207D01*
X147849550Y-80370617D01*
X147836807Y-80500000D01*
X145503403Y-80500000D01*
X145555600Y-80237592D01*
X145555600Y-79962408D01*
X145501914Y-79692510D01*
X145396605Y-79438273D01*
X145243720Y-79209465D01*
X145049135Y-79014880D01*
X144820327Y-78861995D01*
X144743085Y-78830000D01*
X144820327Y-78798005D01*
X145049135Y-78645120D01*
X145243720Y-78450535D01*
X145396605Y-78221727D01*
X145501914Y-77967490D01*
X145555600Y-77697592D01*
X145555600Y-77422408D01*
X145501914Y-77152510D01*
X145396605Y-76898273D01*
X145243720Y-76669465D01*
X145049135Y-76474880D01*
X144820327Y-76321995D01*
X144743085Y-76290000D01*
X144820327Y-76258005D01*
X145049135Y-76105120D01*
X145243720Y-75910535D01*
X145396605Y-75681727D01*
X145501914Y-75427490D01*
X145555600Y-75157592D01*
X145555600Y-74882408D01*
X145501914Y-74612510D01*
X145396605Y-74358273D01*
X145243720Y-74129465D01*
X145049135Y-73934880D01*
X144820327Y-73781995D01*
X144566090Y-73676686D01*
X144296192Y-73623000D01*
X144021008Y-73623000D01*
X143751110Y-73676686D01*
X143496873Y-73781995D01*
X143268065Y-73934880D01*
X143073480Y-74129465D01*
X142920595Y-74358273D01*
X142815286Y-74612510D01*
X142761600Y-74882408D01*
X142761600Y-75157592D01*
X142815286Y-75427490D01*
X142920595Y-75681727D01*
X143073480Y-75910535D01*
X143268065Y-76105120D01*
X143496873Y-76258005D01*
X143574115Y-76290000D01*
X143496873Y-76321995D01*
X143268065Y-76474880D01*
X143073480Y-76669465D01*
X142920595Y-76898273D01*
X142815286Y-77152510D01*
X142761600Y-77422408D01*
X142761600Y-77697592D01*
X142815286Y-77967490D01*
X142920595Y-78221727D01*
X143073480Y-78450535D01*
X143268065Y-78645120D01*
X143496873Y-78798005D01*
X143574115Y-78830000D01*
X143546601Y-78841397D01*
X143532419Y-78840000D01*
X143500000Y-78836807D01*
X143467581Y-78840000D01*
X129547227Y-78840000D01*
X129523085Y-78830000D01*
X129600327Y-78798005D01*
X129829135Y-78645120D01*
X130023720Y-78450535D01*
X130176605Y-78221727D01*
X130281914Y-77967490D01*
X130335600Y-77697592D01*
X130335600Y-77422408D01*
X130281914Y-77152510D01*
X130176605Y-76898273D01*
X130023720Y-76669465D01*
X129829135Y-76474880D01*
X129600327Y-76321995D01*
X129523085Y-76290000D01*
X129600327Y-76258005D01*
X129829135Y-76105120D01*
X130023720Y-75910535D01*
X130176605Y-75681727D01*
X130281914Y-75427490D01*
X130335600Y-75157592D01*
X130335600Y-74882408D01*
X130281914Y-74612510D01*
X130176605Y-74358273D01*
X130023720Y-74129465D01*
X129829135Y-73934880D01*
X129600327Y-73781995D01*
X129346090Y-73676686D01*
X129076192Y-73623000D01*
X128801008Y-73623000D01*
X128531110Y-73676686D01*
X128276873Y-73781995D01*
X128048065Y-73934880D01*
X127853480Y-74129465D01*
X127700595Y-74358273D01*
X127595286Y-74612510D01*
X127541600Y-74882408D01*
X126458400Y-74882408D01*
X126404714Y-74612510D01*
X126299405Y-74358273D01*
X126146520Y-74129465D01*
X125951935Y-73934880D01*
X125723127Y-73781995D01*
X125468890Y-73676686D01*
X125198992Y-73623000D01*
X125160000Y-73623000D01*
X125160000Y-72532419D01*
X125163193Y-72500000D01*
X125150450Y-72370617D01*
X125112710Y-72246207D01*
X125051425Y-72131550D01*
X124968948Y-72031052D01*
X124868450Y-71948575D01*
X124753793Y-71887290D01*
X124629383Y-71849550D01*
X124532419Y-71840000D01*
X124500000Y-71836807D01*
X124467581Y-71840000D01*
X110532419Y-71840000D01*
X110500000Y-71836807D01*
X110467581Y-71840000D01*
X110370617Y-71849550D01*
X110246207Y-71887290D01*
X110131550Y-71948575D01*
X110031052Y-72031052D01*
X109948575Y-72131550D01*
X109887290Y-72246207D01*
X109849550Y-72370617D01*
X109836807Y-72500000D01*
X109840001Y-72532429D01*
X109840001Y-73623000D01*
X109703808Y-73623000D01*
X109433910Y-73676686D01*
X109179673Y-73781995D01*
X108950865Y-73934880D01*
X108756280Y-74129465D01*
X108603395Y-74358273D01*
X108498086Y-74612510D01*
X108444400Y-74882408D01*
X93378359Y-74882408D01*
X93437582Y-74739432D01*
X93535000Y-74249676D01*
X93535000Y-73750324D01*
X93437582Y-73260568D01*
X93246488Y-72799227D01*
X92969063Y-72384032D01*
X92615968Y-72030937D01*
X92200773Y-71753512D01*
X91739432Y-71562418D01*
X91249676Y-71465000D01*
X90750324Y-71465000D01*
X90260568Y-71562418D01*
X89799227Y-71753512D01*
X89384032Y-72030937D01*
X89030937Y-72384032D01*
X88753512Y-72799227D01*
X88562418Y-73260568D01*
X88465000Y-73750324D01*
X87160000Y-73750324D01*
X87160000Y-73532419D01*
X87163193Y-73500000D01*
X87150450Y-73370617D01*
X87112710Y-73246207D01*
X87051425Y-73131550D01*
X86968948Y-73031052D01*
X86868450Y-72948575D01*
X86753793Y-72887290D01*
X86629383Y-72849550D01*
X86532419Y-72840000D01*
X86500000Y-72836807D01*
X86467581Y-72840000D01*
X72532419Y-72840000D01*
X72500000Y-72836807D01*
X72467581Y-72840000D01*
X72370617Y-72849550D01*
X72246207Y-72887290D01*
X72131550Y-72948575D01*
X72031052Y-73031052D01*
X71948575Y-73131550D01*
X71887290Y-73246207D01*
X71849550Y-73370617D01*
X71836807Y-73500000D01*
X70660000Y-73500000D01*
X70660000Y-73032279D01*
X70707670Y-72546107D01*
X70839489Y-72109502D01*
X71053600Y-71706815D01*
X71341848Y-71353388D01*
X71693261Y-71062673D01*
X72094439Y-70845758D01*
X72530113Y-70710894D01*
X73014344Y-70660000D01*
X166967721Y-70660000D01*
X167453893Y-70707670D01*
G36*
X143268065Y-94254880D02*
G01*
X143073480Y-94449465D01*
X142920595Y-94678273D01*
X142815286Y-94932510D01*
X142761600Y-95202408D01*
X142761600Y-95477592D01*
X142815286Y-95747490D01*
X142920595Y-96001727D01*
X143073480Y-96230535D01*
X143268065Y-96425120D01*
X143496873Y-96578005D01*
X143574115Y-96610000D01*
X143496873Y-96641995D01*
X143268065Y-96794880D01*
X143073480Y-96989465D01*
X142920595Y-97218273D01*
X142815286Y-97472510D01*
X142761600Y-97742408D01*
X142761600Y-97840000D01*
X130335600Y-97840000D01*
X130335600Y-97742408D01*
X130281914Y-97472510D01*
X130176605Y-97218273D01*
X130023720Y-96989465D01*
X129829135Y-96794880D01*
X129600327Y-96641995D01*
X129523085Y-96610000D01*
X129600327Y-96578005D01*
X129829135Y-96425120D01*
X130023720Y-96230535D01*
X130176605Y-96001727D01*
X130281914Y-95747490D01*
X130335600Y-95477592D01*
X130335600Y-95202408D01*
X130281914Y-94932510D01*
X130176605Y-94678273D01*
X130023720Y-94449465D01*
X129829135Y-94254880D01*
X129687137Y-94160000D01*
X143410063Y-94160000D01*
X143268065Y-94254880D01*
X143268065Y-94254880D01*
G37*
X143268065Y-94254880D02*
X143073480Y-94449465D01*
X142920595Y-94678273D01*
X142815286Y-94932510D01*
X142761600Y-95202408D01*
X142761600Y-95477592D01*
X142815286Y-95747490D01*
X142920595Y-96001727D01*
X143073480Y-96230535D01*
X143268065Y-96425120D01*
X143496873Y-96578005D01*
X143574115Y-96610000D01*
X143496873Y-96641995D01*
X143268065Y-96794880D01*
X143073480Y-96989465D01*
X142920595Y-97218273D01*
X142815286Y-97472510D01*
X142761600Y-97742408D01*
X142761600Y-97840000D01*
X130335600Y-97840000D01*
X130335600Y-97742408D01*
X130281914Y-97472510D01*
X130176605Y-97218273D01*
X130023720Y-96989465D01*
X129829135Y-96794880D01*
X129600327Y-96641995D01*
X129523085Y-96610000D01*
X129600327Y-96578005D01*
X129829135Y-96425120D01*
X130023720Y-96230535D01*
X130176605Y-96001727D01*
X130281914Y-95747490D01*
X130335600Y-95477592D01*
X130335600Y-95202408D01*
X130281914Y-94932510D01*
X130176605Y-94678273D01*
X130023720Y-94449465D01*
X129829135Y-94254880D01*
X129687137Y-94160000D01*
X143410063Y-94160000D01*
X143268065Y-94254880D01*
G36*
X123718086Y-87312510D02*
G01*
X123664400Y-87582408D01*
X123664400Y-87857592D01*
X123718086Y-88127490D01*
X123823395Y-88381727D01*
X123976280Y-88610535D01*
X124170865Y-88805120D01*
X124399673Y-88958005D01*
X124476915Y-88990000D01*
X124399673Y-89021995D01*
X124170865Y-89174880D01*
X123976280Y-89369465D01*
X123823395Y-89598273D01*
X123718086Y-89852510D01*
X123664400Y-90122408D01*
X123664400Y-90397592D01*
X123718086Y-90667490D01*
X123789542Y-90840000D01*
X111113258Y-90840000D01*
X111184714Y-90667490D01*
X111238400Y-90397592D01*
X111238400Y-90122408D01*
X111184714Y-89852510D01*
X111079405Y-89598273D01*
X110926520Y-89369465D01*
X110731935Y-89174880D01*
X110503127Y-89021995D01*
X110425885Y-88990000D01*
X110503127Y-88958005D01*
X110731935Y-88805120D01*
X110926520Y-88610535D01*
X111079405Y-88381727D01*
X111184714Y-88127490D01*
X111238400Y-87857592D01*
X111238400Y-87582408D01*
X111184714Y-87312510D01*
X111121542Y-87160000D01*
X123781258Y-87160000D01*
X123718086Y-87312510D01*
X123718086Y-87312510D01*
G37*
X123718086Y-87312510D02*
X123664400Y-87582408D01*
X123664400Y-87857592D01*
X123718086Y-88127490D01*
X123823395Y-88381727D01*
X123976280Y-88610535D01*
X124170865Y-88805120D01*
X124399673Y-88958005D01*
X124476915Y-88990000D01*
X124399673Y-89021995D01*
X124170865Y-89174880D01*
X123976280Y-89369465D01*
X123823395Y-89598273D01*
X123718086Y-89852510D01*
X123664400Y-90122408D01*
X123664400Y-90397592D01*
X123718086Y-90667490D01*
X123789542Y-90840000D01*
X111113258Y-90840000D01*
X111184714Y-90667490D01*
X111238400Y-90397592D01*
X111238400Y-90122408D01*
X111184714Y-89852510D01*
X111079405Y-89598273D01*
X110926520Y-89369465D01*
X110731935Y-89174880D01*
X110503127Y-89021995D01*
X110425885Y-88990000D01*
X110503127Y-88958005D01*
X110731935Y-88805120D01*
X110926520Y-88610535D01*
X111079405Y-88381727D01*
X111184714Y-88127490D01*
X111238400Y-87857592D01*
X111238400Y-87582408D01*
X111184714Y-87312510D01*
X111121542Y-87160000D01*
X123781258Y-87160000D01*
X123718086Y-87312510D01*
M02*
