G04 #@! TF.GenerationSoftware,KiCad,Pcbnew,(5.1.0)-1*
G04 #@! TF.CreationDate,2020-01-03T18:30:48+09:00*
G04 #@! TF.ProjectId,100cm^3,31303063-6d5e-4332-9e6b-696361645f70,rev?*
G04 #@! TF.SameCoordinates,Original*
G04 #@! TF.FileFunction,Soldermask,Top*
G04 #@! TF.FilePolarity,Negative*
%FSLAX46Y46*%
G04 Gerber Fmt 4.6, Leading zero omitted, Abs format (unit mm)*
G04 Created by KiCad (PCBNEW (5.1.0)-1) date 2020-01-03 18:30:48*
%MOMM*%
%LPD*%
G04 APERTURE LIST*
%ADD10C,0.100000*%
G04 APERTURE END LIST*
D10*
G36*
X91569085Y-148123975D02*
G01*
X91924143Y-148271045D01*
X91924145Y-148271046D01*
X92243690Y-148484559D01*
X92515441Y-148756310D01*
X92728954Y-149075855D01*
X92728955Y-149075857D01*
X92876025Y-149430915D01*
X92951000Y-149807842D01*
X92951000Y-150192158D01*
X92876025Y-150569085D01*
X92728955Y-150924143D01*
X92728954Y-150924145D01*
X92515441Y-151243690D01*
X92243690Y-151515441D01*
X91924145Y-151728954D01*
X91924144Y-151728955D01*
X91924143Y-151728955D01*
X91569085Y-151876025D01*
X91192158Y-151951000D01*
X90807842Y-151951000D01*
X90430915Y-151876025D01*
X90075857Y-151728955D01*
X90075856Y-151728955D01*
X90075855Y-151728954D01*
X89756310Y-151515441D01*
X89484559Y-151243690D01*
X89271046Y-150924145D01*
X89271045Y-150924143D01*
X89123975Y-150569085D01*
X89049000Y-150192158D01*
X89049000Y-149807842D01*
X89123975Y-149430915D01*
X89271045Y-149075857D01*
X89271046Y-149075855D01*
X89484559Y-148756310D01*
X89756310Y-148484559D01*
X90075855Y-148271046D01*
X90075857Y-148271045D01*
X90430915Y-148123975D01*
X90807842Y-148049000D01*
X91192158Y-148049000D01*
X91569085Y-148123975D01*
X91569085Y-148123975D01*
G37*
G36*
X166569085Y-131123975D02*
G01*
X166924143Y-131271045D01*
X166924145Y-131271046D01*
X167243690Y-131484559D01*
X167515441Y-131756310D01*
X167728954Y-132075855D01*
X167728955Y-132075857D01*
X167876025Y-132430915D01*
X167951000Y-132807842D01*
X167951000Y-133192158D01*
X167876025Y-133569085D01*
X167728955Y-133924143D01*
X167728954Y-133924145D01*
X167515441Y-134243690D01*
X167243690Y-134515441D01*
X166924145Y-134728954D01*
X166924144Y-134728955D01*
X166924143Y-134728955D01*
X166569085Y-134876025D01*
X166192158Y-134951000D01*
X165807842Y-134951000D01*
X165430915Y-134876025D01*
X165075857Y-134728955D01*
X165075856Y-134728955D01*
X165075855Y-134728954D01*
X164756310Y-134515441D01*
X164484559Y-134243690D01*
X164271046Y-133924145D01*
X164271045Y-133924143D01*
X164123975Y-133569085D01*
X164049000Y-133192158D01*
X164049000Y-132807842D01*
X164123975Y-132430915D01*
X164271045Y-132075857D01*
X164271046Y-132075855D01*
X164484559Y-131756310D01*
X164756310Y-131484559D01*
X165075855Y-131271046D01*
X165075857Y-131271045D01*
X165430915Y-131123975D01*
X165807842Y-131049000D01*
X166192158Y-131049000D01*
X166569085Y-131123975D01*
X166569085Y-131123975D01*
G37*
G36*
X110078542Y-102178242D02*
G01*
X110226501Y-102239529D01*
X110359655Y-102328499D01*
X110472901Y-102441745D01*
X110561871Y-102574899D01*
X110623158Y-102722858D01*
X110654400Y-102879925D01*
X110654400Y-103040075D01*
X110623158Y-103197142D01*
X110561871Y-103345101D01*
X110472901Y-103478255D01*
X110359655Y-103591501D01*
X110226501Y-103680471D01*
X110078542Y-103741758D01*
X109921475Y-103773000D01*
X109761325Y-103773000D01*
X109604258Y-103741758D01*
X109456299Y-103680471D01*
X109323145Y-103591501D01*
X109209899Y-103478255D01*
X109120929Y-103345101D01*
X109059642Y-103197142D01*
X109028400Y-103040075D01*
X109028400Y-102879925D01*
X109059642Y-102722858D01*
X109120929Y-102574899D01*
X109209899Y-102441745D01*
X109323145Y-102328499D01*
X109456299Y-102239529D01*
X109604258Y-102178242D01*
X109761325Y-102147000D01*
X109921475Y-102147000D01*
X110078542Y-102178242D01*
X110078542Y-102178242D01*
G37*
G36*
X129175742Y-102178242D02*
G01*
X129323701Y-102239529D01*
X129456855Y-102328499D01*
X129570101Y-102441745D01*
X129659071Y-102574899D01*
X129720358Y-102722858D01*
X129751600Y-102879925D01*
X129751600Y-103040075D01*
X129720358Y-103197142D01*
X129659071Y-103345101D01*
X129570101Y-103478255D01*
X129456855Y-103591501D01*
X129323701Y-103680471D01*
X129175742Y-103741758D01*
X129018675Y-103773000D01*
X128858525Y-103773000D01*
X128701458Y-103741758D01*
X128553499Y-103680471D01*
X128420345Y-103591501D01*
X128307099Y-103478255D01*
X128218129Y-103345101D01*
X128156842Y-103197142D01*
X128125600Y-103040075D01*
X128125600Y-102879925D01*
X128156842Y-102722858D01*
X128218129Y-102574899D01*
X128307099Y-102441745D01*
X128420345Y-102328499D01*
X128553499Y-102239529D01*
X128701458Y-102178242D01*
X128858525Y-102147000D01*
X129018675Y-102147000D01*
X129175742Y-102178242D01*
X129175742Y-102178242D01*
G37*
G36*
X144395742Y-102178242D02*
G01*
X144543701Y-102239529D01*
X144676855Y-102328499D01*
X144790101Y-102441745D01*
X144879071Y-102574899D01*
X144940358Y-102722858D01*
X144971600Y-102879925D01*
X144971600Y-103040075D01*
X144940358Y-103197142D01*
X144879071Y-103345101D01*
X144790101Y-103478255D01*
X144676855Y-103591501D01*
X144543701Y-103680471D01*
X144395742Y-103741758D01*
X144238675Y-103773000D01*
X144078525Y-103773000D01*
X143921458Y-103741758D01*
X143773499Y-103680471D01*
X143640345Y-103591501D01*
X143527099Y-103478255D01*
X143438129Y-103345101D01*
X143376842Y-103197142D01*
X143345600Y-103040075D01*
X143345600Y-102879925D01*
X143376842Y-102722858D01*
X143438129Y-102574899D01*
X143527099Y-102441745D01*
X143640345Y-102328499D01*
X143773499Y-102239529D01*
X143921458Y-102178242D01*
X144078525Y-102147000D01*
X144238675Y-102147000D01*
X144395742Y-102178242D01*
X144395742Y-102178242D01*
G37*
G36*
X125298542Y-102178242D02*
G01*
X125446501Y-102239529D01*
X125579655Y-102328499D01*
X125692901Y-102441745D01*
X125781871Y-102574899D01*
X125843158Y-102722858D01*
X125874400Y-102879925D01*
X125874400Y-103040075D01*
X125843158Y-103197142D01*
X125781871Y-103345101D01*
X125692901Y-103478255D01*
X125579655Y-103591501D01*
X125446501Y-103680471D01*
X125298542Y-103741758D01*
X125141475Y-103773000D01*
X124981325Y-103773000D01*
X124824258Y-103741758D01*
X124676299Y-103680471D01*
X124543145Y-103591501D01*
X124429899Y-103478255D01*
X124340929Y-103345101D01*
X124279642Y-103197142D01*
X124248400Y-103040075D01*
X124248400Y-102879925D01*
X124279642Y-102722858D01*
X124340929Y-102574899D01*
X124429899Y-102441745D01*
X124543145Y-102328499D01*
X124676299Y-102239529D01*
X124824258Y-102178242D01*
X124981325Y-102147000D01*
X125141475Y-102147000D01*
X125298542Y-102178242D01*
X125298542Y-102178242D01*
G37*
G36*
X125298542Y-99638242D02*
G01*
X125446501Y-99699529D01*
X125579655Y-99788499D01*
X125692901Y-99901745D01*
X125781871Y-100034899D01*
X125843158Y-100182858D01*
X125874400Y-100339925D01*
X125874400Y-100500075D01*
X125843158Y-100657142D01*
X125781871Y-100805101D01*
X125692901Y-100938255D01*
X125579655Y-101051501D01*
X125446501Y-101140471D01*
X125298542Y-101201758D01*
X125141475Y-101233000D01*
X124981325Y-101233000D01*
X124824258Y-101201758D01*
X124676299Y-101140471D01*
X124543145Y-101051501D01*
X124429899Y-100938255D01*
X124340929Y-100805101D01*
X124279642Y-100657142D01*
X124248400Y-100500075D01*
X124248400Y-100339925D01*
X124279642Y-100182858D01*
X124340929Y-100034899D01*
X124429899Y-99901745D01*
X124543145Y-99788499D01*
X124676299Y-99699529D01*
X124824258Y-99638242D01*
X124981325Y-99607000D01*
X125141475Y-99607000D01*
X125298542Y-99638242D01*
X125298542Y-99638242D01*
G37*
G36*
X110078542Y-99638242D02*
G01*
X110226501Y-99699529D01*
X110359655Y-99788499D01*
X110472901Y-99901745D01*
X110561871Y-100034899D01*
X110623158Y-100182858D01*
X110654400Y-100339925D01*
X110654400Y-100500075D01*
X110623158Y-100657142D01*
X110561871Y-100805101D01*
X110472901Y-100938255D01*
X110359655Y-101051501D01*
X110226501Y-101140471D01*
X110078542Y-101201758D01*
X109921475Y-101233000D01*
X109761325Y-101233000D01*
X109604258Y-101201758D01*
X109456299Y-101140471D01*
X109323145Y-101051501D01*
X109209899Y-100938255D01*
X109120929Y-100805101D01*
X109059642Y-100657142D01*
X109028400Y-100500075D01*
X109028400Y-100339925D01*
X109059642Y-100182858D01*
X109120929Y-100034899D01*
X109209899Y-99901745D01*
X109323145Y-99788499D01*
X109456299Y-99699529D01*
X109604258Y-99638242D01*
X109761325Y-99607000D01*
X109921475Y-99607000D01*
X110078542Y-99638242D01*
X110078542Y-99638242D01*
G37*
G36*
X129175742Y-99638242D02*
G01*
X129323701Y-99699529D01*
X129456855Y-99788499D01*
X129570101Y-99901745D01*
X129659071Y-100034899D01*
X129720358Y-100182858D01*
X129751600Y-100339925D01*
X129751600Y-100500075D01*
X129720358Y-100657142D01*
X129659071Y-100805101D01*
X129570101Y-100938255D01*
X129456855Y-101051501D01*
X129323701Y-101140471D01*
X129175742Y-101201758D01*
X129018675Y-101233000D01*
X128858525Y-101233000D01*
X128701458Y-101201758D01*
X128553499Y-101140471D01*
X128420345Y-101051501D01*
X128307099Y-100938255D01*
X128218129Y-100805101D01*
X128156842Y-100657142D01*
X128125600Y-100500075D01*
X128125600Y-100339925D01*
X128156842Y-100182858D01*
X128218129Y-100034899D01*
X128307099Y-99901745D01*
X128420345Y-99788499D01*
X128553499Y-99699529D01*
X128701458Y-99638242D01*
X128858525Y-99607000D01*
X129018675Y-99607000D01*
X129175742Y-99638242D01*
X129175742Y-99638242D01*
G37*
G36*
X144395742Y-99638242D02*
G01*
X144543701Y-99699529D01*
X144676855Y-99788499D01*
X144790101Y-99901745D01*
X144879071Y-100034899D01*
X144940358Y-100182858D01*
X144971600Y-100339925D01*
X144971600Y-100500075D01*
X144940358Y-100657142D01*
X144879071Y-100805101D01*
X144790101Y-100938255D01*
X144676855Y-101051501D01*
X144543701Y-101140471D01*
X144395742Y-101201758D01*
X144238675Y-101233000D01*
X144078525Y-101233000D01*
X143921458Y-101201758D01*
X143773499Y-101140471D01*
X143640345Y-101051501D01*
X143527099Y-100938255D01*
X143438129Y-100805101D01*
X143376842Y-100657142D01*
X143345600Y-100500075D01*
X143345600Y-100339925D01*
X143376842Y-100182858D01*
X143438129Y-100034899D01*
X143527099Y-99901745D01*
X143640345Y-99788499D01*
X143773499Y-99699529D01*
X143921458Y-99638242D01*
X144078525Y-99607000D01*
X144238675Y-99607000D01*
X144395742Y-99638242D01*
X144395742Y-99638242D01*
G37*
G36*
X125298542Y-97098242D02*
G01*
X125446501Y-97159529D01*
X125579655Y-97248499D01*
X125692901Y-97361745D01*
X125781871Y-97494899D01*
X125843158Y-97642858D01*
X125874400Y-97799925D01*
X125874400Y-97960075D01*
X125843158Y-98117142D01*
X125781871Y-98265101D01*
X125692901Y-98398255D01*
X125579655Y-98511501D01*
X125446501Y-98600471D01*
X125298542Y-98661758D01*
X125141475Y-98693000D01*
X124981325Y-98693000D01*
X124824258Y-98661758D01*
X124676299Y-98600471D01*
X124543145Y-98511501D01*
X124429899Y-98398255D01*
X124340929Y-98265101D01*
X124279642Y-98117142D01*
X124248400Y-97960075D01*
X124248400Y-97799925D01*
X124279642Y-97642858D01*
X124340929Y-97494899D01*
X124429899Y-97361745D01*
X124543145Y-97248499D01*
X124676299Y-97159529D01*
X124824258Y-97098242D01*
X124981325Y-97067000D01*
X125141475Y-97067000D01*
X125298542Y-97098242D01*
X125298542Y-97098242D01*
G37*
G36*
X144395742Y-97098242D02*
G01*
X144543701Y-97159529D01*
X144676855Y-97248499D01*
X144790101Y-97361745D01*
X144879071Y-97494899D01*
X144940358Y-97642858D01*
X144971600Y-97799925D01*
X144971600Y-97960075D01*
X144940358Y-98117142D01*
X144879071Y-98265101D01*
X144790101Y-98398255D01*
X144676855Y-98511501D01*
X144543701Y-98600471D01*
X144395742Y-98661758D01*
X144238675Y-98693000D01*
X144078525Y-98693000D01*
X143921458Y-98661758D01*
X143773499Y-98600471D01*
X143640345Y-98511501D01*
X143527099Y-98398255D01*
X143438129Y-98265101D01*
X143376842Y-98117142D01*
X143345600Y-97960075D01*
X143345600Y-97799925D01*
X143376842Y-97642858D01*
X143438129Y-97494899D01*
X143527099Y-97361745D01*
X143640345Y-97248499D01*
X143773499Y-97159529D01*
X143921458Y-97098242D01*
X144078525Y-97067000D01*
X144238675Y-97067000D01*
X144395742Y-97098242D01*
X144395742Y-97098242D01*
G37*
G36*
X129175742Y-97098242D02*
G01*
X129323701Y-97159529D01*
X129456855Y-97248499D01*
X129570101Y-97361745D01*
X129659071Y-97494899D01*
X129720358Y-97642858D01*
X129751600Y-97799925D01*
X129751600Y-97960075D01*
X129720358Y-98117142D01*
X129659071Y-98265101D01*
X129570101Y-98398255D01*
X129456855Y-98511501D01*
X129323701Y-98600471D01*
X129175742Y-98661758D01*
X129018675Y-98693000D01*
X128858525Y-98693000D01*
X128701458Y-98661758D01*
X128553499Y-98600471D01*
X128420345Y-98511501D01*
X128307099Y-98398255D01*
X128218129Y-98265101D01*
X128156842Y-98117142D01*
X128125600Y-97960075D01*
X128125600Y-97799925D01*
X128156842Y-97642858D01*
X128218129Y-97494899D01*
X128307099Y-97361745D01*
X128420345Y-97248499D01*
X128553499Y-97159529D01*
X128701458Y-97098242D01*
X128858525Y-97067000D01*
X129018675Y-97067000D01*
X129175742Y-97098242D01*
X129175742Y-97098242D01*
G37*
G36*
X110078542Y-97098242D02*
G01*
X110226501Y-97159529D01*
X110359655Y-97248499D01*
X110472901Y-97361745D01*
X110561871Y-97494899D01*
X110623158Y-97642858D01*
X110654400Y-97799925D01*
X110654400Y-97960075D01*
X110623158Y-98117142D01*
X110561871Y-98265101D01*
X110472901Y-98398255D01*
X110359655Y-98511501D01*
X110226501Y-98600471D01*
X110078542Y-98661758D01*
X109921475Y-98693000D01*
X109761325Y-98693000D01*
X109604258Y-98661758D01*
X109456299Y-98600471D01*
X109323145Y-98511501D01*
X109209899Y-98398255D01*
X109120929Y-98265101D01*
X109059642Y-98117142D01*
X109028400Y-97960075D01*
X109028400Y-97799925D01*
X109059642Y-97642858D01*
X109120929Y-97494899D01*
X109209899Y-97361745D01*
X109323145Y-97248499D01*
X109456299Y-97159529D01*
X109604258Y-97098242D01*
X109761325Y-97067000D01*
X109921475Y-97067000D01*
X110078542Y-97098242D01*
X110078542Y-97098242D01*
G37*
G36*
X129175742Y-94558242D02*
G01*
X129323701Y-94619529D01*
X129456855Y-94708499D01*
X129570101Y-94821745D01*
X129659071Y-94954899D01*
X129720358Y-95102858D01*
X129751600Y-95259925D01*
X129751600Y-95420075D01*
X129720358Y-95577142D01*
X129659071Y-95725101D01*
X129570101Y-95858255D01*
X129456855Y-95971501D01*
X129323701Y-96060471D01*
X129175742Y-96121758D01*
X129018675Y-96153000D01*
X128858525Y-96153000D01*
X128701458Y-96121758D01*
X128553499Y-96060471D01*
X128420345Y-95971501D01*
X128307099Y-95858255D01*
X128218129Y-95725101D01*
X128156842Y-95577142D01*
X128125600Y-95420075D01*
X128125600Y-95259925D01*
X128156842Y-95102858D01*
X128218129Y-94954899D01*
X128307099Y-94821745D01*
X128420345Y-94708499D01*
X128553499Y-94619529D01*
X128701458Y-94558242D01*
X128858525Y-94527000D01*
X129018675Y-94527000D01*
X129175742Y-94558242D01*
X129175742Y-94558242D01*
G37*
G36*
X144395742Y-94558242D02*
G01*
X144543701Y-94619529D01*
X144676855Y-94708499D01*
X144790101Y-94821745D01*
X144879071Y-94954899D01*
X144940358Y-95102858D01*
X144971600Y-95259925D01*
X144971600Y-95420075D01*
X144940358Y-95577142D01*
X144879071Y-95725101D01*
X144790101Y-95858255D01*
X144676855Y-95971501D01*
X144543701Y-96060471D01*
X144395742Y-96121758D01*
X144238675Y-96153000D01*
X144078525Y-96153000D01*
X143921458Y-96121758D01*
X143773499Y-96060471D01*
X143640345Y-95971501D01*
X143527099Y-95858255D01*
X143438129Y-95725101D01*
X143376842Y-95577142D01*
X143345600Y-95420075D01*
X143345600Y-95259925D01*
X143376842Y-95102858D01*
X143438129Y-94954899D01*
X143527099Y-94821745D01*
X143640345Y-94708499D01*
X143773499Y-94619529D01*
X143921458Y-94558242D01*
X144078525Y-94527000D01*
X144238675Y-94527000D01*
X144395742Y-94558242D01*
X144395742Y-94558242D01*
G37*
G36*
X110078542Y-94558242D02*
G01*
X110226501Y-94619529D01*
X110359655Y-94708499D01*
X110472901Y-94821745D01*
X110561871Y-94954899D01*
X110623158Y-95102858D01*
X110654400Y-95259925D01*
X110654400Y-95420075D01*
X110623158Y-95577142D01*
X110561871Y-95725101D01*
X110472901Y-95858255D01*
X110359655Y-95971501D01*
X110226501Y-96060471D01*
X110078542Y-96121758D01*
X109921475Y-96153000D01*
X109761325Y-96153000D01*
X109604258Y-96121758D01*
X109456299Y-96060471D01*
X109323145Y-95971501D01*
X109209899Y-95858255D01*
X109120929Y-95725101D01*
X109059642Y-95577142D01*
X109028400Y-95420075D01*
X109028400Y-95259925D01*
X109059642Y-95102858D01*
X109120929Y-94954899D01*
X109209899Y-94821745D01*
X109323145Y-94708499D01*
X109456299Y-94619529D01*
X109604258Y-94558242D01*
X109761325Y-94527000D01*
X109921475Y-94527000D01*
X110078542Y-94558242D01*
X110078542Y-94558242D01*
G37*
G36*
X125298542Y-94558242D02*
G01*
X125446501Y-94619529D01*
X125579655Y-94708499D01*
X125692901Y-94821745D01*
X125781871Y-94954899D01*
X125843158Y-95102858D01*
X125874400Y-95259925D01*
X125874400Y-95420075D01*
X125843158Y-95577142D01*
X125781871Y-95725101D01*
X125692901Y-95858255D01*
X125579655Y-95971501D01*
X125446501Y-96060471D01*
X125298542Y-96121758D01*
X125141475Y-96153000D01*
X124981325Y-96153000D01*
X124824258Y-96121758D01*
X124676299Y-96060471D01*
X124543145Y-95971501D01*
X124429899Y-95858255D01*
X124340929Y-95725101D01*
X124279642Y-95577142D01*
X124248400Y-95420075D01*
X124248400Y-95259925D01*
X124279642Y-95102858D01*
X124340929Y-94954899D01*
X124429899Y-94821745D01*
X124543145Y-94708499D01*
X124676299Y-94619529D01*
X124824258Y-94558242D01*
X124981325Y-94527000D01*
X125141475Y-94527000D01*
X125298542Y-94558242D01*
X125298542Y-94558242D01*
G37*
G36*
X129175742Y-92018242D02*
G01*
X129323701Y-92079529D01*
X129456855Y-92168499D01*
X129570101Y-92281745D01*
X129659071Y-92414899D01*
X129720358Y-92562858D01*
X129751600Y-92719925D01*
X129751600Y-92880075D01*
X129720358Y-93037142D01*
X129659071Y-93185101D01*
X129570101Y-93318255D01*
X129456855Y-93431501D01*
X129323701Y-93520471D01*
X129175742Y-93581758D01*
X129018675Y-93613000D01*
X128858525Y-93613000D01*
X128701458Y-93581758D01*
X128553499Y-93520471D01*
X128420345Y-93431501D01*
X128307099Y-93318255D01*
X128218129Y-93185101D01*
X128156842Y-93037142D01*
X128125600Y-92880075D01*
X128125600Y-92719925D01*
X128156842Y-92562858D01*
X128218129Y-92414899D01*
X128307099Y-92281745D01*
X128420345Y-92168499D01*
X128553499Y-92079529D01*
X128701458Y-92018242D01*
X128858525Y-91987000D01*
X129018675Y-91987000D01*
X129175742Y-92018242D01*
X129175742Y-92018242D01*
G37*
G36*
X110078542Y-92018242D02*
G01*
X110226501Y-92079529D01*
X110359655Y-92168499D01*
X110472901Y-92281745D01*
X110561871Y-92414899D01*
X110623158Y-92562858D01*
X110654400Y-92719925D01*
X110654400Y-92880075D01*
X110623158Y-93037142D01*
X110561871Y-93185101D01*
X110472901Y-93318255D01*
X110359655Y-93431501D01*
X110226501Y-93520471D01*
X110078542Y-93581758D01*
X109921475Y-93613000D01*
X109761325Y-93613000D01*
X109604258Y-93581758D01*
X109456299Y-93520471D01*
X109323145Y-93431501D01*
X109209899Y-93318255D01*
X109120929Y-93185101D01*
X109059642Y-93037142D01*
X109028400Y-92880075D01*
X109028400Y-92719925D01*
X109059642Y-92562858D01*
X109120929Y-92414899D01*
X109209899Y-92281745D01*
X109323145Y-92168499D01*
X109456299Y-92079529D01*
X109604258Y-92018242D01*
X109761325Y-91987000D01*
X109921475Y-91987000D01*
X110078542Y-92018242D01*
X110078542Y-92018242D01*
G37*
G36*
X125298542Y-92018242D02*
G01*
X125446501Y-92079529D01*
X125579655Y-92168499D01*
X125692901Y-92281745D01*
X125781871Y-92414899D01*
X125843158Y-92562858D01*
X125874400Y-92719925D01*
X125874400Y-92880075D01*
X125843158Y-93037142D01*
X125781871Y-93185101D01*
X125692901Y-93318255D01*
X125579655Y-93431501D01*
X125446501Y-93520471D01*
X125298542Y-93581758D01*
X125141475Y-93613000D01*
X124981325Y-93613000D01*
X124824258Y-93581758D01*
X124676299Y-93520471D01*
X124543145Y-93431501D01*
X124429899Y-93318255D01*
X124340929Y-93185101D01*
X124279642Y-93037142D01*
X124248400Y-92880075D01*
X124248400Y-92719925D01*
X124279642Y-92562858D01*
X124340929Y-92414899D01*
X124429899Y-92281745D01*
X124543145Y-92168499D01*
X124676299Y-92079529D01*
X124824258Y-92018242D01*
X124981325Y-91987000D01*
X125141475Y-91987000D01*
X125298542Y-92018242D01*
X125298542Y-92018242D01*
G37*
G36*
X144395742Y-92018242D02*
G01*
X144543701Y-92079529D01*
X144676855Y-92168499D01*
X144790101Y-92281745D01*
X144879071Y-92414899D01*
X144940358Y-92562858D01*
X144971600Y-92719925D01*
X144971600Y-92880075D01*
X144940358Y-93037142D01*
X144879071Y-93185101D01*
X144790101Y-93318255D01*
X144676855Y-93431501D01*
X144543701Y-93520471D01*
X144395742Y-93581758D01*
X144238675Y-93613000D01*
X144078525Y-93613000D01*
X143921458Y-93581758D01*
X143773499Y-93520471D01*
X143640345Y-93431501D01*
X143527099Y-93318255D01*
X143438129Y-93185101D01*
X143376842Y-93037142D01*
X143345600Y-92880075D01*
X143345600Y-92719925D01*
X143376842Y-92562858D01*
X143438129Y-92414899D01*
X143527099Y-92281745D01*
X143640345Y-92168499D01*
X143773499Y-92079529D01*
X143921458Y-92018242D01*
X144078525Y-91987000D01*
X144238675Y-91987000D01*
X144395742Y-92018242D01*
X144395742Y-92018242D01*
G37*
G36*
X144395742Y-89478242D02*
G01*
X144543701Y-89539529D01*
X144676855Y-89628499D01*
X144790101Y-89741745D01*
X144879071Y-89874899D01*
X144940358Y-90022858D01*
X144971600Y-90179925D01*
X144971600Y-90340075D01*
X144940358Y-90497142D01*
X144879071Y-90645101D01*
X144790101Y-90778255D01*
X144676855Y-90891501D01*
X144543701Y-90980471D01*
X144395742Y-91041758D01*
X144238675Y-91073000D01*
X144078525Y-91073000D01*
X143921458Y-91041758D01*
X143773499Y-90980471D01*
X143640345Y-90891501D01*
X143527099Y-90778255D01*
X143438129Y-90645101D01*
X143376842Y-90497142D01*
X143345600Y-90340075D01*
X143345600Y-90179925D01*
X143376842Y-90022858D01*
X143438129Y-89874899D01*
X143527099Y-89741745D01*
X143640345Y-89628499D01*
X143773499Y-89539529D01*
X143921458Y-89478242D01*
X144078525Y-89447000D01*
X144238675Y-89447000D01*
X144395742Y-89478242D01*
X144395742Y-89478242D01*
G37*
G36*
X125298542Y-89478242D02*
G01*
X125446501Y-89539529D01*
X125579655Y-89628499D01*
X125692901Y-89741745D01*
X125781871Y-89874899D01*
X125843158Y-90022858D01*
X125874400Y-90179925D01*
X125874400Y-90340075D01*
X125843158Y-90497142D01*
X125781871Y-90645101D01*
X125692901Y-90778255D01*
X125579655Y-90891501D01*
X125446501Y-90980471D01*
X125298542Y-91041758D01*
X125141475Y-91073000D01*
X124981325Y-91073000D01*
X124824258Y-91041758D01*
X124676299Y-90980471D01*
X124543145Y-90891501D01*
X124429899Y-90778255D01*
X124340929Y-90645101D01*
X124279642Y-90497142D01*
X124248400Y-90340075D01*
X124248400Y-90179925D01*
X124279642Y-90022858D01*
X124340929Y-89874899D01*
X124429899Y-89741745D01*
X124543145Y-89628499D01*
X124676299Y-89539529D01*
X124824258Y-89478242D01*
X124981325Y-89447000D01*
X125141475Y-89447000D01*
X125298542Y-89478242D01*
X125298542Y-89478242D01*
G37*
G36*
X129175742Y-89478242D02*
G01*
X129323701Y-89539529D01*
X129456855Y-89628499D01*
X129570101Y-89741745D01*
X129659071Y-89874899D01*
X129720358Y-90022858D01*
X129751600Y-90179925D01*
X129751600Y-90340075D01*
X129720358Y-90497142D01*
X129659071Y-90645101D01*
X129570101Y-90778255D01*
X129456855Y-90891501D01*
X129323701Y-90980471D01*
X129175742Y-91041758D01*
X129018675Y-91073000D01*
X128858525Y-91073000D01*
X128701458Y-91041758D01*
X128553499Y-90980471D01*
X128420345Y-90891501D01*
X128307099Y-90778255D01*
X128218129Y-90645101D01*
X128156842Y-90497142D01*
X128125600Y-90340075D01*
X128125600Y-90179925D01*
X128156842Y-90022858D01*
X128218129Y-89874899D01*
X128307099Y-89741745D01*
X128420345Y-89628499D01*
X128553499Y-89539529D01*
X128701458Y-89478242D01*
X128858525Y-89447000D01*
X129018675Y-89447000D01*
X129175742Y-89478242D01*
X129175742Y-89478242D01*
G37*
G36*
X110078542Y-89478242D02*
G01*
X110226501Y-89539529D01*
X110359655Y-89628499D01*
X110472901Y-89741745D01*
X110561871Y-89874899D01*
X110623158Y-90022858D01*
X110654400Y-90179925D01*
X110654400Y-90340075D01*
X110623158Y-90497142D01*
X110561871Y-90645101D01*
X110472901Y-90778255D01*
X110359655Y-90891501D01*
X110226501Y-90980471D01*
X110078542Y-91041758D01*
X109921475Y-91073000D01*
X109761325Y-91073000D01*
X109604258Y-91041758D01*
X109456299Y-90980471D01*
X109323145Y-90891501D01*
X109209899Y-90778255D01*
X109120929Y-90645101D01*
X109059642Y-90497142D01*
X109028400Y-90340075D01*
X109028400Y-90179925D01*
X109059642Y-90022858D01*
X109120929Y-89874899D01*
X109209899Y-89741745D01*
X109323145Y-89628499D01*
X109456299Y-89539529D01*
X109604258Y-89478242D01*
X109761325Y-89447000D01*
X109921475Y-89447000D01*
X110078542Y-89478242D01*
X110078542Y-89478242D01*
G37*
G36*
X125298542Y-86938242D02*
G01*
X125446501Y-86999529D01*
X125579655Y-87088499D01*
X125692901Y-87201745D01*
X125781871Y-87334899D01*
X125843158Y-87482858D01*
X125874400Y-87639925D01*
X125874400Y-87800075D01*
X125843158Y-87957142D01*
X125781871Y-88105101D01*
X125692901Y-88238255D01*
X125579655Y-88351501D01*
X125446501Y-88440471D01*
X125298542Y-88501758D01*
X125141475Y-88533000D01*
X124981325Y-88533000D01*
X124824258Y-88501758D01*
X124676299Y-88440471D01*
X124543145Y-88351501D01*
X124429899Y-88238255D01*
X124340929Y-88105101D01*
X124279642Y-87957142D01*
X124248400Y-87800075D01*
X124248400Y-87639925D01*
X124279642Y-87482858D01*
X124340929Y-87334899D01*
X124429899Y-87201745D01*
X124543145Y-87088499D01*
X124676299Y-86999529D01*
X124824258Y-86938242D01*
X124981325Y-86907000D01*
X125141475Y-86907000D01*
X125298542Y-86938242D01*
X125298542Y-86938242D01*
G37*
G36*
X110078542Y-86938242D02*
G01*
X110226501Y-86999529D01*
X110359655Y-87088499D01*
X110472901Y-87201745D01*
X110561871Y-87334899D01*
X110623158Y-87482858D01*
X110654400Y-87639925D01*
X110654400Y-87800075D01*
X110623158Y-87957142D01*
X110561871Y-88105101D01*
X110472901Y-88238255D01*
X110359655Y-88351501D01*
X110226501Y-88440471D01*
X110078542Y-88501758D01*
X109921475Y-88533000D01*
X109761325Y-88533000D01*
X109604258Y-88501758D01*
X109456299Y-88440471D01*
X109323145Y-88351501D01*
X109209899Y-88238255D01*
X109120929Y-88105101D01*
X109059642Y-87957142D01*
X109028400Y-87800075D01*
X109028400Y-87639925D01*
X109059642Y-87482858D01*
X109120929Y-87334899D01*
X109209899Y-87201745D01*
X109323145Y-87088499D01*
X109456299Y-86999529D01*
X109604258Y-86938242D01*
X109761325Y-86907000D01*
X109921475Y-86907000D01*
X110078542Y-86938242D01*
X110078542Y-86938242D01*
G37*
G36*
X144395742Y-86938242D02*
G01*
X144543701Y-86999529D01*
X144676855Y-87088499D01*
X144790101Y-87201745D01*
X144879071Y-87334899D01*
X144940358Y-87482858D01*
X144971600Y-87639925D01*
X144971600Y-87800075D01*
X144940358Y-87957142D01*
X144879071Y-88105101D01*
X144790101Y-88238255D01*
X144676855Y-88351501D01*
X144543701Y-88440471D01*
X144395742Y-88501758D01*
X144238675Y-88533000D01*
X144078525Y-88533000D01*
X143921458Y-88501758D01*
X143773499Y-88440471D01*
X143640345Y-88351501D01*
X143527099Y-88238255D01*
X143438129Y-88105101D01*
X143376842Y-87957142D01*
X143345600Y-87800075D01*
X143345600Y-87639925D01*
X143376842Y-87482858D01*
X143438129Y-87334899D01*
X143527099Y-87201745D01*
X143640345Y-87088499D01*
X143773499Y-86999529D01*
X143921458Y-86938242D01*
X144078525Y-86907000D01*
X144238675Y-86907000D01*
X144395742Y-86938242D01*
X144395742Y-86938242D01*
G37*
G36*
X129175742Y-86938242D02*
G01*
X129323701Y-86999529D01*
X129456855Y-87088499D01*
X129570101Y-87201745D01*
X129659071Y-87334899D01*
X129720358Y-87482858D01*
X129751600Y-87639925D01*
X129751600Y-87800075D01*
X129720358Y-87957142D01*
X129659071Y-88105101D01*
X129570101Y-88238255D01*
X129456855Y-88351501D01*
X129323701Y-88440471D01*
X129175742Y-88501758D01*
X129018675Y-88533000D01*
X128858525Y-88533000D01*
X128701458Y-88501758D01*
X128553499Y-88440471D01*
X128420345Y-88351501D01*
X128307099Y-88238255D01*
X128218129Y-88105101D01*
X128156842Y-87957142D01*
X128125600Y-87800075D01*
X128125600Y-87639925D01*
X128156842Y-87482858D01*
X128218129Y-87334899D01*
X128307099Y-87201745D01*
X128420345Y-87088499D01*
X128553499Y-86999529D01*
X128701458Y-86938242D01*
X128858525Y-86907000D01*
X129018675Y-86907000D01*
X129175742Y-86938242D01*
X129175742Y-86938242D01*
G37*
G36*
X125298542Y-84398242D02*
G01*
X125446501Y-84459529D01*
X125579655Y-84548499D01*
X125692901Y-84661745D01*
X125781871Y-84794899D01*
X125843158Y-84942858D01*
X125874400Y-85099925D01*
X125874400Y-85260075D01*
X125843158Y-85417142D01*
X125781871Y-85565101D01*
X125692901Y-85698255D01*
X125579655Y-85811501D01*
X125446501Y-85900471D01*
X125298542Y-85961758D01*
X125141475Y-85993000D01*
X124981325Y-85993000D01*
X124824258Y-85961758D01*
X124676299Y-85900471D01*
X124543145Y-85811501D01*
X124429899Y-85698255D01*
X124340929Y-85565101D01*
X124279642Y-85417142D01*
X124248400Y-85260075D01*
X124248400Y-85099925D01*
X124279642Y-84942858D01*
X124340929Y-84794899D01*
X124429899Y-84661745D01*
X124543145Y-84548499D01*
X124676299Y-84459529D01*
X124824258Y-84398242D01*
X124981325Y-84367000D01*
X125141475Y-84367000D01*
X125298542Y-84398242D01*
X125298542Y-84398242D01*
G37*
G36*
X144395742Y-84398242D02*
G01*
X144543701Y-84459529D01*
X144676855Y-84548499D01*
X144790101Y-84661745D01*
X144879071Y-84794899D01*
X144940358Y-84942858D01*
X144971600Y-85099925D01*
X144971600Y-85260075D01*
X144940358Y-85417142D01*
X144879071Y-85565101D01*
X144790101Y-85698255D01*
X144676855Y-85811501D01*
X144543701Y-85900471D01*
X144395742Y-85961758D01*
X144238675Y-85993000D01*
X144078525Y-85993000D01*
X143921458Y-85961758D01*
X143773499Y-85900471D01*
X143640345Y-85811501D01*
X143527099Y-85698255D01*
X143438129Y-85565101D01*
X143376842Y-85417142D01*
X143345600Y-85260075D01*
X143345600Y-85099925D01*
X143376842Y-84942858D01*
X143438129Y-84794899D01*
X143527099Y-84661745D01*
X143640345Y-84548499D01*
X143773499Y-84459529D01*
X143921458Y-84398242D01*
X144078525Y-84367000D01*
X144238675Y-84367000D01*
X144395742Y-84398242D01*
X144395742Y-84398242D01*
G37*
G36*
X129175742Y-84398242D02*
G01*
X129323701Y-84459529D01*
X129456855Y-84548499D01*
X129570101Y-84661745D01*
X129659071Y-84794899D01*
X129720358Y-84942858D01*
X129751600Y-85099925D01*
X129751600Y-85260075D01*
X129720358Y-85417142D01*
X129659071Y-85565101D01*
X129570101Y-85698255D01*
X129456855Y-85811501D01*
X129323701Y-85900471D01*
X129175742Y-85961758D01*
X129018675Y-85993000D01*
X128858525Y-85993000D01*
X128701458Y-85961758D01*
X128553499Y-85900471D01*
X128420345Y-85811501D01*
X128307099Y-85698255D01*
X128218129Y-85565101D01*
X128156842Y-85417142D01*
X128125600Y-85260075D01*
X128125600Y-85099925D01*
X128156842Y-84942858D01*
X128218129Y-84794899D01*
X128307099Y-84661745D01*
X128420345Y-84548499D01*
X128553499Y-84459529D01*
X128701458Y-84398242D01*
X128858525Y-84367000D01*
X129018675Y-84367000D01*
X129175742Y-84398242D01*
X129175742Y-84398242D01*
G37*
G36*
X110078542Y-84398242D02*
G01*
X110226501Y-84459529D01*
X110359655Y-84548499D01*
X110472901Y-84661745D01*
X110561871Y-84794899D01*
X110623158Y-84942858D01*
X110654400Y-85099925D01*
X110654400Y-85260075D01*
X110623158Y-85417142D01*
X110561871Y-85565101D01*
X110472901Y-85698255D01*
X110359655Y-85811501D01*
X110226501Y-85900471D01*
X110078542Y-85961758D01*
X109921475Y-85993000D01*
X109761325Y-85993000D01*
X109604258Y-85961758D01*
X109456299Y-85900471D01*
X109323145Y-85811501D01*
X109209899Y-85698255D01*
X109120929Y-85565101D01*
X109059642Y-85417142D01*
X109028400Y-85260075D01*
X109028400Y-85099925D01*
X109059642Y-84942858D01*
X109120929Y-84794899D01*
X109209899Y-84661745D01*
X109323145Y-84548499D01*
X109456299Y-84459529D01*
X109604258Y-84398242D01*
X109761325Y-84367000D01*
X109921475Y-84367000D01*
X110078542Y-84398242D01*
X110078542Y-84398242D01*
G37*
G36*
X166569085Y-81123975D02*
G01*
X166924143Y-81271045D01*
X166924145Y-81271046D01*
X167243690Y-81484559D01*
X167515441Y-81756310D01*
X167728954Y-82075855D01*
X167728955Y-82075857D01*
X167876025Y-82430915D01*
X167951000Y-82807842D01*
X167951000Y-83192158D01*
X167876025Y-83569085D01*
X167728955Y-83924143D01*
X167728954Y-83924145D01*
X167515441Y-84243690D01*
X167243690Y-84515441D01*
X166924145Y-84728954D01*
X166924144Y-84728955D01*
X166924143Y-84728955D01*
X166569085Y-84876025D01*
X166192158Y-84951000D01*
X165807842Y-84951000D01*
X165430915Y-84876025D01*
X165075857Y-84728955D01*
X165075856Y-84728955D01*
X165075855Y-84728954D01*
X164756310Y-84515441D01*
X164484559Y-84243690D01*
X164271046Y-83924145D01*
X164271045Y-83924143D01*
X164123975Y-83569085D01*
X164049000Y-83192158D01*
X164049000Y-82807842D01*
X164123975Y-82430915D01*
X164271045Y-82075857D01*
X164271046Y-82075855D01*
X164484559Y-81756310D01*
X164756310Y-81484559D01*
X165075855Y-81271046D01*
X165075857Y-81271045D01*
X165430915Y-81123975D01*
X165807842Y-81049000D01*
X166192158Y-81049000D01*
X166569085Y-81123975D01*
X166569085Y-81123975D01*
G37*
G36*
X110078542Y-81858242D02*
G01*
X110226501Y-81919529D01*
X110359655Y-82008499D01*
X110472901Y-82121745D01*
X110561871Y-82254899D01*
X110623158Y-82402858D01*
X110654400Y-82559925D01*
X110654400Y-82720075D01*
X110623158Y-82877142D01*
X110561871Y-83025101D01*
X110472901Y-83158255D01*
X110359655Y-83271501D01*
X110226501Y-83360471D01*
X110078542Y-83421758D01*
X109921475Y-83453000D01*
X109761325Y-83453000D01*
X109604258Y-83421758D01*
X109456299Y-83360471D01*
X109323145Y-83271501D01*
X109209899Y-83158255D01*
X109120929Y-83025101D01*
X109059642Y-82877142D01*
X109028400Y-82720075D01*
X109028400Y-82559925D01*
X109059642Y-82402858D01*
X109120929Y-82254899D01*
X109209899Y-82121745D01*
X109323145Y-82008499D01*
X109456299Y-81919529D01*
X109604258Y-81858242D01*
X109761325Y-81827000D01*
X109921475Y-81827000D01*
X110078542Y-81858242D01*
X110078542Y-81858242D01*
G37*
G36*
X129175742Y-81858242D02*
G01*
X129323701Y-81919529D01*
X129456855Y-82008499D01*
X129570101Y-82121745D01*
X129659071Y-82254899D01*
X129720358Y-82402858D01*
X129751600Y-82559925D01*
X129751600Y-82720075D01*
X129720358Y-82877142D01*
X129659071Y-83025101D01*
X129570101Y-83158255D01*
X129456855Y-83271501D01*
X129323701Y-83360471D01*
X129175742Y-83421758D01*
X129018675Y-83453000D01*
X128858525Y-83453000D01*
X128701458Y-83421758D01*
X128553499Y-83360471D01*
X128420345Y-83271501D01*
X128307099Y-83158255D01*
X128218129Y-83025101D01*
X128156842Y-82877142D01*
X128125600Y-82720075D01*
X128125600Y-82559925D01*
X128156842Y-82402858D01*
X128218129Y-82254899D01*
X128307099Y-82121745D01*
X128420345Y-82008499D01*
X128553499Y-81919529D01*
X128701458Y-81858242D01*
X128858525Y-81827000D01*
X129018675Y-81827000D01*
X129175742Y-81858242D01*
X129175742Y-81858242D01*
G37*
G36*
X144395742Y-81858242D02*
G01*
X144543701Y-81919529D01*
X144676855Y-82008499D01*
X144790101Y-82121745D01*
X144879071Y-82254899D01*
X144940358Y-82402858D01*
X144971600Y-82559925D01*
X144971600Y-82720075D01*
X144940358Y-82877142D01*
X144879071Y-83025101D01*
X144790101Y-83158255D01*
X144676855Y-83271501D01*
X144543701Y-83360471D01*
X144395742Y-83421758D01*
X144238675Y-83453000D01*
X144078525Y-83453000D01*
X143921458Y-83421758D01*
X143773499Y-83360471D01*
X143640345Y-83271501D01*
X143527099Y-83158255D01*
X143438129Y-83025101D01*
X143376842Y-82877142D01*
X143345600Y-82720075D01*
X143345600Y-82559925D01*
X143376842Y-82402858D01*
X143438129Y-82254899D01*
X143527099Y-82121745D01*
X143640345Y-82008499D01*
X143773499Y-81919529D01*
X143921458Y-81858242D01*
X144078525Y-81827000D01*
X144238675Y-81827000D01*
X144395742Y-81858242D01*
X144395742Y-81858242D01*
G37*
G36*
X125298542Y-81858242D02*
G01*
X125446501Y-81919529D01*
X125579655Y-82008499D01*
X125692901Y-82121745D01*
X125781871Y-82254899D01*
X125843158Y-82402858D01*
X125874400Y-82559925D01*
X125874400Y-82720075D01*
X125843158Y-82877142D01*
X125781871Y-83025101D01*
X125692901Y-83158255D01*
X125579655Y-83271501D01*
X125446501Y-83360471D01*
X125298542Y-83421758D01*
X125141475Y-83453000D01*
X124981325Y-83453000D01*
X124824258Y-83421758D01*
X124676299Y-83360471D01*
X124543145Y-83271501D01*
X124429899Y-83158255D01*
X124340929Y-83025101D01*
X124279642Y-82877142D01*
X124248400Y-82720075D01*
X124248400Y-82559925D01*
X124279642Y-82402858D01*
X124340929Y-82254899D01*
X124429899Y-82121745D01*
X124543145Y-82008499D01*
X124676299Y-81919529D01*
X124824258Y-81858242D01*
X124981325Y-81827000D01*
X125141475Y-81827000D01*
X125298542Y-81858242D01*
X125298542Y-81858242D01*
G37*
G36*
X125298542Y-79318242D02*
G01*
X125446501Y-79379529D01*
X125579655Y-79468499D01*
X125692901Y-79581745D01*
X125781871Y-79714899D01*
X125843158Y-79862858D01*
X125874400Y-80019925D01*
X125874400Y-80180075D01*
X125843158Y-80337142D01*
X125781871Y-80485101D01*
X125692901Y-80618255D01*
X125579655Y-80731501D01*
X125446501Y-80820471D01*
X125298542Y-80881758D01*
X125141475Y-80913000D01*
X124981325Y-80913000D01*
X124824258Y-80881758D01*
X124676299Y-80820471D01*
X124543145Y-80731501D01*
X124429899Y-80618255D01*
X124340929Y-80485101D01*
X124279642Y-80337142D01*
X124248400Y-80180075D01*
X124248400Y-80019925D01*
X124279642Y-79862858D01*
X124340929Y-79714899D01*
X124429899Y-79581745D01*
X124543145Y-79468499D01*
X124676299Y-79379529D01*
X124824258Y-79318242D01*
X124981325Y-79287000D01*
X125141475Y-79287000D01*
X125298542Y-79318242D01*
X125298542Y-79318242D01*
G37*
G36*
X110078542Y-79318242D02*
G01*
X110226501Y-79379529D01*
X110359655Y-79468499D01*
X110472901Y-79581745D01*
X110561871Y-79714899D01*
X110623158Y-79862858D01*
X110654400Y-80019925D01*
X110654400Y-80180075D01*
X110623158Y-80337142D01*
X110561871Y-80485101D01*
X110472901Y-80618255D01*
X110359655Y-80731501D01*
X110226501Y-80820471D01*
X110078542Y-80881758D01*
X109921475Y-80913000D01*
X109761325Y-80913000D01*
X109604258Y-80881758D01*
X109456299Y-80820471D01*
X109323145Y-80731501D01*
X109209899Y-80618255D01*
X109120929Y-80485101D01*
X109059642Y-80337142D01*
X109028400Y-80180075D01*
X109028400Y-80019925D01*
X109059642Y-79862858D01*
X109120929Y-79714899D01*
X109209899Y-79581745D01*
X109323145Y-79468499D01*
X109456299Y-79379529D01*
X109604258Y-79318242D01*
X109761325Y-79287000D01*
X109921475Y-79287000D01*
X110078542Y-79318242D01*
X110078542Y-79318242D01*
G37*
G36*
X129175742Y-79318242D02*
G01*
X129323701Y-79379529D01*
X129456855Y-79468499D01*
X129570101Y-79581745D01*
X129659071Y-79714899D01*
X129720358Y-79862858D01*
X129751600Y-80019925D01*
X129751600Y-80180075D01*
X129720358Y-80337142D01*
X129659071Y-80485101D01*
X129570101Y-80618255D01*
X129456855Y-80731501D01*
X129323701Y-80820471D01*
X129175742Y-80881758D01*
X129018675Y-80913000D01*
X128858525Y-80913000D01*
X128701458Y-80881758D01*
X128553499Y-80820471D01*
X128420345Y-80731501D01*
X128307099Y-80618255D01*
X128218129Y-80485101D01*
X128156842Y-80337142D01*
X128125600Y-80180075D01*
X128125600Y-80019925D01*
X128156842Y-79862858D01*
X128218129Y-79714899D01*
X128307099Y-79581745D01*
X128420345Y-79468499D01*
X128553499Y-79379529D01*
X128701458Y-79318242D01*
X128858525Y-79287000D01*
X129018675Y-79287000D01*
X129175742Y-79318242D01*
X129175742Y-79318242D01*
G37*
G36*
X144395742Y-79318242D02*
G01*
X144543701Y-79379529D01*
X144676855Y-79468499D01*
X144790101Y-79581745D01*
X144879071Y-79714899D01*
X144940358Y-79862858D01*
X144971600Y-80019925D01*
X144971600Y-80180075D01*
X144940358Y-80337142D01*
X144879071Y-80485101D01*
X144790101Y-80618255D01*
X144676855Y-80731501D01*
X144543701Y-80820471D01*
X144395742Y-80881758D01*
X144238675Y-80913000D01*
X144078525Y-80913000D01*
X143921458Y-80881758D01*
X143773499Y-80820471D01*
X143640345Y-80731501D01*
X143527099Y-80618255D01*
X143438129Y-80485101D01*
X143376842Y-80337142D01*
X143345600Y-80180075D01*
X143345600Y-80019925D01*
X143376842Y-79862858D01*
X143438129Y-79714899D01*
X143527099Y-79581745D01*
X143640345Y-79468499D01*
X143773499Y-79379529D01*
X143921458Y-79318242D01*
X144078525Y-79287000D01*
X144238675Y-79287000D01*
X144395742Y-79318242D01*
X144395742Y-79318242D01*
G37*
G36*
X144395742Y-76778242D02*
G01*
X144543701Y-76839529D01*
X144676855Y-76928499D01*
X144790101Y-77041745D01*
X144879071Y-77174899D01*
X144940358Y-77322858D01*
X144971600Y-77479925D01*
X144971600Y-77640075D01*
X144940358Y-77797142D01*
X144879071Y-77945101D01*
X144790101Y-78078255D01*
X144676855Y-78191501D01*
X144543701Y-78280471D01*
X144395742Y-78341758D01*
X144238675Y-78373000D01*
X144078525Y-78373000D01*
X143921458Y-78341758D01*
X143773499Y-78280471D01*
X143640345Y-78191501D01*
X143527099Y-78078255D01*
X143438129Y-77945101D01*
X143376842Y-77797142D01*
X143345600Y-77640075D01*
X143345600Y-77479925D01*
X143376842Y-77322858D01*
X143438129Y-77174899D01*
X143527099Y-77041745D01*
X143640345Y-76928499D01*
X143773499Y-76839529D01*
X143921458Y-76778242D01*
X144078525Y-76747000D01*
X144238675Y-76747000D01*
X144395742Y-76778242D01*
X144395742Y-76778242D01*
G37*
G36*
X129175742Y-76778242D02*
G01*
X129323701Y-76839529D01*
X129456855Y-76928499D01*
X129570101Y-77041745D01*
X129659071Y-77174899D01*
X129720358Y-77322858D01*
X129751600Y-77479925D01*
X129751600Y-77640075D01*
X129720358Y-77797142D01*
X129659071Y-77945101D01*
X129570101Y-78078255D01*
X129456855Y-78191501D01*
X129323701Y-78280471D01*
X129175742Y-78341758D01*
X129018675Y-78373000D01*
X128858525Y-78373000D01*
X128701458Y-78341758D01*
X128553499Y-78280471D01*
X128420345Y-78191501D01*
X128307099Y-78078255D01*
X128218129Y-77945101D01*
X128156842Y-77797142D01*
X128125600Y-77640075D01*
X128125600Y-77479925D01*
X128156842Y-77322858D01*
X128218129Y-77174899D01*
X128307099Y-77041745D01*
X128420345Y-76928499D01*
X128553499Y-76839529D01*
X128701458Y-76778242D01*
X128858525Y-76747000D01*
X129018675Y-76747000D01*
X129175742Y-76778242D01*
X129175742Y-76778242D01*
G37*
G36*
X125298542Y-76778242D02*
G01*
X125446501Y-76839529D01*
X125579655Y-76928499D01*
X125692901Y-77041745D01*
X125781871Y-77174899D01*
X125843158Y-77322858D01*
X125874400Y-77479925D01*
X125874400Y-77640075D01*
X125843158Y-77797142D01*
X125781871Y-77945101D01*
X125692901Y-78078255D01*
X125579655Y-78191501D01*
X125446501Y-78280471D01*
X125298542Y-78341758D01*
X125141475Y-78373000D01*
X124981325Y-78373000D01*
X124824258Y-78341758D01*
X124676299Y-78280471D01*
X124543145Y-78191501D01*
X124429899Y-78078255D01*
X124340929Y-77945101D01*
X124279642Y-77797142D01*
X124248400Y-77640075D01*
X124248400Y-77479925D01*
X124279642Y-77322858D01*
X124340929Y-77174899D01*
X124429899Y-77041745D01*
X124543145Y-76928499D01*
X124676299Y-76839529D01*
X124824258Y-76778242D01*
X124981325Y-76747000D01*
X125141475Y-76747000D01*
X125298542Y-76778242D01*
X125298542Y-76778242D01*
G37*
G36*
X110078542Y-76778242D02*
G01*
X110226501Y-76839529D01*
X110359655Y-76928499D01*
X110472901Y-77041745D01*
X110561871Y-77174899D01*
X110623158Y-77322858D01*
X110654400Y-77479925D01*
X110654400Y-77640075D01*
X110623158Y-77797142D01*
X110561871Y-77945101D01*
X110472901Y-78078255D01*
X110359655Y-78191501D01*
X110226501Y-78280471D01*
X110078542Y-78341758D01*
X109921475Y-78373000D01*
X109761325Y-78373000D01*
X109604258Y-78341758D01*
X109456299Y-78280471D01*
X109323145Y-78191501D01*
X109209899Y-78078255D01*
X109120929Y-77945101D01*
X109059642Y-77797142D01*
X109028400Y-77640075D01*
X109028400Y-77479925D01*
X109059642Y-77322858D01*
X109120929Y-77174899D01*
X109209899Y-77041745D01*
X109323145Y-76928499D01*
X109456299Y-76839529D01*
X109604258Y-76778242D01*
X109761325Y-76747000D01*
X109921475Y-76747000D01*
X110078542Y-76778242D01*
X110078542Y-76778242D01*
G37*
G36*
X91569085Y-72123975D02*
G01*
X91924143Y-72271045D01*
X91924145Y-72271046D01*
X92243690Y-72484559D01*
X92515441Y-72756310D01*
X92728954Y-73075855D01*
X92728955Y-73075857D01*
X92876025Y-73430915D01*
X92951000Y-73807842D01*
X92951000Y-74192158D01*
X92876025Y-74569085D01*
X92787477Y-74782858D01*
X92728954Y-74924145D01*
X92515441Y-75243690D01*
X92243690Y-75515441D01*
X91924145Y-75728954D01*
X91924144Y-75728955D01*
X91924143Y-75728955D01*
X91569085Y-75876025D01*
X91192158Y-75951000D01*
X90807842Y-75951000D01*
X90430915Y-75876025D01*
X90075857Y-75728955D01*
X90075856Y-75728955D01*
X90075855Y-75728954D01*
X89756310Y-75515441D01*
X89484559Y-75243690D01*
X89271046Y-74924145D01*
X89212523Y-74782858D01*
X89123975Y-74569085D01*
X89049000Y-74192158D01*
X89049000Y-73807842D01*
X89123975Y-73430915D01*
X89271045Y-73075857D01*
X89271046Y-73075855D01*
X89484559Y-72756310D01*
X89756310Y-72484559D01*
X90075855Y-72271046D01*
X90075857Y-72271045D01*
X90430915Y-72123975D01*
X90807842Y-72049000D01*
X91192158Y-72049000D01*
X91569085Y-72123975D01*
X91569085Y-72123975D01*
G37*
G36*
X110078542Y-74238242D02*
G01*
X110226501Y-74299529D01*
X110359655Y-74388499D01*
X110472901Y-74501745D01*
X110561871Y-74634899D01*
X110623158Y-74782858D01*
X110654400Y-74939925D01*
X110654400Y-75100075D01*
X110623158Y-75257142D01*
X110561871Y-75405101D01*
X110472901Y-75538255D01*
X110359655Y-75651501D01*
X110226501Y-75740471D01*
X110078542Y-75801758D01*
X109921475Y-75833000D01*
X109761325Y-75833000D01*
X109604258Y-75801758D01*
X109456299Y-75740471D01*
X109323145Y-75651501D01*
X109209899Y-75538255D01*
X109120929Y-75405101D01*
X109059642Y-75257142D01*
X109028400Y-75100075D01*
X109028400Y-74939925D01*
X109059642Y-74782858D01*
X109120929Y-74634899D01*
X109209899Y-74501745D01*
X109323145Y-74388499D01*
X109456299Y-74299529D01*
X109604258Y-74238242D01*
X109761325Y-74207000D01*
X109921475Y-74207000D01*
X110078542Y-74238242D01*
X110078542Y-74238242D01*
G37*
G36*
X129175742Y-74238242D02*
G01*
X129323701Y-74299529D01*
X129456855Y-74388499D01*
X129570101Y-74501745D01*
X129659071Y-74634899D01*
X129720358Y-74782858D01*
X129751600Y-74939925D01*
X129751600Y-75100075D01*
X129720358Y-75257142D01*
X129659071Y-75405101D01*
X129570101Y-75538255D01*
X129456855Y-75651501D01*
X129323701Y-75740471D01*
X129175742Y-75801758D01*
X129018675Y-75833000D01*
X128858525Y-75833000D01*
X128701458Y-75801758D01*
X128553499Y-75740471D01*
X128420345Y-75651501D01*
X128307099Y-75538255D01*
X128218129Y-75405101D01*
X128156842Y-75257142D01*
X128125600Y-75100075D01*
X128125600Y-74939925D01*
X128156842Y-74782858D01*
X128218129Y-74634899D01*
X128307099Y-74501745D01*
X128420345Y-74388499D01*
X128553499Y-74299529D01*
X128701458Y-74238242D01*
X128858525Y-74207000D01*
X129018675Y-74207000D01*
X129175742Y-74238242D01*
X129175742Y-74238242D01*
G37*
G36*
X144395742Y-74238242D02*
G01*
X144543701Y-74299529D01*
X144676855Y-74388499D01*
X144790101Y-74501745D01*
X144879071Y-74634899D01*
X144940358Y-74782858D01*
X144971600Y-74939925D01*
X144971600Y-75100075D01*
X144940358Y-75257142D01*
X144879071Y-75405101D01*
X144790101Y-75538255D01*
X144676855Y-75651501D01*
X144543701Y-75740471D01*
X144395742Y-75801758D01*
X144238675Y-75833000D01*
X144078525Y-75833000D01*
X143921458Y-75801758D01*
X143773499Y-75740471D01*
X143640345Y-75651501D01*
X143527099Y-75538255D01*
X143438129Y-75405101D01*
X143376842Y-75257142D01*
X143345600Y-75100075D01*
X143345600Y-74939925D01*
X143376842Y-74782858D01*
X143438129Y-74634899D01*
X143527099Y-74501745D01*
X143640345Y-74388499D01*
X143773499Y-74299529D01*
X143921458Y-74238242D01*
X144078525Y-74207000D01*
X144238675Y-74207000D01*
X144395742Y-74238242D01*
X144395742Y-74238242D01*
G37*
G36*
X125298542Y-74238242D02*
G01*
X125446501Y-74299529D01*
X125579655Y-74388499D01*
X125692901Y-74501745D01*
X125781871Y-74634899D01*
X125843158Y-74782858D01*
X125874400Y-74939925D01*
X125874400Y-75100075D01*
X125843158Y-75257142D01*
X125781871Y-75405101D01*
X125692901Y-75538255D01*
X125579655Y-75651501D01*
X125446501Y-75740471D01*
X125298542Y-75801758D01*
X125141475Y-75833000D01*
X124981325Y-75833000D01*
X124824258Y-75801758D01*
X124676299Y-75740471D01*
X124543145Y-75651501D01*
X124429899Y-75538255D01*
X124340929Y-75405101D01*
X124279642Y-75257142D01*
X124248400Y-75100075D01*
X124248400Y-74939925D01*
X124279642Y-74782858D01*
X124340929Y-74634899D01*
X124429899Y-74501745D01*
X124543145Y-74388499D01*
X124676299Y-74299529D01*
X124824258Y-74238242D01*
X124981325Y-74207000D01*
X125141475Y-74207000D01*
X125298542Y-74238242D01*
X125298542Y-74238242D01*
G37*
M02*
