M48
; DRILL file {KiCad (5.1.0)-1} date 2020/01/03 18:30:55
; FORMAT={-:-/ absolute / metric / decimal}
; #@! TF.CreationDate,2020-01-03T18:30:55+09:00
; #@! TF.GenerationSoftware,Kicad,Pcbnew,(5.1.0)-1
; #@! TF.FileFunction,Plated,1,2,PTH
FMAT,2
METRIC
T1C0.813
T2C2.200
%
G90
G05
T1
X128.939Y-75.02
X128.939Y-77.56
X128.939Y-80.1
X128.939Y-82.64
X128.939Y-85.18
X128.939Y-87.72
X128.939Y-90.26
X128.939Y-92.8
X128.939Y-95.34
X128.939Y-97.88
X128.939Y-100.42
X128.939Y-102.96
X144.159Y-75.02
X144.159Y-77.56
X144.159Y-80.1
X144.159Y-82.64
X144.159Y-85.18
X144.159Y-87.72
X144.159Y-90.26
X144.159Y-92.8
X144.159Y-95.34
X144.159Y-97.88
X144.159Y-100.42
X144.159Y-102.96
X109.841Y-75.02
X109.841Y-77.56
X109.841Y-80.1
X109.841Y-82.64
X109.841Y-85.18
X109.841Y-87.72
X109.841Y-90.26
X109.841Y-92.8
X109.841Y-95.34
X109.841Y-97.88
X109.841Y-100.42
X109.841Y-102.96
X125.061Y-75.02
X125.061Y-77.56
X125.061Y-80.1
X125.061Y-82.64
X125.061Y-85.18
X125.061Y-87.72
X125.061Y-90.26
X125.061Y-92.8
X125.061Y-95.34
X125.061Y-97.88
X125.061Y-100.42
X125.061Y-102.96
T2
X91.0Y-74.0
X166.0Y-133.0
X91.0Y-150.0
X166.0Y-83.0
T0
M30
